<svg width="45" height="35" viewBox="0 0 45 35" fill="none" xmlns="http://www.w3.org/2000/svg">
<path d="M35.8069 0H30.6451C30.3713 0 30.1088 0.0925957 29.9152 0.257417C29.7216 0.422238 29.6128 0.645783 29.6128 0.878875V0.982582L36.8392 5.90428V0.878875C36.8392 0.645783 36.7305 0.422238 36.5369 0.257417C36.3433 0.0925957 36.0807 0 35.8069 0Z" fill="#2D7B67"/>
<path d="M19.8054 11.4252C19.8054 10.8425 20.0773 10.2836 20.5613 9.87157C21.0453 9.45952 21.7018 9.22803 22.3863 9.22803C23.0708 9.22803 23.7272 9.45952 24.2112 9.87157C24.6952 10.2836 24.9672 10.8425 24.9672 11.4252C24.9672 12.0079 24.6952 12.5668 24.2112 12.9789C23.7272 13.3909 23.0708 13.6224 22.3863 13.6224C21.7018 13.6224 21.0453 13.3909 20.5613 12.9789C20.0773 12.5668 19.8054 12.0079 19.8054 11.4252Z" fill="#2D7B67"/>
<path fill-rule="evenodd" clip-rule="evenodd" d="M40.4525 13.9917L42.0671 15.0921C42.3885 15.3053 42.7957 15.4021 43.2004 15.3614C43.6051 15.3208 43.9746 15.146 44.2289 14.8749C44.4832 14.6038 44.6018 14.2583 44.5589 13.9133C44.5159 13.5684 44.315 13.2517 43.9997 13.032L27.224 1.60659C25.851 0.671229 24.1449 0.161621 22.3864 0.161621C20.6279 0.161621 18.9218 0.671229 17.5488 1.60659L0.773162 13.032C0.452274 13.2504 0.246441 13.5684 0.200944 13.916C0.155447 14.2636 0.274014 14.6123 0.530561 14.8855C0.787107 15.1587 1.16062 15.3339 1.56893 15.3727C1.97724 15.4114 2.38689 15.3105 2.70778 15.0921L4.32031 13.9917V32.0789H1.73944C1.32875 32.0789 0.934874 32.2178 0.64447 32.4651C0.354065 32.7123 0.190918 33.0476 0.190918 33.3973C0.190918 33.7469 0.354065 34.0822 0.64447 34.3294C0.934874 34.5767 1.32875 34.7156 1.73944 34.7156H43.0334C43.4441 34.7156 43.8379 34.5767 44.1283 34.3294C44.4188 34.0822 44.5819 33.7469 44.5819 33.3973C44.5819 33.0476 44.4188 32.7123 44.1283 32.4651C43.8379 32.2178 43.4441 32.0789 43.0334 32.0789H40.4525V13.9917ZM16.7085 11.4254C16.7085 10.1434 17.3067 8.91388 18.3715 8.00736C19.4363 7.10085 20.8805 6.59157 22.3864 6.59157C23.8923 6.59157 25.3365 7.10085 26.4013 8.00736C27.4661 8.91388 28.0643 10.1434 28.0643 11.4254C28.0643 12.7074 27.4661 13.9369 26.4013 14.8434C25.3365 15.7499 23.8923 16.2592 22.3864 16.2592C20.8805 16.2592 19.4363 15.7499 18.3715 14.8434C17.3067 13.9369 16.7085 12.7074 16.7085 11.4254ZM22.4896 18.0169C23.8606 18.0169 25.0437 18.0169 25.9914 18.1259C27.0072 18.2419 27.9797 18.5038 28.7684 19.1753C29.5571 19.8468 29.8647 20.6747 30.001 21.5395C30.1208 22.2953 30.129 23.2269 30.129 24.3044V32.0789H27.032V24.6085C27.032 23.3289 27.0278 22.4992 26.9329 21.891C26.842 21.3198 26.6975 21.1405 26.5777 21.0403C26.458 20.9401 26.2495 20.8153 25.5784 20.7379C24.862 20.6571 23.8895 20.6536 22.3864 20.6536C20.8833 20.6536 19.9088 20.6571 19.1944 20.7379C18.5234 20.8153 18.3128 20.9401 18.1951 21.0403C18.0774 21.1405 17.9308 21.3198 17.8399 21.891C17.745 22.501 17.7408 23.3289 17.7408 24.6085V32.0789H14.6438V24.5206C14.6438 23.3535 14.6438 22.3463 14.7718 21.5395C14.9081 20.6747 15.2157 19.8468 16.0044 19.1753C16.7931 18.5038 17.7677 18.2419 18.7814 18.1259C19.7291 18.0169 20.9122 18.0169 22.2852 18.0169H22.4896Z" fill="#2D7B67"/>
<path d="M19.8054 11.4252C19.8054 10.8425 20.0773 10.2836 20.5613 9.87157C21.0453 9.45952 21.7018 9.22803 22.3863 9.22803C23.0708 9.22803 23.7272 9.45952 24.2112 9.87157C24.6952 10.2836 24.9672 10.8425 24.9672 11.4252C24.9672 12.0079 24.6952 12.5668 24.2112 12.9789C23.7272 13.3909 23.0708 13.6224 22.3863 13.6224C21.7018 13.6224 21.0453 13.3909 20.5613 12.9789C20.0773 12.5668 19.8054 12.0079 19.8054 11.4252Z" fill="#2D7B67"/>
</svg>
