<svg width="39" height="39" viewBox="0 0 39 39" fill="none" xmlns="http://www.w3.org/2000/svg">
<path d="M30.875 6.5H27.625V4.875C27.625 4.44402 27.4538 4.0307 27.1491 3.72595C26.8443 3.4212 26.431 3.25 26 3.25C25.569 3.25 25.1557 3.4212 24.851 3.72595C24.5462 4.0307 24.375 4.44402 24.375 4.875V6.5H14.625V4.875C14.625 4.44402 14.4538 4.0307 14.149 3.72595C13.8443 3.4212 13.431 3.25 13 3.25C12.569 3.25 12.1557 3.4212 11.851 3.72595C11.5462 4.0307 11.375 4.44402 11.375 4.875V6.5H8.125C6.83207 6.5 5.59209 7.01362 4.67785 7.92786C3.76361 8.8421 3.25 10.0821 3.25 11.375V30.875C3.25 32.1679 3.76361 33.4079 4.67785 34.3222C5.59209 35.2364 6.83207 35.75 8.125 35.75H30.875C32.1679 35.75 33.4079 35.2364 34.3222 34.3222C35.2364 33.4079 35.75 32.1679 35.75 30.875V11.375C35.75 10.0821 35.2364 8.8421 34.3222 7.92786C33.4079 7.01362 32.1679 6.5 30.875 6.5ZM32.5 30.875C32.5 31.306 32.3288 31.7193 32.0241 32.0241C31.7193 32.3288 31.306 32.5 30.875 32.5H8.125C7.69402 32.5 7.2807 32.3288 6.97595 32.0241C6.67121 31.7193 6.5 31.306 6.5 30.875V19.5H32.5V30.875ZM32.5 16.25H6.5V11.375C6.5 10.944 6.67121 10.5307 6.97595 10.226C7.2807 9.92121 7.69402 9.75 8.125 9.75H11.375V11.375C11.375 11.806 11.5462 12.2193 11.851 12.524C12.1557 12.8288 12.569 13 13 13C13.431 13 13.8443 12.8288 14.149 12.524C14.4538 12.2193 14.625 11.806 14.625 11.375V9.75H24.375V11.375C24.375 11.806 24.5462 12.2193 24.851 12.524C25.1557 12.8288 25.569 13 26 13C26.431 13 26.8443 12.8288 27.1491 12.524C27.4538 12.2193 27.625 11.806 27.625 11.375V9.75H30.875C31.306 9.75 31.7193 9.92121 32.0241 10.226C32.3288 10.5307 32.5 10.944 32.5 11.375V16.25Z" fill="black"/>
</svg>
