<svg width="36" height="37" viewBox="0 0 36 37" fill="none" xmlns="http://www.w3.org/2000/svg">
<path d="M4.46875 15.2634C4.46875 9.06106 4.46875 5.95909 6.39638 4.0331C8.32401 2.10711 11.4243 2.10547 17.6266 2.10547H20.0937C26.2961 2.10547 29.398 2.10547 31.324 4.0331C33.25 5.96073 33.2516 9.06106 33.2516 15.2634V21.8423C33.2516 28.0446 33.2516 31.1466 31.324 33.0726C29.3964 34.9986 26.2961 35.0002 20.0937 35.0002H17.6266C11.4243 35.0002 8.32237 35.0002 6.39638 33.0726C4.47039 31.1449 4.46875 28.0446 4.46875 21.8423V15.2634Z" stroke="black" stroke-width="4" stroke-linecap="round" stroke-linejoin="round"/>
<path d="M14.0066 18.5093C13.3043 17.2856 12.9655 16.2872 12.7615 15.2741C12.4589 13.7773 13.1513 12.3135 14.2961 11.3793C14.7813 10.9846 15.3355 11.1194 15.6217 11.6343L16.2681 12.7938C16.7796 13.7116 17.0362 14.1721 16.9852 14.6589C16.9359 15.1458 16.5905 15.5421 15.8997 16.3366L14.0066 18.5093ZM14.0066 18.5093C15.487 21.0461 17.5981 23.1571 20.1349 24.6375M20.1349 24.6375C21.3586 25.3398 22.3569 25.6787 23.3701 25.8826C24.8668 26.1852 26.3306 25.4928 27.2648 24.3481C27.6595 23.8629 27.5247 23.3086 27.0099 23.0224L25.852 22.376C24.9309 21.8645 24.472 21.6079 23.9852 21.6589C23.4984 21.7083 23.102 22.0537 22.3076 22.7444L20.1349 24.6375ZM6.11184 8.68359H2M6.11184 18.552H2M6.11184 28.4204H2" stroke="black" stroke-width="4" stroke-linecap="round" stroke-linejoin="round"/>
</svg>
