<svg width="44" height="33" viewBox="0 0 44 33" fill="none" xmlns="http://www.w3.org/2000/svg">
<path d="M4.59711 33C3.39951 33 2.37465 32.5964 1.52253 31.7893C0.670422 30.9822 0.243639 30.0107 0.242188 28.875V4.125C0.242188 2.99062 0.66897 2.01987 1.52253 1.21275C2.3761 0.405625 3.40096 0.001375 4.59711 0H39.4365C40.6341 0 41.6597 0.40425 42.5132 1.21275C43.3668 2.02125 43.7929 2.992 43.7914 4.125V28.875C43.7914 30.0094 43.3653 30.9808 42.5132 31.7893C41.6611 32.5978 40.6355 33.0014 39.4365 33H4.59711ZM22.0168 18.5625L4.59711 8.25V28.875H39.4365V8.25L22.0168 18.5625ZM22.0168 14.4375L39.4365 4.125H4.59711L22.0168 14.4375ZM4.59711 8.25V4.125V28.875V8.25Z" fill="#2D7B67"/>
</svg>
