<svg width="52" height="52" viewBox="0 0 52 52" fill="none" xmlns="http://www.w3.org/2000/svg">
<path d="M49.4 0H10.4C9.02087 0 7.69823 0.547855 6.72304 1.52304C5.74786 2.49823 5.2 3.82087 5.2 5.2V13H0V18.2H5.2V23.4H0V28.6H5.2V33.8H0V39H5.2V46.8C5.2 48.1791 5.74786 49.5018 6.72304 50.477C7.69823 51.4521 9.02087 52 10.4 52H49.4C50.0896 52 50.7509 51.7261 51.2385 51.2385C51.7261 50.7509 52 50.0896 52 49.4V2.6C52 1.91044 51.7261 1.24912 51.2385 0.761522C50.7509 0.273928 50.0896 0 49.4 0ZM28.6 7.7974C32.8848 7.7974 36.4 11.31 36.4 15.5974C36.3938 17.6644 35.5701 19.6451 34.1088 21.1069C32.6474 22.5688 30.667 23.3931 28.6 23.4C24.3178 23.4 20.8 19.8822 20.8 15.5974C20.8 11.31 24.3178 7.7974 28.6 7.7974ZM44.2 41.6H13V39.65C13 33.8806 20.033 27.95 28.6 27.95C37.167 27.95 44.2 33.8806 44.2 39.65V41.6Z" fill="#2D7B67"/>
</svg>
