<svg width="81" height="81" viewBox="0 0 81 81" fill="none" xmlns="http://www.w3.org/2000/svg">
<path d="M58.75 0.375V6.625H69.8844L59.3375 17.2688C55.5679 14.4218 50.9739 12.8795 46.25 12.875C40.4062 12.875 34.95 15.1875 30.8188 19.3219C28.7767 21.3393 27.1554 23.7421 26.049 26.3908C24.9426 29.0396 24.373 31.8817 24.3733 34.7522C24.3736 37.6228 24.9437 40.4647 26.0507 43.1133C27.1577 45.7618 28.7794 48.1642 30.8219 50.1812C33.5406 52.9 36.7781 54.8531 40.3906 55.8438C40.7469 55.5719 41.1469 55.2875 41.4656 54.9687C42.7755 53.6365 43.7167 51.9868 44.1969 50.1812C40.7943 49.7627 37.6307 48.2144 35.2125 45.7844C32.2625 42.8375 30.625 38.925 30.625 34.75C30.625 30.575 32.2656 26.6688 35.2188 23.7188C38.1625 20.7594 42.075 19.125 46.25 19.125C50.425 19.125 54.3344 20.7656 57.2812 23.7188C58.7388 25.1621 59.8953 26.8803 60.6839 28.7739C61.4725 30.6675 61.8773 32.6988 61.875 34.75C61.875 37.4531 61.1094 39.9687 59.825 42.2687C60.125 43.8812 60.3125 45.575 60.3125 47.25C60.3125 48.8104 60.1823 50.3417 59.9219 51.8437C60.5469 51.3344 61.1031 50.7562 61.6812 50.1812C65.8125 46.0437 68.125 40.5938 68.125 34.75C68.125 29.9688 66.55 25.425 63.7312 21.6625L74.375 11.1188V22.25H80.625V0.375H58.75ZM39.6094 26.1562C39.2531 26.4281 38.8531 26.7125 38.5344 27.0312C37.1844 28.3875 36.3031 30.0312 35.8031 31.8219C39.2094 32.2594 42.3187 33.7469 44.7875 36.2156C47.7406 39.1625 49.3813 43.075 49.3813 47.2469C49.3813 51.4188 47.7406 55.3281 44.7875 58.2781C41.8375 61.2406 37.925 62.875 33.75 62.875C29.575 62.875 25.6656 61.2344 22.7188 58.2813C21.2598 56.839 20.1023 55.1209 19.3137 53.2271C18.525 51.3333 18.121 49.3015 18.125 47.25C18.125 44.5469 18.8906 42.0313 20.175 39.7313C19.8648 38.0886 19.7016 36.4216 19.6875 34.75C19.6875 33.1917 19.8177 31.6604 20.0781 30.1562C19.4531 30.6656 18.9 31.2437 18.3188 31.8219C14.1938 35.95 11.875 41.4062 11.875 47.25C11.875 52.0312 13.45 56.575 16.2688 60.3375L11 65.6094L4.75 59.3594L0.25 63.7531L6.5 70.0031L0.25 76.2531L4.75 80.7531L11 74.5031L17.25 80.7531L21.6406 76.2531L15.3906 70.0031L20.6656 64.7344C24.4315 67.5857 29.0264 69.1276 33.75 69.125C39.5938 69.125 45.05 66.8125 49.1813 62.6781C53.3125 58.55 55.625 53.0938 55.625 47.25C55.625 41.4062 53.3125 35.9563 49.1781 31.8188C46.4594 29.1 43.2219 27.1469 39.6094 26.1562Z" fill="black"/>
</svg>
