<svg width="26" height="27" viewBox="0 0 26 27" fill="none" xmlns="http://www.w3.org/2000/svg">
<path d="M14.0421 0.27C13.8 0.0947402 13.5055 0 13.2029 0C12.9003 0 12.6058 0.0947402 12.3637 0.27C11.7811 0.70089 11.2437 1.18608 10.7595 1.71855C10.0281 2.5137 9.00709 3.85425 9.00709 5.4C9.00709 6.47413 9.44914 7.50426 10.236 8.26378C11.0229 9.02331 12.0901 9.45 13.2029 9.45H4.81128C3.69849 9.45 2.63127 9.87669 1.8444 10.6362C1.05754 11.3957 0.615479 12.4259 0.615479 13.5V16.2C0.615479 17.8686 2.58891 18.8217 3.97212 17.82L4.90499 17.145C5.14708 16.9697 5.44153 16.875 5.74415 16.875C6.04677 16.875 6.34122 16.9697 6.58331 17.145L6.95534 17.415C7.68162 17.9408 8.56497 18.225 9.47282 18.225C10.3807 18.225 11.264 17.9408 11.9903 17.415L12.3637 17.145C12.6058 16.9697 12.9003 16.875 13.2029 16.875C13.5055 16.875 13.8 16.9697 14.0421 17.145L14.4155 17.415C15.1418 17.9408 16.0251 18.225 16.933 18.225C17.8408 18.225 18.7242 17.9408 19.4504 17.415L19.8225 17.145C20.0646 16.9697 20.359 16.875 20.6616 16.875C20.9642 16.875 21.2587 16.9697 21.5008 17.145L22.4337 17.82C23.8169 18.8217 25.7903 17.8686 25.7903 16.2V13.5C25.7903 12.4259 25.3482 11.3957 24.5614 10.6362C23.7745 9.87669 22.7073 9.45 21.5945 9.45H13.2029C14.3157 9.45 15.3829 9.02331 16.1698 8.26378C16.9566 7.50426 17.3987 6.47413 17.3987 5.4C17.3987 3.85425 16.3777 2.5137 15.6462 1.71855C15.1623 1.19205 14.6253 0.69255 14.0421 0.27ZM2.01408 20.8103V24.3C2.01408 25.0161 2.30878 25.7028 2.83336 26.2092C3.35794 26.7155 4.06942 27 4.81128 27H21.5945C22.3364 27 23.0478 26.7155 23.5724 26.2092C24.097 25.7028 24.3917 25.0161 24.3917 24.3V20.8103C24.0662 20.9237 23.7164 20.9566 23.3744 20.9059C23.0323 20.8552 22.7089 20.7225 22.4337 20.52L21.5008 19.845C21.2587 19.6697 20.9642 19.575 20.6616 19.575C20.359 19.575 20.0646 19.6697 19.8225 19.845L19.4504 20.115C18.7242 20.6408 17.8408 20.925 16.933 20.925C16.0251 20.925 15.1418 20.6408 14.4155 20.115L14.0421 19.845C13.8 19.6697 13.5055 19.575 13.2029 19.575C12.9003 19.575 12.6058 19.6697 12.3637 19.845L11.9903 20.115C11.264 20.6408 10.3807 20.925 9.47282 20.925C8.56497 20.925 7.68162 20.6408 6.95534 20.115L6.58331 19.845C6.34122 19.6697 6.04677 19.575 5.74415 19.575C5.44153 19.575 5.14708 19.6697 4.90499 19.845L3.97212 20.52C3.6969 20.7225 3.37347 20.8552 3.03141 20.9059C2.68935 20.9566 2.33957 20.9237 2.01408 20.8103Z" fill="#2D7B67"/>
</svg>
