<svg width="21" height="35" viewBox="0 0 21 35" fill="none" xmlns="http://www.w3.org/2000/svg">
<path d="M8.972 34.32V0.479998H12.572V34.32H8.972ZM10.268 30.432C8.252 30.432 6.32 30.168 4.472 29.64C2.624 29.088 1.136 28.38 0.00800003 27.516L1.988 23.124C3.068 23.892 4.34 24.528 5.804 25.032C7.292 25.512 8.792 25.752 10.304 25.752C11.456 25.752 12.38 25.644 13.076 25.428C13.796 25.188 14.324 24.864 14.66 24.456C14.996 24.048 15.164 23.58 15.164 23.052C15.164 22.38 14.9 21.852 14.372 21.468C13.844 21.06 13.148 20.736 12.284 20.496C11.42 20.232 10.46 19.992 9.404 19.776C8.372 19.536 7.328 19.248 6.272 18.912C5.24 18.576 4.292 18.144 3.428 17.616C2.564 17.088 1.856 16.392 1.304 15.528C0.776 14.664 0.512 13.56 0.512 12.216C0.512 10.776 0.896 9.468 1.664 8.292C2.456 7.092 3.632 6.144 5.192 5.448C6.776 4.728 8.756 4.368 11.132 4.368C12.716 4.368 14.276 4.56 15.812 4.944C17.348 5.304 18.704 5.856 19.88 6.6L18.08 11.028C16.904 10.356 15.728 9.864 14.552 9.552C13.376 9.216 12.224 9.048 11.096 9.048C9.968 9.048 9.044 9.18 8.324 9.444C7.604 9.708 7.088 10.056 6.776 10.488C6.464 10.896 6.308 11.376 6.308 11.928C6.308 12.576 6.572 13.104 7.1 13.512C7.628 13.896 8.324 14.208 9.188 14.448C10.052 14.688 11 14.928 12.032 15.168C13.088 15.408 14.132 15.684 15.164 15.996C16.22 16.308 17.18 16.728 18.044 17.256C18.908 17.784 19.604 18.48 20.132 19.344C20.684 20.208 20.96 21.3 20.96 22.62C20.96 24.036 20.564 25.332 19.772 26.508C18.98 27.684 17.792 28.632 16.208 29.352C14.648 30.072 12.668 30.432 10.268 30.432Z" fill="#2D7B67"/>
</svg>
