<svg width="459" height="328" viewBox="0 0 459 328" fill="none" xmlns="http://www.w3.org/2000/svg">
<g opacity="0.82">
<path d="M413.505 113.99C406.176 98.2582 396.379 83.6885 385.183 71.3157C382.994 68.8957 380.731 66.542 378.385 64.2742C351.625 38.4081 313.536 23.5628 276.624 28.2696C251.438 31.4807 227.941 43.3523 207.852 58.8864C195.016 68.8124 182.882 80.5462 167.418 85.4544C147.809 91.6786 126.655 85.806 106.082 85.7129C74.2669 85.5686 42.0504 100.865 24.5972 127.477C8.79777 151.567 6.25425 183.804 18.0801 210.077C29.9059 236.35 55.7194 255.81 84.2226 259.943C102.17 262.544 120.482 259.431 138.558 260.883C164.95 263.002 189.467 274.666 214.673 282.773C260.558 297.531 312.212 300.177 355.848 279.699C391.756 262.847 420.942 227.925 426.376 188.029C429.815 162.784 424.169 136.878 413.505 113.99Z" fill="#92E3A9"/>
<path opacity="0.7" d="M413.505 113.99C406.176 98.2582 396.379 83.6885 385.183 71.3157C382.994 68.8957 380.731 66.542 378.385 64.2742C351.625 38.4081 313.536 23.5628 276.624 28.2696C251.438 31.4807 227.941 43.3523 207.852 58.8864C195.016 68.8124 182.882 80.5462 167.418 85.4544C147.809 91.6786 126.655 85.806 106.082 85.7129C74.2669 85.5686 42.0504 100.865 24.5972 127.477C8.79777 151.567 6.25425 183.804 18.0801 210.077C29.9059 236.35 55.7194 255.81 84.2226 259.943C102.17 262.544 120.482 259.431 138.558 260.883C164.95 263.002 189.467 274.666 214.673 282.773C260.558 297.531 312.212 300.177 355.848 279.699C391.756 262.847 420.942 227.925 426.376 188.029C429.815 162.784 424.169 136.878 413.505 113.99Z" fill="white"/>
<path d="M308.842 283.098H444.575" stroke="#263238" stroke-miterlimit="10"/>
<path d="M49.834 283.098H302.94" stroke="#263238" stroke-miterlimit="10"/>
<path d="M38.3262 283.098H43.9325" stroke="#263238" stroke-miterlimit="10"/>
<path d="M406.717 167.289L415.847 254.815" stroke="#263238" stroke-width="2" stroke-miterlimit="10"/>
<path d="M414.376 238.065L410.236 233.691" stroke="#263238" stroke-width="2" stroke-miterlimit="10"/>
<path d="M411.493 235.001C411.493 235.001 411.612 233.066 409.846 231.489C408.784 230.539 403.192 228.186 402.662 230.156C402.085 232.299 407.808 236.507 411.493 235.001Z" fill="#92E3A9" stroke="#263238" stroke-miterlimit="10"/>
<path d="M411.493 235L406.17 231.682" stroke="#263238" stroke-width="0.5" stroke-miterlimit="10"/>
<path d="M415.414 248.018L411.275 243.645" stroke="#263238" stroke-width="2" stroke-miterlimit="10"/>
<path d="M412.532 244.954C412.532 244.954 412.651 243.019 410.885 241.442C409.823 240.493 404.231 238.139 403.701 240.109C403.124 242.252 408.847 246.46 412.532 244.954Z" fill="#92E3A9" stroke="#263238" stroke-miterlimit="10"/>
<path d="M412.532 244.953L407.209 241.635" stroke="#263238" stroke-width="0.5" stroke-miterlimit="10"/>
<path d="M411.843 213.774L407.703 209.4" stroke="#263238" stroke-width="2" stroke-miterlimit="10"/>
<path d="M408.96 210.712C408.96 210.712 409.079 208.777 407.313 207.2C406.251 206.25 400.659 203.897 400.128 205.867C399.551 208.009 405.274 212.218 408.96 210.712Z" fill="#92E3A9" stroke="#263238" stroke-miterlimit="10"/>
<path d="M408.96 210.711L403.637 207.393" stroke="#263238" stroke-width="0.5" stroke-miterlimit="10"/>
<path d="M412.879 223.727L408.74 219.354" stroke="#263238" stroke-width="2" stroke-miterlimit="10"/>
<path d="M409.998 220.665C409.998 220.665 410.117 218.73 408.35 217.153C407.288 216.203 401.696 213.85 401.165 215.82C400.588 217.963 406.312 222.171 409.998 220.665Z" fill="#92E3A9" stroke="#263238" stroke-miterlimit="10"/>
<path d="M409.999 220.664L404.676 217.346" stroke="#263238" stroke-width="0.5" stroke-miterlimit="10"/>
<path d="M410.154 197.604L406.016 193.23" stroke="#263238" stroke-width="2" stroke-miterlimit="10"/>
<path d="M407.273 194.54C407.273 194.54 407.391 192.605 405.626 191.028C404.563 190.078 398.971 187.725 398.441 189.695C397.863 191.838 403.586 196.046 407.273 194.54Z" fill="#92E3A9" stroke="#263238" stroke-miterlimit="10"/>
<path d="M407.273 194.541L401.949 191.223" stroke="#263238" stroke-width="0.5" stroke-miterlimit="10"/>
<path d="M408.461 181.364L404.322 176.99" stroke="#263238" stroke-width="2" stroke-miterlimit="10"/>
<path d="M405.579 178.302C405.579 178.302 405.697 176.367 403.932 174.789C402.87 173.84 397.278 171.487 396.748 173.457C396.17 175.6 401.894 179.808 405.579 178.302Z" fill="#92E3A9" stroke="#263238" stroke-miterlimit="10"/>
<path d="M405.579 178.301L400.256 174.982" stroke="#263238" stroke-width="0.5" stroke-miterlimit="10"/>
<path d="M413.68 232.174L416.827 227.039" stroke="#263238" stroke-width="2" stroke-miterlimit="10"/>
<path d="M415.866 228.582C415.866 228.582 415.351 226.713 416.753 224.804C417.596 223.656 422.582 220.199 423.508 222.016C424.515 223.994 419.784 229.294 415.866 228.582Z" fill="#92E3A9" stroke="#263238" stroke-miterlimit="10"/>
<path d="M415.867 228.581L420.66 223.998" stroke="#263238" stroke-width="0.5" stroke-miterlimit="10"/>
<path d="M410.947 205.978L414.095 200.844" stroke="#263238" stroke-width="2" stroke-miterlimit="10"/>
<path d="M413.133 202.386C413.133 202.386 412.618 200.518 414.021 198.609C414.865 197.461 419.85 194.003 420.775 195.821C421.782 197.799 417.051 203.099 413.133 202.386Z" fill="#92E3A9" stroke="#263238" stroke-miterlimit="10"/>
<path d="M413.135 202.386L417.928 197.803" stroke="#263238" stroke-width="0.5" stroke-miterlimit="10"/>
<path d="M409.746 194.468L412.894 189.334" stroke="#263238" stroke-width="2" stroke-miterlimit="10"/>
<path d="M411.934 190.877C411.934 190.877 411.419 189.008 412.821 187.099C413.665 185.951 418.65 182.493 419.576 184.311C420.583 186.288 415.852 191.588 411.934 190.877Z" fill="#92E3A9" stroke="#263238" stroke-miterlimit="10"/>
<path d="M411.934 190.876L416.727 186.293" stroke="#263238" stroke-width="0.5" stroke-miterlimit="10"/>
<path d="M407.986 177.592L411.133 172.457" stroke="#263238" stroke-width="2" stroke-miterlimit="10"/>
<path d="M410.173 173.999C410.173 173.999 409.657 172.131 411.06 170.222C411.904 169.074 416.888 165.616 417.814 167.435C418.821 169.412 414.09 174.712 410.173 173.999Z" fill="#92E3A9" stroke="#263238" stroke-miterlimit="10"/>
<path d="M410.174 173.999L414.967 169.416" stroke="#263238" stroke-width="0.5" stroke-miterlimit="10"/>
<path d="M406.641 166.802C406.641 166.802 406.126 164.934 407.529 163.025C408.372 161.876 413.357 158.419 414.283 160.237C415.29 162.215 410.559 167.515 406.641 166.802Z" fill="#92E3A9" stroke="#263238" stroke-miterlimit="10"/>
<path d="M406.641 166.802L411.434 162.219" stroke="#263238" stroke-width="0.5" stroke-miterlimit="10"/>
<path d="M406.918 167C406.918 167 405.006 167.317 403.256 165.722C402.203 164.762 399.289 159.439 401.193 158.709C403.265 157.915 408.037 163.177 406.918 167Z" fill="#92E3A9" stroke="#263238" stroke-miterlimit="10"/>
<path d="M406.918 167L402.865 161.75" stroke="#263238" stroke-width="0.5" stroke-miterlimit="10"/>
<path d="M430.798 179.344L421.719 266.874" stroke="#263238" stroke-width="2" stroke-miterlimit="10"/>
<path d="M423.726 250.178L420.576 245.045" stroke="#263238" stroke-width="2" stroke-miterlimit="10"/>
<path d="M421.536 246.587C421.536 246.587 422.051 244.719 420.647 242.811C419.803 241.663 414.815 238.208 413.891 240.027C412.885 242.005 417.62 247.302 421.536 246.587Z" fill="#92E3A9" stroke="#263238" stroke-miterlimit="10"/>
<path d="M421.537 246.588L417.012 242.244" stroke="#263238" stroke-width="0.5" stroke-miterlimit="10"/>
<path d="M426.246 225.888L423.096 220.756" stroke="#263238" stroke-width="2" stroke-miterlimit="10"/>
<path d="M424.056 222.296C424.056 222.296 424.57 220.427 423.167 218.52C422.322 217.372 417.335 213.917 416.41 215.736C415.405 217.714 420.139 223.011 424.056 222.296Z" fill="#92E3A9" stroke="#263238" stroke-miterlimit="10"/>
<path d="M424.056 222.297L419.529 217.953" stroke="#263238" stroke-width="0.5" stroke-miterlimit="10"/>
<path d="M425.213 235.843L422.062 230.711" stroke="#263238" stroke-width="2" stroke-miterlimit="10"/>
<path d="M423.023 232.252C423.023 232.252 423.537 230.383 422.134 228.475C421.289 227.327 416.302 223.872 415.377 225.691C414.371 227.669 419.106 232.967 423.023 232.252Z" fill="#92E3A9" stroke="#263238" stroke-miterlimit="10"/>
<path d="M423.022 232.252L418.496 227.908" stroke="#263238" stroke-width="0.5" stroke-miterlimit="10"/>
<path d="M427.923 209.717L424.773 204.584" stroke="#263238" stroke-width="2" stroke-miterlimit="10"/>
<path d="M425.734 206.127C425.734 206.127 426.248 204.258 424.844 202.35C424 201.202 419.013 197.747 418.088 199.566C417.083 201.544 421.817 206.841 425.734 206.127Z" fill="#92E3A9" stroke="#263238" stroke-miterlimit="10"/>
<path d="M425.733 206.127L421.207 201.783" stroke="#263238" stroke-width="0.5" stroke-miterlimit="10"/>
<path d="M429.608 193.476L426.457 188.344" stroke="#263238" stroke-width="2" stroke-miterlimit="10"/>
<path d="M427.417 189.884C427.417 189.884 427.931 188.015 426.528 186.108C425.684 184.96 420.696 181.505 419.772 183.324C418.766 185.302 423.5 190.599 427.417 189.884Z" fill="#92E3A9" stroke="#263238" stroke-miterlimit="10"/>
<path d="M427.417 189.885L422.891 185.541" stroke="#263238" stroke-width="0.5" stroke-miterlimit="10"/>
<path d="M424.258 244.273L428.395 239.896" stroke="#263238" stroke-width="2" stroke-miterlimit="10"/>
<path d="M427.138 241.207C427.138 241.207 427.019 239.272 428.784 237.693C429.845 236.743 435.436 234.387 435.968 236.356C436.546 238.5 430.825 242.711 427.138 241.207Z" fill="#92E3A9" stroke="#263238" stroke-miterlimit="10"/>
<path d="M427.137 241.207L432.771 237.709" stroke="#263238" stroke-width="0.5" stroke-miterlimit="10"/>
<path d="M426.975 218.077L431.111 213.701" stroke="#263238" stroke-width="2" stroke-miterlimit="10"/>
<path d="M429.855 215.012C429.855 215.012 429.736 213.077 431.5 211.498C432.563 210.548 438.153 208.192 438.684 210.161C439.263 212.304 433.542 216.516 429.855 215.012Z" fill="#92E3A9" stroke="#263238" stroke-miterlimit="10"/>
<path d="M429.854 215.011L435.487 211.514" stroke="#263238" stroke-width="0.5" stroke-miterlimit="10"/>
<path d="M428.168 206.566L432.305 202.189" stroke="#263238" stroke-width="2" stroke-miterlimit="10"/>
<path d="M431.049 203.5C431.049 203.5 430.929 201.565 432.694 199.986C433.755 199.036 439.346 196.68 439.878 198.649C440.456 200.792 434.735 205.004 431.049 203.5Z" fill="#92E3A9" stroke="#263238" stroke-miterlimit="10"/>
<path d="M431.049 203.5L436.683 200.002" stroke="#263238" stroke-width="0.5" stroke-miterlimit="10"/>
<path d="M429.918 189.687L434.054 185.311" stroke="#263238" stroke-width="2" stroke-miterlimit="10"/>
<path d="M432.799 186.623C432.799 186.623 432.679 184.688 434.444 183.109C435.505 182.159 441.096 179.803 441.628 181.772C442.206 183.915 436.486 188.127 432.799 186.623Z" fill="#92E3A9" stroke="#263238" stroke-miterlimit="10"/>
<path d="M432.799 186.623L438.433 183.125" stroke="#263238" stroke-width="0.5" stroke-miterlimit="10"/>
<path d="M430.822 178.851C430.822 178.851 430.703 176.917 432.467 175.338C433.529 174.388 439.119 172.032 439.651 174.001C440.23 176.143 434.509 180.355 430.822 178.851Z" fill="#92E3A9" stroke="#263238" stroke-miterlimit="10"/>
<path d="M430.822 178.851L436.456 175.354" stroke="#263238" stroke-width="0.5" stroke-miterlimit="10"/>
<path d="M431.053 179.102C431.053 179.102 429.117 179.018 427.733 177.097C426.9 175.941 425.144 170.132 427.157 169.809C429.348 169.458 432.935 175.592 431.053 179.102Z" fill="#92E3A9" stroke="#263238" stroke-miterlimit="10"/>
<path d="M431.052 179.103L428.166 173.131" stroke="#263238" stroke-width="0.5" stroke-miterlimit="10"/>
<path d="M420.395 143.701V254.39" stroke="#263238" stroke-width="2" stroke-miterlimit="10"/>
<path d="M420.483 237.747L416.82 232.967" stroke="#263238" stroke-width="2" stroke-miterlimit="10"/>
<path d="M417.935 234.401C417.935 234.401 418.253 232.489 416.661 230.736C415.703 229.682 410.386 226.76 409.653 228.665C408.857 230.736 414.113 235.516 417.935 234.401Z" fill="#92E3A9" stroke="#263238" stroke-miterlimit="10"/>
<path d="M417.934 234.4L412.984 230.547" stroke="#263238" stroke-width="0.5" stroke-miterlimit="10"/>
<path d="M420.483 216.944L416.82 212.164" stroke="#263238" stroke-width="2" stroke-miterlimit="10"/>
<path d="M417.935 213.598C417.935 213.598 418.253 211.686 416.661 209.934C415.703 208.879 410.386 205.958 409.653 207.862C408.857 209.933 414.113 214.713 417.935 213.598Z" fill="#92E3A9" stroke="#263238" stroke-miterlimit="10"/>
<path d="M417.934 213.598L412.984 209.744" stroke="#263238" stroke-width="0.5" stroke-miterlimit="10"/>
<path d="M420.483 192.522L416.82 187.742" stroke="#263238" stroke-width="2" stroke-miterlimit="10"/>
<path d="M417.935 189.176C417.935 189.176 418.253 187.264 416.661 185.512C415.703 184.457 410.386 181.536 409.653 183.441C408.857 185.512 414.113 190.291 417.935 189.176Z" fill="#92E3A9" stroke="#263238" stroke-miterlimit="10"/>
<path d="M417.934 189.176L412.984 185.322" stroke="#263238" stroke-width="0.5" stroke-miterlimit="10"/>
<path d="M420.483 176.265L416.82 171.484" stroke="#263238" stroke-width="2" stroke-miterlimit="10"/>
<path d="M417.935 172.919C417.935 172.919 418.253 171.006 416.661 169.254C415.703 168.2 410.386 165.278 409.653 167.183C408.857 169.254 414.113 174.034 417.935 172.919Z" fill="#92E3A9" stroke="#263238" stroke-miterlimit="10"/>
<path d="M417.934 172.918L412.984 169.064" stroke="#263238" stroke-width="0.5" stroke-miterlimit="10"/>
<path d="M420.483 159.936L416.82 155.156" stroke="#263238" stroke-width="2" stroke-miterlimit="10"/>
<path d="M417.935 156.591C417.935 156.591 418.253 154.678 416.661 152.926C415.703 151.872 410.386 148.95 409.653 150.854C408.857 152.925 414.113 157.706 417.935 156.591Z" fill="#92E3A9" stroke="#263238" stroke-miterlimit="10"/>
<path d="M417.934 156.59L412.984 152.736" stroke="#263238" stroke-width="0.5" stroke-miterlimit="10"/>
<path d="M420.402 244.098L424.065 239.318" stroke="#263238" stroke-width="2" stroke-miterlimit="10"/>
<path d="M422.95 240.752C422.95 240.752 422.631 238.84 424.224 237.088C425.182 236.033 430.499 233.112 431.232 235.017C432.028 237.088 426.772 241.868 422.95 240.752Z" fill="#92E3A9" stroke="#263238" stroke-miterlimit="10"/>
<path d="M422.951 240.752L428.194 236.691" stroke="#263238" stroke-width="0.5" stroke-miterlimit="10"/>
<path d="M420.402 211.014L424.065 206.234" stroke="#263238" stroke-width="2" stroke-miterlimit="10"/>
<path d="M422.95 207.668C422.95 207.668 422.631 205.756 424.224 204.004C425.182 202.949 430.499 200.028 431.232 201.933C432.028 204.004 426.772 208.783 422.95 207.668Z" fill="#92E3A9" stroke="#263238" stroke-miterlimit="10"/>
<path d="M422.951 207.668L428.194 203.607" stroke="#263238" stroke-width="0.5" stroke-miterlimit="10"/>
<path d="M420.402 194.686L424.065 189.906" stroke="#263238" stroke-width="2" stroke-miterlimit="10"/>
<path d="M422.95 191.341C422.95 191.341 422.631 189.428 424.224 187.676C425.182 186.622 430.499 183.7 431.232 185.604C432.028 187.676 426.772 192.456 422.95 191.341Z" fill="#92E3A9" stroke="#263238" stroke-miterlimit="10"/>
<path d="M422.951 191.34L428.194 187.279" stroke="#263238" stroke-width="0.5" stroke-miterlimit="10"/>
<path d="M420.402 173.104L424.065 168.324" stroke="#263238" stroke-width="2" stroke-miterlimit="10"/>
<path d="M422.95 169.759C422.95 169.759 422.631 167.846 424.224 166.094C425.182 165.04 430.499 162.118 431.232 164.022C432.028 166.094 426.772 170.874 422.95 169.759Z" fill="#92E3A9" stroke="#263238" stroke-miterlimit="10"/>
<path d="M422.951 169.758L428.194 165.697" stroke="#263238" stroke-width="0.5" stroke-miterlimit="10"/>
<path d="M420.402 156.135L424.065 151.355" stroke="#263238" stroke-width="2" stroke-miterlimit="10"/>
<path d="M422.95 152.79C422.95 152.79 422.631 150.878 424.224 149.125C425.182 148.071 430.499 145.149 431.232 147.054C432.028 149.125 426.772 153.905 422.95 152.79Z" fill="#92E3A9" stroke="#263238" stroke-miterlimit="10"/>
<path d="M422.949 152.79L428.192 148.729" stroke="#263238" stroke-width="0.5" stroke-miterlimit="10"/>
<path d="M420.182 145.264C420.182 145.264 419.864 143.353 421.456 141.6C422.414 140.545 427.732 137.624 428.464 139.529C429.261 141.6 424.004 146.379 420.182 145.264Z" fill="#92E3A9" stroke="#263238" stroke-miterlimit="10"/>
<path d="M420.182 145.266L425.425 141.205" stroke="#263238" stroke-width="0.5" stroke-miterlimit="10"/>
<path d="M420.438 145.49C420.438 145.49 418.504 145.607 416.929 143.839C415.981 142.775 413.635 137.178 415.605 136.65C417.748 136.074 421.947 141.804 420.438 145.49Z" fill="#92E3A9" stroke="#263238" stroke-miterlimit="10"/>
<path d="M420.438 145.49L416.951 139.848" stroke="#263238" stroke-width="0.5" stroke-miterlimit="10"/>
<path d="M424.945 283.097H413.229L411.764 253.492H426.41L424.945 283.097Z" fill="#263238" stroke="#263238" stroke-miterlimit="10"/>
<path d="M176.938 51.5488H170.723V54.5225H176.938V51.5488Z" stroke="#263238" stroke-miterlimit="10"/>
<path d="M184.235 51.5488H178.02V54.5225H184.235V51.5488Z" stroke="#263238" stroke-miterlimit="10"/>
<path d="M191.532 51.5488H185.316V54.5225H191.532V51.5488Z" stroke="#263238" stroke-miterlimit="10"/>
<path d="M198.827 51.5488H192.611V54.5225H198.827V51.5488Z" stroke="#263238" stroke-miterlimit="10"/>
<path d="M206.124 51.5488H199.908V54.5225H206.124V51.5488Z" stroke="#263238" stroke-miterlimit="10"/>
<path d="M213.419 51.5488H207.203V54.5225H213.419V51.5488Z" stroke="#263238" stroke-miterlimit="10"/>
<path d="M220.715 51.5488H214.5V54.5225H220.715V51.5488Z" stroke="#263238" stroke-miterlimit="10"/>
<path d="M228.012 51.5488H221.797V54.5225H228.012V51.5488Z" stroke="#263238" stroke-miterlimit="10"/>
<path d="M176.938 56.4141H170.723V59.3877H176.938V56.4141Z" stroke="#263238" stroke-miterlimit="10"/>
<path d="M184.235 56.4141H178.02V59.3877H184.235V56.4141Z" stroke="#263238" stroke-miterlimit="10"/>
<path d="M191.532 56.4141H185.316V59.3877H191.532V56.4141Z" stroke="#263238" stroke-miterlimit="10"/>
<path d="M198.827 56.4141H192.611V59.3877H198.827V56.4141Z" stroke="#263238" stroke-miterlimit="10"/>
<path d="M206.124 56.4141H199.908V59.3877H206.124V56.4141Z" stroke="#263238" stroke-miterlimit="10"/>
<path d="M213.419 56.4141H207.203V59.3877H213.419V56.4141Z" stroke="#263238" stroke-miterlimit="10"/>
<path d="M220.715 56.4141H214.5V59.3877H220.715V56.4141Z" stroke="#263238" stroke-miterlimit="10"/>
<path d="M228.012 56.4141H221.797V59.3877H228.012V56.4141Z" stroke="#263238" stroke-miterlimit="10"/>
<path d="M176.938 61.2812H170.723V64.2549H176.938V61.2812Z" stroke="#263238" stroke-miterlimit="10"/>
<path d="M184.235 61.2812H178.02V64.2549H184.235V61.2812Z" stroke="#263238" stroke-miterlimit="10"/>
<path d="M191.532 61.2812H185.316V64.2549H191.532V61.2812Z" stroke="#263238" stroke-miterlimit="10"/>
<path d="M198.827 61.2812H192.611V64.2549H198.827V61.2812Z" stroke="#263238" stroke-miterlimit="10"/>
<path d="M206.124 61.2812H199.908V64.2549H206.124V61.2812Z" stroke="#263238" stroke-miterlimit="10"/>
<path d="M213.419 61.2812H207.203V64.2549H213.419V61.2812Z" stroke="#263238" stroke-miterlimit="10"/>
<path d="M220.715 61.2812H214.5V64.2549H220.715V61.2812Z" stroke="#263238" stroke-miterlimit="10"/>
<path d="M228.012 61.2812H221.797V64.2549H228.012V61.2812Z" stroke="#263238" stroke-miterlimit="10"/>
<path d="M176.938 66.1465H170.723V69.1201H176.938V66.1465Z" stroke="#263238" stroke-miterlimit="10"/>
<path d="M184.235 66.1465H178.02V69.1201H184.235V66.1465Z" stroke="#263238" stroke-miterlimit="10"/>
<path d="M205.584 66.1465H185.316V69.1201H205.584V66.1465Z" stroke="#263238" stroke-miterlimit="10"/>
<path d="M213.419 66.1465H207.203V69.1201H213.419V66.1465Z" stroke="#263238" stroke-miterlimit="10"/>
<path d="M220.715 66.1465H214.5V69.1201H220.715V66.1465Z" stroke="#263238" stroke-miterlimit="10"/>
<path d="M228.012 66.1465H221.797V69.1201H228.012V66.1465Z" stroke="#263238" stroke-miterlimit="10"/>
<path d="M235.025 101.998C235.025 101.998 251.901 78.3619 277.674 64.8555" stroke="#263238" stroke-miterlimit="10"/>
<path d="M259.879 76.5211L261.106 57.7969" stroke="#263238" stroke-miterlimit="10"/>
<path d="M253.748 81.9551L271.593 83.578" stroke="#263238" stroke-miterlimit="10"/>
<path d="M260.236 66.9426C260.236 66.9426 255.978 64.7109 256.181 57.8137C256.383 50.9159 261.048 46.4531 261.048 46.4531C261.048 46.4531 264.495 51.1193 264.901 57.4083C265.306 63.6967 260.236 66.9426 260.236 66.9426Z" stroke="#263238" stroke-miterlimit="10"/>
<path d="M246.041 80.7376C246.041 80.7376 241.783 78.5058 241.986 71.6087C242.188 64.7108 246.852 60.248 246.852 60.248C246.852 60.248 250.299 64.9142 250.705 71.2032C251.111 77.4923 246.041 80.7376 246.041 80.7376Z" stroke="#263238" stroke-miterlimit="10"/>
<path d="M263.887 82.7669C263.887 82.7669 266.523 79.3184 271.593 79.3184C276.662 79.3184 281.732 86.2162 281.732 86.2162C281.732 86.2162 276.865 88.2445 270.782 87.8391C264.698 87.4331 263.887 82.7669 263.887 82.7669Z" stroke="#263238" stroke-miterlimit="10"/>
<path d="M269.97 69.7841C269.97 69.7841 267.942 63.495 274.431 60.8579C280.92 58.2208 286.193 60.6552 286.193 60.6552C286.193 60.6552 286.193 67.3497 280.312 69.9874C274.431 72.6239 269.97 69.7841 269.97 69.7841Z" stroke="#263238" stroke-miterlimit="10"/>
<path d="M246.649 88.4475L246.244 72.8262" stroke="#263238" stroke-miterlimit="10"/>
<path d="M388.109 60.2969H356.723V80.0831H374.503L373.921 89.1156L380.898 80.0831H388.109V60.2969Z" stroke="#263238" stroke-miterlimit="10"/>
<path d="M404.928 83.0938H383.379V96.6782H395.586L395.186 102.88L399.976 96.6782H404.928V83.0938Z" stroke="#263238" stroke-miterlimit="10"/>
<path d="M367.676 70.1894C367.676 71.1393 366.906 71.9101 365.956 71.9101C365.007 71.9101 364.236 71.14 364.236 70.1894C364.236 69.2389 365.006 68.4688 365.956 68.4688C366.906 68.4688 367.676 69.2389 367.676 70.1894Z" stroke="#263238" stroke-miterlimit="10"/>
<path d="M374.985 70.1894C374.985 71.1393 374.215 71.9101 373.265 71.9101C372.315 71.9101 371.545 71.14 371.545 70.1894C371.545 69.2389 372.315 68.4688 373.265 68.4688C374.214 68.4688 374.985 69.2389 374.985 70.1894Z" stroke="#263238" stroke-miterlimit="10"/>
<path d="M382.293 70.1894C382.293 71.1393 381.524 71.9101 380.573 71.9101C379.623 71.9101 378.854 71.14 378.854 70.1894C378.854 69.2389 379.623 68.4688 380.573 68.4688C381.524 68.4688 382.293 69.2389 382.293 70.1894Z" stroke="#263238" stroke-miterlimit="10"/>
<path d="M43.002 118.023H66.7637V133.003H53.3026L53.7439 139.841L48.4621 133.003H43.002V118.023Z" stroke="#263238" stroke-miterlimit="10"/>
<path d="M30.2695 135.283H46.583V145.567H37.3414L37.6437 150.262L34.0176 145.567H30.2695V135.283Z" stroke="#263238" stroke-miterlimit="10"/>
<path d="M59.773 126.817C60.4922 126.817 61.0752 126.233 61.0752 125.514C61.0752 124.794 60.4922 124.211 59.773 124.211C59.0537 124.211 58.4707 124.794 58.4707 125.514C58.4707 126.233 59.0537 126.817 59.773 126.817Z" stroke="#263238" stroke-miterlimit="10"/>
<path d="M54.2397 126.817C54.959 126.817 55.542 126.233 55.542 125.514C55.542 124.794 54.959 124.211 54.2397 124.211C53.5205 124.211 52.9375 124.794 52.9375 125.514C52.9375 126.233 53.5205 126.817 54.2397 126.817Z" stroke="#263238" stroke-miterlimit="10"/>
<path d="M48.7065 126.817C49.4258 126.817 50.0088 126.233 50.0088 125.514C50.0088 124.794 49.4258 124.211 48.7065 124.211C47.9873 124.211 47.4043 124.794 47.4043 125.514C47.4043 126.233 47.9873 126.817 48.7065 126.817Z" stroke="#263238" stroke-miterlimit="10"/>
<path d="M72.5311 73.7374C72.4367 73.454 72.3895 73.147 72.3895 72.7219C72.3895 69.1074 75.2229 68.7767 75.2229 64.6662C75.2229 63.4848 74.7501 63.0361 73.9239 63.0361C73.0977 63.0361 72.6256 63.4848 72.6256 64.6662V66.4617H70.1699V64.8316C70.1699 62.1859 71.4682 60.6738 73.9954 60.6738C76.5225 60.6738 77.8208 62.1859 77.8208 64.8316C77.8208 69.131 74.7507 69.7922 74.7507 72.8157C74.7507 73.1227 74.7743 73.4304 74.8458 73.7374H72.5311ZM74.916 74.8946V77.3986H72.4131V74.8946H74.916Z" stroke="#263238" stroke-miterlimit="10"/>
<path d="M158.051 249.739C157.956 249.456 157.909 249.149 157.909 248.724C157.909 245.109 160.742 244.779 160.742 240.668C160.742 239.487 160.27 239.038 159.443 239.038C158.617 239.038 158.145 239.487 158.145 240.668V242.464H155.689V240.834C155.689 238.188 156.988 236.676 159.514 236.676C162.041 236.676 163.34 238.188 163.34 240.834C163.34 245.133 160.27 245.794 160.27 248.818C160.27 249.125 160.293 249.432 160.365 249.739H158.051ZM160.436 250.897V253.4H157.933V250.897H160.436Z" stroke="#263238" stroke-miterlimit="10"/>
<path d="M130.689 177.564H169.124V204.643H130.689V282.9H100.916V93.3496H179.68V120.429H130.689V177.564Z" fill="#92E3A9" stroke="#263238" stroke-miterlimit="10"/>
<path d="M176.401 100.684V117.149H127.41V180.844H151.018" stroke="#263238" stroke-miterlimit="10"/>
<path d="M104.195 125.734V96.6289H176.403V99.2759" stroke="#263238" stroke-miterlimit="10"/>
<path d="M104.195 265.345V129.395" stroke="#263238" stroke-miterlimit="10"/>
<path d="M127.412 220.873V279.62H104.195V269.286" stroke="#263238" stroke-miterlimit="10"/>
<path d="M127.41 211.021V216.651" stroke="#263238" stroke-miterlimit="10"/>
<path d="M154.957 180.844H165.845V201.362H127.41V208.488" stroke="#263238" stroke-miterlimit="10"/>
<path d="M286.869 282.899H256.825L251.683 248.509H215.142L210 282.899H182.662L212.977 93.3496H256.555L286.869 282.899ZM218.932 222.784H247.622L233.277 126.926L218.932 222.784Z" fill="#92E3A9" stroke="#263238" stroke-miterlimit="10"/>
<path d="M189.43 261.339L205.091 163.416M257.188 263.164L254.507 245.231H212.317L207.174 279.621H186.506L188.831 265.082M279.68 258.712L283.024 279.621H259.648L257.606 265.958M262.419 150.789L279.118 255.199M205.851 158.663L215.772 96.6309H253.758L261.477 144.894M248.372 205.151L236.564 124.328H230.079L215.125 226.066H251.427L249.074 209.957" stroke="#263238" stroke-miterlimit="10"/>
<path d="M297.969 138.842C297.969 108.514 313.938 91.1836 343.17 91.1836C372.403 91.1836 388.372 108.514 388.372 138.842V237.408C388.372 247.969 386.478 256.905 382.688 263.945C384.041 267.466 386.206 268.006 391.079 268.006H393.785V294.544H389.725C376.462 294.544 368.072 289.67 364.012 281.546C358.058 283.712 351.021 285.066 343.17 285.066C313.938 285.066 297.969 267.736 297.969 237.408V138.842ZM327.742 239.303C327.742 252.842 333.697 257.987 343.17 257.987C352.644 257.987 358.598 252.842 358.598 239.303V136.946C358.598 123.407 352.644 118.262 343.17 118.262C333.697 118.262 327.742 123.407 327.742 136.946V239.303Z" fill="#92E3A9" stroke="#263238" stroke-miterlimit="10"/>
<path d="M374.609 288.018C371.223 286.161 368.661 283.511 366.946 280.078L365.639 277.464L362.893 278.462C356.833 280.667 350.198 281.785 343.172 281.785C329.62 281.785 319.131 277.941 311.996 270.36C310.933 269.23 309.947 268.023 309.041 266.738M382.907 254.665C382.096 257.474 381.06 260.053 379.803 262.39L379.089 263.716L379.629 265.122C381.728 270.588 385.939 271.24 390.507 271.284V291.263H389.726C385.416 291.263 381.639 290.726 378.409 289.656M385.094 149.378V237.407C385.094 242.327 384.667 246.853 383.82 250.957M301.531 132.157C302.51 121.055 306.018 112.238 311.995 105.888C319.13 98.3064 329.619 94.4629 343.17 94.4629C356.722 94.4629 367.211 98.3064 374.346 105.888C381.477 113.464 385.094 124.551 385.094 138.841V145.155M306.343 262.239C302.957 255.543 301.248 247.232 301.248 237.407V138.841C301.248 137.927 301.262 137.027 301.293 136.14M324.464 237.76V239.302C324.464 257.457 334.637 261.267 343.17 261.267C351.705 261.267 361.877 257.456 361.877 239.302V148.252M324.464 165.14V234.101M361.878 143.748V136.945C361.878 118.792 351.705 114.981 343.171 114.981C334.637 114.981 324.465 118.792 324.465 136.945V160.073" stroke="#263238" stroke-miterlimit="10"/>
<path d="M349.838 147.615C349.838 147.615 354.869 148.622 357.887 151.066C360.906 153.511 362.918 159.407 361.481 163.145C360.043 166.884 359.656 166.644 361.381 168.801C363.106 170.958 361.668 174.696 361.668 174.696L350.6 171.245C350.6 171.245 350.7 167.171 351.275 163.288C351.85 159.406 351.562 152.216 349.838 150.202V147.615Z" fill="#263238" stroke="#263238" stroke-miterlimit="10" stroke-linecap="round" stroke-linejoin="round"/>
<path d="M334.216 240.125L336.084 250.191C336.084 250.191 335.653 256.518 337.235 262.413C338.816 268.309 339.966 281.538 339.966 281.538C339.966 281.538 337.522 283.552 334.935 285.277C332.348 287.002 330.767 288.584 334.36 288.584C337.953 288.584 339.822 287.578 341.978 286.715C344.134 285.852 345.859 285.42 345.859 284.271C345.859 283.12 344.709 278.375 344.709 278.375C344.709 278.375 345.141 261.551 345.141 256.086C345.141 250.622 344.135 246.739 344.135 246.739V241.275L334.216 240.125Z" fill="white" stroke="#263238" stroke-miterlimit="10" stroke-linecap="round" stroke-linejoin="round"/>
<path d="M341.977 286.715C344.133 285.852 345.859 285.421 345.859 284.271C345.859 283.935 345.759 283.289 345.621 282.547C344.602 283.051 343.442 283.652 342.697 284.127C341.116 285.133 338.96 286.14 337.666 286.14C336.8 286.14 335.615 285.626 334.924 285.285C332.343 287.008 330.772 288.585 334.36 288.585C337.953 288.585 339.821 287.578 341.977 286.715Z" fill="#263238" stroke="#263238" stroke-miterlimit="10" stroke-linecap="round" stroke-linejoin="round"/>
<path d="M342.553 243.288L342.984 250.047C342.984 250.047 342.122 258.244 342.984 263.852C343.846 269.46 343.846 280.101 343.846 281.827C343.846 283.552 342.553 285.422 340.253 287.435C340.253 287.435 338.384 289.592 339.247 290.886C340.109 292.181 346.29 289.736 346.434 288.298C346.577 286.86 348.015 283.697 348.015 282.69C348.015 281.683 348.015 279.095 348.015 278.089C348.015 277.082 352.039 263.565 351.608 258.676C351.177 253.787 351.177 246.597 351.177 246.597L351.32 241.564C351.321 241.563 344.996 243.576 342.553 243.288Z" fill="white" stroke="#263238" stroke-miterlimit="10" stroke-linecap="round" stroke-linejoin="round"/>
<path d="M344.565 288.154C342.457 289.147 341.314 287.253 341.039 286.713C340.791 286.952 340.53 287.192 340.253 287.435C340.253 287.435 338.384 289.592 339.247 290.886C340.109 292.181 346.29 289.736 346.434 288.298C346.577 286.86 348.015 283.696 348.015 282.69C348.015 282.687 348.015 282.684 348.015 282.682C347.347 284.601 346.135 287.415 344.565 288.154Z" fill="#263238" stroke="#263238" stroke-miterlimit="10" stroke-linecap="round" stroke-linejoin="round"/>
<path d="M333.352 198.855C333.352 198.855 327.89 210.934 327.459 217.405C327.028 223.876 330.909 240.988 330.909 240.988C330.909 240.988 337.952 244.295 343.845 244.007C349.738 243.72 354.05 241.994 354.05 241.994C354.05 241.994 359.224 226.895 357.643 217.98C356.062 209.064 352.181 199.861 352.181 199.861L333.783 197.561L333.352 198.855Z" fill="#263238" stroke="#263238" stroke-miterlimit="10" stroke-linecap="round" stroke-linejoin="round"/>
<path d="M341.833 168.37C341.833 168.37 344.277 166.932 346.145 166.932C348.014 166.932 349.019 166.932 349.019 166.932C349.019 166.932 350.313 172.108 350.313 172.683C350.313 173.259 344.851 199.717 344.851 199.717L334.502 198.711C334.502 198.711 334.502 182.03 335.939 176.997C337.377 171.964 341.833 168.37 341.833 168.37Z" fill="white" stroke="#263238" stroke-miterlimit="10" stroke-linecap="round" stroke-linejoin="round"/>
<path d="M333.74 147.76C333.74 147.76 332.734 153.799 334.027 157.97C335.321 162.14 338.914 166.597 340.351 166.741C341.789 166.885 343.37 165.879 343.37 165.879L342.838 167.795L341.688 174.554L346.863 174.986C346.863 174.986 349.019 167.364 349.019 166.933C349.019 166.502 348.975 165.448 348.975 165.448L348.4 159.696C348.4 159.696 350.125 156.82 350.556 155.67C350.986 154.519 349.981 152.65 349.981 152.65C349.981 152.65 351.015 146.435 347.537 143.304C343.225 139.421 335.751 142.872 333.883 144.742C332.015 146.61 333.74 147.76 333.74 147.76Z" fill="white" stroke="#263238" stroke-miterlimit="10" stroke-linecap="round" stroke-linejoin="round"/>
<path d="M343.369 165.879L345.341 165.297L342.512 170.292L343.369 165.879Z" fill="#263238" stroke="#263238" stroke-miterlimit="10" stroke-linecap="round" stroke-linejoin="round"/>
<path d="M347.538 143.302C342.938 139.419 335.751 142.87 333.883 144.74C332.014 146.609 333.74 147.759 333.74 147.759C333.74 147.759 334.745 146.752 337.333 147.759C339.92 148.765 341.932 153.943 343.801 154.518C345.67 155.093 347.394 155.381 347.394 155.381C347.394 155.381 347.394 153.224 348.4 152.936C349.406 152.648 349.981 152.648 349.981 152.648C349.981 152.648 351.115 146.321 347.538 143.302Z" fill="#263238" stroke="#263238" stroke-miterlimit="10" stroke-linecap="round" stroke-linejoin="round"/>
<path d="M337.045 154.23L338.195 155.956L337.62 160.558L339.489 160.845" stroke="#263238" stroke-miterlimit="10" stroke-linecap="round" stroke-linejoin="round"/>
<path d="M338.914 162.426C338.914 162.426 340.208 162.713 341.07 161.707" stroke="#263238" stroke-miterlimit="10" stroke-linecap="round" stroke-linejoin="round"/>
<path d="M334.889 155.094L335.32 157.107C335.32 157.107 336.757 157.251 337.476 156.82" stroke="#263238" stroke-miterlimit="10" stroke-linecap="round" stroke-linejoin="round"/>
<path d="M340.783 154.23L341.07 156.387C341.07 156.387 343.083 156.963 343.801 156.531" stroke="#263238" stroke-miterlimit="10" stroke-linecap="round" stroke-linejoin="round"/>
<path d="M334.314 153.655C334.314 153.655 335.465 153.08 336.614 153.368" stroke="#263238" stroke-miterlimit="10" stroke-linecap="round" stroke-linejoin="round"/>
<path d="M339.633 152.792C339.633 152.792 340.208 152.217 341.789 152.505" stroke="#263238" stroke-miterlimit="10" stroke-linecap="round" stroke-linejoin="round"/>
<path d="M342.84 167.795C342.84 167.795 336.515 170.814 335.078 171.102C333.641 171.39 331.053 172.54 331.197 173.547C331.34 174.554 330.622 190.084 331.053 191.091C331.485 192.097 331.053 200.15 330.766 201.156C330.479 202.163 325.879 215.249 325.879 215.249C325.879 215.249 326.885 216.399 329.041 215.536C331.197 214.673 334.216 205.47 334.791 201.875C335.366 198.281 339.246 182.463 340.253 178.868C341.259 175.272 342.84 167.795 342.84 167.795Z" fill="white" stroke="#263238" stroke-miterlimit="10" stroke-linecap="round" stroke-linejoin="round"/>
<path d="M349.02 166.932C349.02 166.932 346.146 178.004 344.708 182.462C343.271 186.919 341.834 189.508 342.121 192.959C342.408 196.41 341.977 213.81 344.565 216.254C347.152 218.699 350.458 220.281 353.764 220.281C357.07 220.281 360.52 219.274 360.52 219.274C360.52 219.274 356.495 197.273 356.495 196.698C356.495 196.122 362.819 175.847 362.676 174.121C362.532 172.396 349.02 166.932 349.02 166.932Z" fill="white" stroke="#263238" stroke-miterlimit="10" stroke-linecap="round" stroke-linejoin="round"/>
<path d="M337.234 180.593C337.234 183.721 337.567 186.681 337.819 188.474C338.835 184.301 339.815 180.43 340.253 178.868C341.258 175.273 342.84 167.795 342.84 167.795C342.84 167.795 341.258 168.551 339.496 169.342C338.715 171.778 337.234 176.886 337.234 180.593Z" fill="#92E3A9" stroke="#263238" stroke-miterlimit="10" stroke-linecap="round" stroke-linejoin="round"/>
<path d="M349.021 166.932C349.021 166.932 346.146 178.004 344.709 182.462C343.939 184.85 343.171 186.701 342.666 188.436C343.751 187.602 345.954 185.698 348.014 182.605C350.373 179.065 351.86 171.075 352.318 168.321C350.42 167.498 349.021 166.932 349.021 166.932Z" fill="#92E3A9" stroke="#263238" stroke-miterlimit="10" stroke-linecap="round" stroke-linejoin="round"/>
<path d="M323.291 197.704L321.853 201.875L320.416 196.554C320.416 196.554 322.284 196.122 323.291 197.704Z" fill="#263238" stroke="#263238" stroke-miterlimit="10" stroke-linecap="round" stroke-linejoin="round"/>
<path d="M313.068 181.432L321.261 195.811L331.897 196.386L324.854 181.432H313.068Z" fill="#263238" stroke="#263238" stroke-miterlimit="10" stroke-linecap="round" stroke-linejoin="round"/>
<path d="M320.417 196.555C320.417 196.555 316.392 190.66 315.817 189.222C315.242 187.784 314.955 186.346 314.955 185.483C314.955 184.621 315.242 184.333 315.674 185.34C316.105 186.346 316.967 188.503 316.967 188.503L317.686 184.189C317.686 184.189 318.118 183.47 318.548 184.333C318.98 185.195 318.548 188.503 318.548 188.503L319.699 183.47C319.699 183.47 320.274 182.464 320.704 183.183C321.136 183.902 320.417 187.928 320.417 187.928L321.711 184.909C321.711 184.909 322.43 184.909 322.573 185.628C322.717 186.347 321.567 190.229 321.567 190.229L323.435 188.359C323.435 188.359 324.154 188.072 323.867 188.935C323.58 189.797 321.998 191.954 321.998 191.954C321.998 191.954 322.86 194.111 322.86 194.543C322.86 194.974 322.285 196.124 322.285 196.124L323.291 197.706L322.716 198.857L320.417 196.555Z" fill="white" stroke="#263238" stroke-miterlimit="10" stroke-linecap="round" stroke-linejoin="round"/>
<path d="M330.765 201.157C330.9 200.681 331.068 198.631 331.163 196.494L323.147 197.13L321.854 201.876L330.409 202.237C330.596 201.686 330.725 201.299 330.765 201.157Z" fill="white" stroke="#263238" stroke-miterlimit="10" stroke-linecap="round" stroke-linejoin="round"/>
<path d="M342.984 192.384C342.984 192.384 338.338 188.724 337.399 187.919C336.133 186.833 333.929 187.206 333.929 187.206C333.929 187.206 330.479 189.507 329.904 190.082C329.329 190.658 329.329 191.233 329.904 191.089C330.479 190.944 332.922 189.363 332.922 189.363L333.066 191.52L336.084 192.383L336.946 191.52C336.946 191.52 337.665 192.096 338.384 192.239C339.102 192.383 339.821 192.096 339.821 192.096L342.552 194.541L342.984 192.384Z" fill="white" stroke="#263238" stroke-miterlimit="10" stroke-linecap="round" stroke-linejoin="round"/>
<path d="M357.79 171.533C357.79 171.533 363.395 172.684 364.114 174.553C364.833 176.422 364.258 205.613 363.683 206.476C363.108 207.339 340.973 196.123 340.973 196.123L342.841 191.809L355.634 195.26L354.772 181.168" fill="white"/>
<path d="M357.79 171.533C357.79 171.533 363.395 172.684 364.114 174.553C364.833 176.422 364.258 205.613 363.683 206.476C363.108 207.339 340.973 196.123 340.973 196.123L342.841 191.809L355.634 195.26L354.772 181.168" stroke="#263238" stroke-miterlimit="10" stroke-linecap="round" stroke-linejoin="round"/>
<path d="M333.963 191.658C333.963 191.658 334.144 188.221 334.265 187.799" stroke="#263238" stroke-miterlimit="10" stroke-linecap="round" stroke-linejoin="round"/>
<path d="M335.107 191.84C335.107 191.84 335.409 188.644 335.529 188.102" stroke="#263238" stroke-miterlimit="10" stroke-linecap="round" stroke-linejoin="round"/>
<path d="M336.947 191.521L336.917 190.693L336.193 190.572" stroke="#263238" stroke-miterlimit="10" stroke-linecap="round" stroke-linejoin="round"/>
<path d="M213.949 284.173C213.949 284.173 213.087 286.953 213.757 288.295C214.428 289.638 215.866 289.925 217.878 289.733C219.89 289.542 227.652 287.816 228.706 287.624C229.76 287.433 231.005 286.953 231.005 286.953C231.005 286.953 226.693 285.515 223.244 284.94C219.794 284.365 214.62 283.406 214.62 283.406L213.949 284.173Z" fill="white" stroke="#263238" stroke-miterlimit="10" stroke-linecap="round" stroke-linejoin="round"/>
<path d="M214.62 283.406L213.949 284.173C213.949 284.173 213.087 286.953 213.757 288.295C214.261 289.303 215.197 289.716 216.483 289.779C215.983 289.308 215.42 288.585 215.099 287.529C214.479 285.491 215.657 283.866 215.84 283.631C215.093 283.494 214.62 283.406 214.62 283.406Z" fill="white" stroke="#263238" stroke-miterlimit="10" stroke-linecap="round" stroke-linejoin="round"/>
<path d="M220.944 262.029L217.495 272.766L206.283 271.903C206.283 271.903 213.087 278.326 218.07 281.298C223.052 284.269 232.06 287.049 237.714 285.707C243.367 284.365 257.07 271.711 257.07 271.711L245.092 271.902L242.601 261.74L220.944 262.029Z" fill="#263238" stroke="#263238" stroke-miterlimit="10" stroke-linecap="round" stroke-linejoin="round"/>
<path d="M231.005 209.639C231.005 209.639 223.962 210.933 223.1 213.09C222.237 215.247 222.956 220.28 223.531 223.587C224.106 226.895 225.543 227.326 223.1 229.771C220.656 232.216 222.956 234.803 225.256 236.098C227.555 237.392 230.718 235.666 231.436 234.228" fill="#263238"/>
<path d="M231.005 209.639C231.005 209.639 223.962 210.933 223.1 213.09C222.237 215.247 222.956 220.28 223.531 223.587C224.106 226.895 225.543 227.326 223.1 229.771C220.656 232.216 222.956 234.803 225.256 236.098C227.555 237.392 230.718 235.666 231.436 234.228" stroke="#263238" stroke-miterlimit="10" stroke-linecap="round" stroke-linejoin="round"/>
<path d="M212.606 250.334C212.606 250.334 208.869 260.688 209.252 261.55C209.636 262.413 219.122 272.575 219.409 272.575C219.696 272.575 221.23 273.533 221.709 273.533C222.188 273.533 222.284 273.533 222.571 273.438C222.858 273.342 224.2 273.246 224.2 273.246L225.254 274.205L228.704 273.821C228.704 273.821 226.5 270.849 225.541 270.465C224.583 270.082 220.463 269.603 220.463 269.603L215.192 259.824L217.875 253.689L212.606 250.334Z" fill="white" stroke="#263238" stroke-miterlimit="10" stroke-linecap="round" stroke-linejoin="round"/>
<path d="M225.255 236.624C225.255 236.624 217.685 237.199 216.918 237.391C216.152 237.582 215.768 237.87 215.481 238.349C215.194 238.829 210.211 249.757 210.211 249.757L218.356 254.646L219.41 251.962L220.943 262.027H242.695L243.27 252.25L245.378 255.221L254.194 248.894C254.194 248.894 245.665 236.911 243.27 236.624C240.875 236.336 225.255 236.624 225.255 236.624Z" fill="white" stroke="#263238" stroke-miterlimit="10" stroke-linecap="round" stroke-linejoin="round"/>
<path d="M228.322 231.736C228.322 231.736 227.843 234.133 227.555 234.996C227.268 235.859 225.256 236.625 225.256 236.625C225.256 236.625 226.98 241.323 231.58 242.377C234.948 243.149 237.425 239.981 237.905 239.31C238.384 238.639 238.863 236.242 238.863 236.242C238.863 236.242 236.754 234.421 236.659 234.038C236.563 233.654 236.368 232.078 236.368 232.078C236.368 232.078 231.197 233.079 228.322 231.736Z" fill="white" stroke="#263238" stroke-miterlimit="10" stroke-linecap="round" stroke-linejoin="round"/>
<path d="M230.431 214.816L224.825 222.437C224.825 222.437 222.525 219.273 222.525 222.294C222.525 225.314 223.819 226.032 224.251 226.177C224.682 226.32 225.256 226.465 225.256 226.465C225.256 226.465 226.119 229.772 228.419 232.073C230.719 234.373 233.018 234.805 235.031 233.654C237.043 232.504 238.48 228.909 238.48 228.909C238.48 228.909 239.918 224.163 239.63 221.863C239.342 219.561 232.73 213.953 230.431 214.816Z" fill="white" stroke="#263238" stroke-miterlimit="10" stroke-linecap="round" stroke-linejoin="round"/>
<path d="M229.891 224.753C229.962 225.214 229.762 225.626 229.446 225.675C229.13 225.723 228.817 225.388 228.746 224.927C228.676 224.466 228.876 224.053 229.192 224.005C229.508 223.956 229.821 224.291 229.891 224.753Z" fill="#263238"/>
<path d="M234.219 224.753C234.149 225.214 234.348 225.626 234.664 225.675C234.98 225.723 235.294 225.388 235.364 224.927C235.434 224.466 235.235 224.053 234.919 224.005C234.603 223.956 234.289 224.291 234.219 224.753Z" fill="#263238"/>
<path d="M231.266 229.014C231.266 229.014 231.451 229.757 232.286 229.571C233.121 229.386 233.214 228.736 233.214 228.736" stroke="#263238" stroke-miterlimit="10" stroke-linecap="round" stroke-linejoin="round"/>
<path d="M230.525 230.406C230.525 230.406 232.566 231.335 233.864 230.221" stroke="#263238" stroke-miterlimit="10" stroke-linecap="round" stroke-linejoin="round"/>
<path d="M227.648 223.355C227.648 223.355 228.02 222.148 230.338 222.612" stroke="#263238" stroke-miterlimit="10" stroke-linecap="round" stroke-linejoin="round"/>
<path d="M233.215 222.704C233.215 222.704 234.143 222.24 234.977 222.704" stroke="#263238" stroke-miterlimit="10" stroke-linecap="round" stroke-linejoin="round"/>
<path d="M230.286 214.24C230.286 214.24 237.472 227.038 237.904 228.908C238.335 230.777 235.604 233.078 237.041 234.803C238.479 236.528 240.635 238.686 240.635 238.686C240.635 238.686 237.329 239.98 238.479 240.987C239.629 241.993 245.522 240.411 247.246 238.686C248.971 236.961 246.528 234.372 245.953 232.79C245.378 231.209 247.39 227.614 246.815 222.868C246.24 218.123 240.059 210.502 236.466 209.208C232.872 207.914 229.998 209.495 228.848 210.933" fill="#263238"/>
<path d="M230.286 214.24C230.286 214.24 237.472 227.038 237.904 228.908C238.335 230.777 235.604 233.078 237.041 234.803C238.479 236.528 240.635 238.686 240.635 238.686C240.635 238.686 237.329 239.98 238.479 240.987C239.629 241.993 245.522 240.411 247.246 238.686C248.971 236.961 246.528 234.372 245.953 232.79C245.378 231.209 247.39 227.614 246.815 222.868C246.24 218.123 240.059 210.502 236.466 209.208C232.872 207.914 229.998 209.495 228.848 210.933" stroke="#263238" stroke-miterlimit="10" stroke-linecap="round" stroke-linejoin="round"/>
<path d="M229.318 233.19C229.318 233.19 228.298 234.675 229.04 235.139C229.782 235.603 230.617 236.16 230.617 236.16C230.617 236.16 230.339 238.758 230.895 239.593C231.452 240.428 233.864 241.542 233.864 241.542C233.864 241.542 238.223 247.203 241.284 250.358C244.345 253.514 250.374 259.73 251.858 259.73C253.342 259.73 255.383 256.575 255.197 254.07C255.012 251.565 247.684 248.317 246.293 247.203C244.901 246.089 236.368 240.614 236.368 240.614C236.368 240.614 235.997 236.253 236.09 235.325C236.183 234.396 235.997 232.726 236.368 232.077C236.739 231.427 235.625 231.799 235.069 232.726C234.513 233.654 234.513 234.211 234.513 234.211L229.318 233.19Z" fill="white" stroke="#263238" stroke-miterlimit="10" stroke-linecap="round" stroke-linejoin="round"/>
<path d="M246.434 259.92H217.016V277.655H246.434V259.92Z" fill="#B0B0B0" stroke="#263238" stroke-miterlimit="10" stroke-linecap="round" stroke-linejoin="round"/>
<path d="M231.963 282.928C231.963 282.928 246.145 277.08 249.978 274.108C253.811 271.136 257.74 269.698 260.039 270.37C262.339 271.041 263.68 275.45 262.627 278.326C261.572 281.202 253.332 282.544 249.786 283.791C246.241 285.037 235.412 286.858 235.412 286.858L230.43 284.078L231.963 282.928Z" fill="#263238" stroke="#263238" stroke-miterlimit="10" stroke-linecap="round" stroke-linejoin="round"/>
<path d="M232.921 283.119C232.921 283.119 236.658 283.982 240.012 284.941C243.366 285.899 243.941 285.996 243.941 285.996C243.941 285.996 251.99 284.366 253.236 284.078C254.481 283.791 257.068 284.845 257.356 286.667C257.643 288.488 256.972 289.638 256.014 290.118C255.056 290.598 253.427 290.598 252.278 290.598C251.128 290.598 244.707 290.022 243.749 289.926C242.791 289.831 232.059 287.817 232.059 287.817L232.921 283.119Z" fill="white" stroke="#263238" stroke-miterlimit="10" stroke-linecap="round" stroke-linejoin="round"/>
<path d="M243.686 289.918C243.707 289.921 243.733 289.925 243.749 289.926C244.707 290.022 251.128 290.597 252.277 290.597C253.427 290.597 255.056 290.597 256.014 290.118C256.972 289.638 257.643 288.488 257.356 286.667C257.069 284.845 254.481 283.791 253.235 284.078C251.99 284.365 243.941 285.996 243.941 285.996C243.941 285.996 244.735 288.456 243.686 289.918Z" fill="white" stroke="#263238" stroke-miterlimit="10" stroke-linecap="round" stroke-linejoin="round"/>
<path d="M231.963 282.929C231.963 282.929 225.735 281.011 219.41 276.985C213.086 272.959 204.749 269.795 203.6 269.7C202.45 269.604 199.479 272.384 200.246 275.643C201.012 278.903 207.432 282.545 208.678 283.024C209.924 283.504 227.076 288.105 230.526 288.105L231.963 282.929Z" fill="#263238" stroke="#263238" stroke-miterlimit="10" stroke-linecap="round" stroke-linejoin="round"/>
<path d="M229.664 281.873C229.664 281.873 228.131 287.049 228.035 287.433C227.939 287.817 227.748 288.295 228.514 288.583C229.281 288.871 230.909 289.063 231.485 289.063C232.06 289.063 232.443 287.721 232.635 287.241C232.826 286.762 233.497 283.982 233.497 283.119C233.497 282.256 231.868 281.968 231.293 281.777C230.717 281.585 229.664 281.873 229.664 281.873Z" fill="#D9D9D9" stroke="#263238" stroke-miterlimit="10" stroke-linecap="round" stroke-linejoin="round"/>
<path d="M167.125 87.767C167.125 87.767 167.458 88.1003 168.902 88.2118C170.346 88.3227 171.902 88.7674 173.568 88.3227C175.234 87.8779 176.234 87.6562 175.678 88.4335C175.123 89.2115 171.235 91.3226 170.68 91.5449C170.125 91.7673 168.348 91.8782 167.903 92.323C167.458 92.7677 167.125 93.9899 166.014 94.1007C164.904 94.2116 162.793 90.2113 162.793 90.2113L166.236 87.3223L167.125 87.767Z" fill="#B0B0B0" stroke="#263238" stroke-miterlimit="10" stroke-linecap="round" stroke-linejoin="round"/>
<path d="M132.58 82.5455C132.58 82.5455 141.799 74.6558 147.576 71.2111C153.352 67.7665 154.573 66.7661 155.351 66.9885C156.129 67.2108 168.458 87.2129 168.458 87.2129L162.016 92.436L153.796 76.4342C153.796 76.4342 142.133 87.6577 139.135 89.6579C136.135 91.658 130.138 85.8799 129.804 84.9904C129.47 84.1009 132.58 82.5455 132.58 82.5455Z" fill="#263238" stroke="#263238" stroke-miterlimit="10" stroke-linecap="round" stroke-linejoin="round"/>
<path d="M148.971 94.6589L164.775 94.7317L160.997 91.3559L146.885 90.9531L148.971 94.6589Z" fill="white" stroke="#263238" stroke-miterlimit="10" stroke-linecap="round" stroke-linejoin="round"/>
<path d="M164.774 94.7314L174.182 82.4511L168.62 80.7363L160.996 91.3557L164.774 94.7314Z" fill="white" stroke="#263238" stroke-miterlimit="10" stroke-linecap="round" stroke-linejoin="round"/>
<path d="M139.467 64.9883L144.576 77.3231L152.574 88.2133C152.574 88.2133 155.462 88.3242 156.017 88.4357C156.573 88.5466 158.128 88.6581 158.794 89.4361C159.46 90.2141 160.016 92.2142 160.016 92.2142L159.349 92.3251L158.016 90.8806L155.573 90.325C155.573 90.325 152.685 90.1026 152.018 89.7693C151.352 89.4361 148.13 86.9912 148.13 86.9912L137.467 73.656L135.801 68.9886L139.467 64.9883Z" fill="#B0B0B0" stroke="#263238" stroke-miterlimit="10" stroke-linecap="round" stroke-linejoin="round"/>
<path d="M152.015 86.802L149.575 88.768L137.428 76.1321L136.174 69.5413L140.356 65.543L144.643 75.8179L152.015 86.802Z" fill="#92E3A9" stroke="#263238" stroke-miterlimit="10" stroke-linecap="round" stroke-linejoin="round"/>
<path d="M134.47 126.773C134.47 126.773 130.138 133.441 130.026 134.33C129.916 135.219 130.36 135.997 131.248 136.33C132.137 136.663 133.914 137.33 135.024 137.886C136.135 138.442 138.579 139.775 140.356 139.775C142.133 139.775 142.578 139.22 142.022 138.664C141.467 138.108 138.134 135.219 137.801 134.552C137.468 133.886 136.58 131.441 136.58 131.108C136.58 130.774 137.58 127.663 137.58 127.663L134.47 126.773Z" fill="#B0B0B0" stroke="#263238" stroke-miterlimit="10" stroke-linecap="round" stroke-linejoin="round"/>
<path d="M118.252 80.6562C118.252 80.6562 115.22 84.3253 115.808 89.324C116.474 94.9912 121.14 96.4357 125.36 97.6585C129.581 98.8806 145.576 103.103 145.576 103.103C145.576 103.103 141.022 107.882 139.356 111.882C137.69 115.882 133.247 127.44 133.247 127.44L141.355 131.218L151.796 109.882C151.796 109.882 154.351 105.326 154.795 102.992C155.24 100.659 154.573 99.2145 154.351 98.8806C154.129 98.5473 140.355 89.2125 137.801 87.5462C135.246 85.8793 133.135 85.1013 133.135 85.1013L118.252 80.6562Z" fill="#263238" stroke="#263238" stroke-miterlimit="10" stroke-linecap="round" stroke-linejoin="round"/>
<path d="M139.023 58.7644C139.023 58.7644 137.246 52.7639 134.469 51.9859C131.692 51.2079 128.471 53.9861 125.916 56.9866C123.361 59.9871 123.806 67.0988 123.806 69.099C123.806 71.0991 118.141 79.8777 117.586 81.767C117.586 81.767 119.918 83.4339 124.473 84.4343C129.027 85.434 133.692 85.2123 133.692 85.2123C133.692 85.2123 134.581 78.878 134.803 76.8778C135.025 74.8777 136.58 71.9887 137.802 71.2107C139.025 70.4326 140.246 68.2101 140.357 65.5435C140.467 62.8755 139.023 58.7644 139.023 58.7644Z" fill="#92E3A9" stroke="#263238" stroke-miterlimit="10" stroke-linecap="round" stroke-linejoin="round"/>
<path d="M148.13 88.1016L150.797 89.3237C150.797 89.3237 156.35 89.6569 156.794 89.6569C157.239 89.6569 158.238 92.8799 158.238 92.8799C158.238 92.8799 157.905 93.2131 157.461 92.769C157.016 92.3242 156.572 91.7686 156.572 91.7686C156.572 91.7686 153.795 91.991 152.684 91.991C151.574 91.991 149.574 90.6573 149.574 90.6573L146.908 89.5461L148.13 88.1016Z" fill="#B0B0B0" stroke="#263238" stroke-miterlimit="10" stroke-linecap="round" stroke-linejoin="round"/>
<path d="M128.248 59.6533C128.248 59.6533 131.691 71.544 132.913 74.5438C134.135 77.5444 137.246 81.2114 138.357 82.6559C139.467 84.1005 147.798 90.5457 147.798 90.5457L149.575 88.7679L140.722 75.5042C140.722 75.5042 136.246 57.764 136.357 57.2084C136.468 56.6528 135.024 55.0967 134.025 54.875" fill="#92E3A9"/>
<path d="M128.248 59.6533C128.248 59.6533 131.691 71.544 132.913 74.5438C134.135 77.5444 137.246 81.2114 138.357 82.6559C139.467 84.1005 147.798 90.5457 147.798 90.5457L149.575 88.7679L140.722 75.5042C140.722 75.5042 136.246 57.764 136.357 57.2084C136.468 56.6528 135.024 55.0967 134.025 54.875" stroke="#263238" stroke-miterlimit="10" stroke-linecap="round" stroke-linejoin="round"/>
<path d="M154.796 40.2057C154.796 40.2057 155.129 44.206 154.574 45.5396C154.018 46.8733 151.464 47.6506 151.464 48.7619C151.464 49.8732 151.574 50.9844 151.019 51.4286C150.464 51.8733 149.464 51.4286 149.464 51.4286C149.464 51.4286 149.241 52.3174 148.353 52.9846C147.464 53.6511 147.621 53.6321 147.621 53.6321C147.621 53.6321 146.354 54.8739 144.91 54.8739C143.466 54.8739 142.355 52.8737 142.022 52.6513C141.689 52.429 140.782 53.0574 139.911 53.6517C138.761 54.4363 137.912 58.6524 137.912 58.6524C137.912 58.6524 134.69 52.5405 134.357 52.4296C134.024 52.3187 131.988 52.1777 131.988 52.1777C131.988 52.1777 135.246 50.5403 135.69 49.2067C136.134 47.873 135.69 45.762 135.69 45.3173C135.69 44.8725 135.912 40.3166 137.801 37.9832C139.689 35.6498 147.686 34.9826 150.685 34.7602C153.685 34.5385 154.796 40.2057 154.796 40.2057Z" fill="#B0B0B0" stroke="#263238" stroke-miterlimit="10" stroke-linecap="round" stroke-linejoin="round"/>
<path d="M154.795 40.2066C154.795 40.2066 153.684 39.5401 153.462 41.4288C153.24 43.3181 153.573 43.4289 152.24 43.5398C150.907 43.6506 150.352 43.9845 150.352 44.7619C150.352 45.5399 149.352 45.8732 148.575 45.8732C147.797 45.8732 147.131 44.7619 146.687 45.8732C146.242 46.9844 144.687 47.5401 143.687 47.5401C142.687 47.5401 142.577 48.2066 140.8 48.5405C139.023 48.8737 138.689 46.9844 138.689 46.9844C138.689 46.9844 136.467 47.4292 135.801 47.4292C135.135 47.4292 135.246 44.651 135.246 44.651C135.246 44.651 133.357 44.9843 132.691 44.8734C132.025 44.7626 131.469 43.2065 131.469 42.6509C131.469 42.0953 130.248 41.2064 130.248 40.4284C130.248 39.6504 130.248 39.0947 130.248 39.0947C130.248 39.0947 129.915 37.2054 130.137 36.7613C130.359 36.3166 131.803 35.4277 131.803 34.8721C131.803 34.3164 131.359 31.7606 132.136 30.7602C132.914 29.7605 133.692 28.7601 134.469 28.7601C135.246 28.7601 135.469 27.3156 136.69 27.0932C137.912 26.8708 138.356 26.8708 139.245 26.8708C140.133 26.8708 140.689 25.7596 141.689 25.5372C142.689 25.3148 145.132 25.7596 145.576 25.9819C146.021 26.2043 146.354 26.2043 147.243 25.8711C148.131 25.5378 149.908 25.9819 150.575 26.6491C151.241 27.3156 152.463 27.7604 153.019 27.7604C153.574 27.7604 154.13 27.4271 154.907 28.8716C155.685 30.3161 157.017 30.5385 157.795 31.205C158.573 31.8715 158.684 32.761 158.573 33.5384C158.462 34.3164 159.017 34.9829 159.461 35.8718C159.906 36.7607 159.794 37.6496 159.35 38.2052C158.906 38.7608 159.24 39.8721 159.35 40.3169C159.461 40.7616 158.24 41.6505 157.24 41.9837C156.239 42.3183 155.239 42.8739 154.795 40.2066Z" fill="#263238" stroke="#263238" stroke-miterlimit="10" stroke-linecap="round" stroke-linejoin="round"/>
<path d="M151.152 47.953C150.915 48.3873 150.567 48.6542 150.374 48.5486C150.181 48.4437 150.217 48.0061 150.454 47.5718C150.69 47.1376 151.038 46.8706 151.231 46.9762C151.424 47.0818 151.389 47.5187 151.152 47.953Z" fill="#263238"/>
<path d="M150.604 45.574C150.604 45.574 151.797 44.9771 152.493 46.7679" stroke="#263238" stroke-miterlimit="10" stroke-linecap="round" stroke-linejoin="round"/>
<path d="M64.2297 174.623C64.2297 174.623 66.2322 177.774 66.8073 178.732C67.3823 179.691 67.2866 181.8 67.2866 181.8L69.5862 184.1L66.903 186.209C66.903 186.209 64.0284 184.292 63.4533 184.004C62.8782 183.717 61.9202 183.525 61.6324 183.525C61.3452 183.525 58.662 180.17 58.662 180.17L57.0332 179.115L57.9912 176.431L62.2074 177.677L64.2297 174.623Z" fill="#CFCFCF" stroke="#263238" stroke-miterlimit="10" stroke-linecap="round" stroke-linejoin="round"/>
<path d="M54.4453 175.042L63.9322 184.101L67.3819 181.082L58.9016 173.029L54.4453 175.042Z" fill="#263238" stroke="#263238" stroke-miterlimit="10" stroke-linecap="round" stroke-linejoin="round"/>
<path d="M62.8805 174.254C62.5474 174.261 62.2608 174.499 62.1998 174.827C62.0038 175.876 61.6812 178.037 62.3139 178.218C63.1526 178.457 63.5119 177.978 63.6313 177.379C63.7513 176.78 64.4699 175.102 64.2299 174.623C64.0404 174.244 63.5513 174.24 62.8805 174.254Z" fill="#CFCFCF" stroke="#263238" stroke-miterlimit="10" stroke-linecap="round" stroke-linejoin="round"/>
<path d="M56.4577 176.336C56.4577 176.336 55.1639 178.781 56.1705 179.5C57.1763 180.219 57.1763 178.781 57.4642 177.918C57.7514 177.055 57.7514 175.905 56.4577 176.336Z" fill="#CFCFCF" stroke="#263238" stroke-miterlimit="10" stroke-linecap="round" stroke-linejoin="round"/>
<path d="M58.9014 178.782C58.9014 178.782 57.7513 181.082 58.1828 181.801C58.6142 182.52 59.1886 181.801 59.4765 181.082C59.7637 180.363 59.8955 180.22 59.908 179.644C59.9335 178.386 58.9014 178.782 58.9014 178.782Z" fill="#CFCFCF" stroke="#263238" stroke-miterlimit="10" stroke-linecap="round" stroke-linejoin="round"/>
<path d="M60.0968 179.807C60.0968 179.807 58.9466 182.108 59.3781 182.827C59.8095 183.546 60.384 182.827 60.6718 182.108C60.959 181.389 61.0908 181.245 61.1033 180.67C61.1295 179.411 60.0968 179.807 60.0968 179.807Z" fill="#CFCFCF" stroke="#263238" stroke-miterlimit="10" stroke-linecap="round" stroke-linejoin="round"/>
<path d="M61.4639 180.946C61.4639 180.946 60.3138 183.246 60.7453 183.965C61.1767 184.684 61.7511 183.965 62.039 183.246C62.3262 182.527 62.458 182.384 62.4705 181.808C62.496 180.55 61.4639 180.946 61.4639 180.946Z" fill="#CFCFCF" stroke="#263238" stroke-miterlimit="10" stroke-linecap="round" stroke-linejoin="round"/>
<path d="M69.3939 182.76L65.2734 186.978L76.197 195.894L77.2514 188.512L69.3939 182.76Z" fill="#92E3A9" stroke="#263238" stroke-miterlimit="10" stroke-linecap="round" stroke-linejoin="round"/>
<path d="M74.7102 201.004C74.7102 201.004 72.6414 208.636 72.7706 209.801C72.8997 210.965 72.8997 211.871 72.8997 211.871C72.8997 211.871 67.0809 218.986 64.1066 225.324C61.1323 231.663 60.8739 235.286 61.7788 235.933C62.6837 236.579 74.9685 242.013 76.2616 242.272C77.5547 242.531 77.5547 242.531 77.5547 242.531L88.029 246.153L89.0637 247.318L91.1325 246.671C92.0374 246.153 92.5548 242.661 92.8138 241.237C93.0721 239.814 93.7187 239.167 93.0721 239.038C92.4256 238.909 91.2617 239.038 91.2617 239.038C91.2617 239.038 91.6499 238.262 91.0034 238.262C90.3568 238.262 89.1929 238.262 89.1929 238.262C89.1929 238.262 80.6581 234.769 79.2359 233.993C77.8137 233.217 74.1928 231.276 74.1928 231.276L82.5978 225.196C82.5978 225.196 92.8131 219.245 94.2354 216.787C95.6576 214.329 96.434 209.672 96.434 207.732C96.434 205.791 82.3394 199.193 79.8824 199.193C77.4255 199.193 74.84 199.71 74.7102 201.004Z" fill="#263238" stroke="#263238" stroke-miterlimit="10" stroke-linecap="round" stroke-linejoin="round"/>
<path d="M93.0737 239.037C93.0737 239.037 100.315 239.296 101.349 239.813C102.384 240.331 102.384 242.142 102.384 243.436C102.384 244.729 101.349 247.705 101.608 249.128C101.867 250.551 101.92 252.243 102.126 254.302C102.514 258.183 101.385 258.585 100.704 258.442C98.2466 257.925 97.9883 254.949 96.8244 252.103C95.6605 249.257 95.014 247.705 95.014 247.705L91.1348 246.67C91.1335 246.67 91.9098 240.978 93.0737 239.037Z" fill="white" stroke="#263238" stroke-miterlimit="10" stroke-linecap="round" stroke-linejoin="round"/>
<path d="M101.349 239.813C101.08 239.677 100.385 239.561 99.5098 239.461C99.8514 240.756 100.314 242.974 100.314 245.505C100.314 249.515 101.09 254.173 100.703 257.149C100.64 257.628 100.574 258.032 100.508 258.387C100.573 258.405 100.634 258.428 100.703 258.442C101.384 258.586 102.513 258.184 102.125 254.303C101.919 252.243 101.866 250.551 101.607 249.128C101.348 247.706 102.383 244.73 102.383 243.436C102.383 242.141 102.383 240.329 101.349 239.813Z" fill="white" stroke="#263238" stroke-miterlimit="10" stroke-linecap="round" stroke-linejoin="round"/>
<path d="M76.2937 211.854C76.2937 211.854 77.8747 221.632 77.3002 227.384C76.7252 233.136 77.1566 245.934 77.7317 249.529C78.3068 253.124 77.8753 263.908 77.8753 265.778C77.8753 267.647 77.7317 268.51 77.7317 268.51C77.7317 268.51 76.1508 268.366 76.2944 269.229C76.438 270.092 76.438 270.954 76.438 270.954C76.438 270.954 77.7317 272.105 79.8877 272.536C82.0437 272.968 84.3433 273.399 84.7747 272.823C85.2062 272.248 85.0619 270.378 85.0619 270.378C85.0619 270.378 85.7806 269.803 85.7806 268.653C85.7806 267.503 85.7806 266.928 85.7806 266.928C85.7806 266.928 87.793 258.587 87.6494 253.555C87.5058 248.522 86.4993 245.646 86.7871 244.352C87.0743 243.057 93.5429 223.357 93.5429 223.357C93.5429 223.357 95.5553 219.043 95.9868 216.311C96.4182 213.579 95.2681 210.703 94.4059 209.552C93.5436 208.402 80.3198 204.807 80.3198 204.807" fill="#263238"/>
<path d="M76.2937 211.854C76.2937 211.854 77.8747 221.632 77.3002 227.384C76.7252 233.136 77.1566 245.934 77.7317 249.529C78.3068 253.124 77.8753 263.908 77.8753 265.778C77.8753 267.648 77.7317 268.51 77.7317 268.51C77.7317 268.51 76.1508 268.366 76.2944 269.229C76.438 270.092 76.438 270.954 76.438 270.954C76.438 270.954 77.7317 272.105 79.8877 272.536C82.0437 272.968 84.3433 273.399 84.7747 272.823C85.2062 272.248 85.0619 270.378 85.0619 270.378C85.0619 270.378 85.7806 269.803 85.7806 268.653C85.7806 267.503 85.7806 266.928 85.7806 266.928C85.7806 266.928 87.793 258.587 87.6494 253.555C87.5058 248.522 86.4993 245.646 86.7871 244.352C87.0743 243.057 93.5429 223.357 93.5429 223.357C93.5429 223.357 95.5553 219.043 95.9868 216.311C96.4182 213.579 95.2681 210.703 94.4059 209.552C93.5436 208.402 80.3198 204.807 80.3198 204.807" stroke="#263238" stroke-miterlimit="10" stroke-linecap="round" stroke-linejoin="round"/>
<path d="M79.9391 167.094C79.9391 167.094 76.4185 174.458 76.4185 179.047C76.4185 183.637 75.0317 191.428 75.0317 193.563C75.0317 195.697 73.1111 198.899 73.9648 200.714C74.8186 202.528 79.726 202.528 80.1522 202.528C80.579 202.528 83.3527 202.635 83.8858 202.421C84.4189 202.208 85.3795 184.598 85.3795 180.542C85.3795 176.486 85.5926 166.133 85.4864 164.853C85.3802 163.572 81.219 164.746 79.9391 167.094Z" fill="white" stroke="#263238" stroke-miterlimit="10" stroke-linecap="round" stroke-linejoin="round"/>
<path d="M85.7807 159.8C85.7807 159.8 81.6124 166.127 80.6065 175.762C79.6 185.396 76.8696 202.508 78.8813 204.378C80.8937 206.247 85.9244 207.542 88.2239 208.692C90.5235 209.842 94.2611 211.711 95.5542 212.43C96.8479 213.149 99.0039 212.287 99.0039 212.287C99.0039 212.287 100.728 197.044 100.154 190.286C99.5789 183.527 98.7167 172.167 95.9856 166.703C93.2546 161.238 86.4994 159.081 85.7807 159.8Z" fill="#92E3A9" stroke="#263238" stroke-miterlimit="10" stroke-linecap="round" stroke-linejoin="round"/>
<path d="M86.0663 208.691L84.3418 210.561L87.2164 214.443L88.941 211.136L86.0663 208.691Z" fill="#CFCFCF" stroke="#263238" stroke-miterlimit="10" stroke-linecap="round" stroke-linejoin="round"/>
<path d="M86.0667 169.578C86.0667 169.578 83.6236 175.905 84.9166 181.081C86.2103 186.258 89.6601 197.043 89.6601 197.043L85.3481 208.691L89.6601 212.574C89.6601 212.574 98.7155 197.619 98.7155 195.606C98.7155 193.593 96.7031 173.03 95.8408 170.297C94.9786 167.565 93.5412 164.977 91.3852 164.977" fill="#92E3A9"/>
<path d="M86.0667 169.578C86.0667 169.578 83.6236 175.905 84.9166 181.081C86.2103 186.258 89.6601 197.043 89.6601 197.043L85.3481 208.691L89.6601 212.574C89.6601 212.574 98.7155 197.619 98.7155 195.606C98.7155 193.593 96.7031 173.03 95.8408 170.297C94.9786 167.565 93.5412 164.977 91.3852 164.977" stroke="#263238" stroke-miterlimit="10" stroke-linecap="round" stroke-linejoin="round"/>
<path d="M77.0124 271.387C77.0124 271.387 76.0058 271.818 76.0058 272.537C76.0058 273.256 75.1436 277.139 75.1436 277.139C75.1436 277.139 68.1005 279.583 66.8068 279.871C65.5131 280.159 65.0823 282.46 65.5131 283.179C65.9446 283.898 70.6873 284.473 74.8557 284.617C79.0241 284.761 83.9111 284.761 84.3419 284.042C84.7734 283.323 84.6291 276.277 84.6291 276.277L84.7727 272.825C84.774 272.825 80.8935 272.537 77.0124 271.387Z" fill="white" stroke="#263238" stroke-miterlimit="10" stroke-linecap="round" stroke-linejoin="round"/>
<path d="M65.3828 282.777C65.409 282.935 65.451 283.075 65.5133 283.178C65.9448 283.897 70.6875 284.472 74.8559 284.616C79.0243 284.76 83.9113 284.76 84.3421 284.041C84.413 283.923 84.4674 283.634 84.5107 283.237C78.3371 284.287 69.441 283.324 65.3828 282.777Z" fill="white" stroke="#263238" stroke-miterlimit="10" stroke-linecap="round" stroke-linejoin="round"/>
<path d="M65.2269 142.112C65.2269 142.112 62.2086 144.845 62.4958 148.727C62.783 152.609 63.3581 154.048 63.7896 154.479C64.221 154.91 65.5141 155.629 65.5141 155.629C65.5141 155.629 65.2269 159.8 66.0891 160.087C66.9514 160.374 68.5323 160.231 68.5323 160.231C68.5323 160.231 70.8319 164.401 72.1257 164.544C73.4194 164.688 76.0062 162.099 76.0062 162.099L80.3181 165.982L85.2052 158.505L82.4741 155.485C82.4741 155.485 83.7679 147.433 81.8991 143.118C80.0316 138.805 68.8202 136.648 65.2269 142.112Z" fill="#CFCFCF" stroke="#263238" stroke-miterlimit="10" stroke-linecap="round" stroke-linejoin="round"/>
<path d="M76.0059 162.099L78.0097 160.07L77.6969 163.045L76.0059 162.099Z" fill="#263238" stroke="#263238" stroke-miterlimit="10" stroke-linecap="round" stroke-linejoin="round"/>
<path d="M78.02 154.91C78.02 154.91 80.5832 155.103 82.5431 155.016C82.7831 153.241 83.5005 146.812 81.9005 143.119C80.0317 138.805 68.8203 136.648 65.227 142.112C65.227 142.112 63.6435 143.554 62.8809 145.825C63.0815 146.164 63.3733 146.352 63.7897 145.994C64.7955 145.131 67.8145 144.843 68.1017 146.426C68.3889 148.007 68.1017 149.445 69.8262 149.014C71.5507 148.583 72.5572 149.158 72.5572 149.158C72.5572 149.158 73.7074 151.171 74.426 150.74C75.1447 150.308 74.5696 149.445 75.4319 148.439C76.2941 147.433 79.6003 149.014 79.7439 151.171C79.8875 153.328 78.02 154.91 78.02 154.91Z" fill="#263238" stroke="#263238" stroke-miterlimit="10" stroke-linecap="round" stroke-linejoin="round"/>
<path d="M68.1635 154.397C68.4782 154.776 68.5556 155.23 68.3372 155.412C68.1189 155.593 67.6868 155.432 67.372 155.053C67.0573 154.674 66.9799 154.219 67.1982 154.038C67.4166 153.856 67.8487 154.017 68.1635 154.397Z" fill="#263238"/>
<path d="M66.0278 153.882C66.0278 153.882 65.6803 152.549 67.3602 152.549" stroke="#263238" stroke-miterlimit="10" stroke-linecap="round" stroke-linejoin="round"/>
<path d="M84.8455 157.168L78.6582 166.561L81.4319 170.189L87.6192 159.196L84.8455 157.168Z" fill="white" stroke="#263238" stroke-miterlimit="10" stroke-linecap="round" stroke-linejoin="round"/>
</g>
</svg>
