<svg width="471" height="311" viewBox="0 0 471 311" fill="none" xmlns="http://www.w3.org/2000/svg">
<path fill-rule="evenodd" clip-rule="evenodd" d="M411.528 263.017C411.434 263.272 411.16 263.402 410.907 263.31C410.657 263.215 410.529 262.934 410.62 262.679C410.63 262.65 414.336 252.26 419.418 250.14C420.179 249.823 420.902 249.659 421.585 249.636C422.827 249.593 423.924 250.009 424.855 250.794C425.755 251.556 426.491 252.665 427.042 254.039C427.746 255.789 428.161 257.984 428.242 260.437C428.252 260.709 428.042 260.935 427.777 260.944C427.509 260.952 427.287 260.739 427.278 260.47C427.2 258.134 426.812 256.058 426.149 254.413C425.654 253.185 425.011 252.205 424.238 251.55C423.491 250.917 422.61 250.583 421.616 250.618C421.047 250.639 420.434 250.779 419.783 251.051C415.106 253.001 411.538 262.989 411.528 263.017Z" fill="#408178"/>
<path fill-rule="evenodd" clip-rule="evenodd" d="M413.928 231C413.894 231.268 413.65 231.457 413.387 231.421C413.122 231.384 412.936 231.138 412.972 230.868C412.973 230.847 413.909 223.275 420.109 224.697C423.113 225.387 425.519 227.617 427.209 232.969C428.855 238.166 429.842 246.378 430.084 259.141C430.089 259.413 429.877 259.635 429.609 259.64C429.344 259.644 429.123 259.427 429.118 259.158C428.881 246.502 427.907 238.38 426.291 233.271C424.724 228.318 422.567 226.269 419.895 225.657C414.736 224.472 413.931 230.981 413.928 231Z" fill="#408178"/>
<path fill-rule="evenodd" clip-rule="evenodd" d="M443.529 247.246C443.537 247.518 443.328 247.744 443.063 247.752C442.796 247.76 442.575 247.547 442.563 247.277C442.563 247.262 442.409 242.161 440.475 240.996C440.167 240.81 439.722 240.698 439.202 240.727C438.633 240.76 437.98 240.961 437.319 241.412C436.635 241.877 435.942 242.608 435.311 243.691C433.721 246.422 432.578 251.315 433.04 259.676C433.056 259.947 432.853 260.178 432.585 260.193C432.32 260.207 432.092 259.999 432.077 259.729C431.601 251.143 432.808 246.063 434.478 243.19C435.188 241.971 435.988 241.135 436.783 240.594C437.604 240.036 438.423 239.786 439.146 239.744C439.869 239.703 440.507 239.869 440.967 240.147C443.357 241.591 443.529 247.232 443.529 247.246Z" fill="#408178"/>
<path fill-rule="evenodd" clip-rule="evenodd" d="M458.831 269.496C458.884 269.763 458.718 270.021 458.456 270.077C458.196 270.132 457.939 269.961 457.886 269.696C457.875 269.643 454.173 251.13 447.065 249.686C446.199 249.513 445.414 249.436 444.699 249.451C442.716 249.487 441.257 250.195 440.22 251.286C439.171 252.388 438.539 253.894 438.224 255.496L438.221 255.514C438.041 256.456 437.964 257.424 437.982 258.362C437.988 258.634 437.776 258.857 437.507 258.862C437.242 258.866 437.024 258.65 437.019 258.379C436.998 257.364 437.078 256.326 437.273 255.324L437.276 255.305C437.622 253.534 438.333 251.857 439.528 250.603C440.734 249.337 442.415 248.513 444.683 248.47C445.473 248.456 446.329 248.534 447.253 248.722C454.995 250.293 458.818 269.443 458.831 269.496Z" fill="#408178"/>
<path fill-rule="evenodd" clip-rule="evenodd" d="M448.728 300.802C448.728 300.802 456.737 297.032 458.807 289.494C460.876 281.956 458.475 274.356 454.341 269.218C450.201 264.077 450.158 261.073 450.144 258.994V258.43V258.334V257.058C450.144 256.569 449.751 256.17 449.272 256.17H417.962C417.485 256.17 417.093 256.569 417.093 257.058V258.334V258.43V258.994C417.079 261.073 416.811 264.352 412.897 269.218C408.54 274.631 406.36 281.956 408.43 289.494C410.501 297.032 418.508 300.802 418.508 300.802H448.728Z" fill="#A2323D"/>
<path fill-rule="evenodd" clip-rule="evenodd" d="M442.555 256.171H417.964C417.487 256.171 417.095 256.57 417.095 257.059V258.335V258.431V258.995C417.081 261.074 416.813 264.353 412.899 269.219C408.542 274.632 406.362 281.957 408.432 289.495C410.503 297.033 418.51 300.803 418.51 300.803H442.011C442.011 300.803 450.02 297.035 452.089 289.495C454.159 281.957 451.76 274.357 447.622 269.219C443.486 264.078 443.441 261.074 443.427 258.995V258.431V258.335V257.059C443.425 256.57 443.034 256.171 442.555 256.171Z" fill="#CE403F"/>
<path fill-rule="evenodd" clip-rule="evenodd" d="M417.089 259.31C417.07 260.155 416.993 261.18 416.657 262.407H443.815C443.488 261.173 443.44 260.165 443.429 259.31H417.089ZM416.39 263.262C416.299 263.525 416.195 263.797 416.08 264.076H444.394C444.275 263.795 444.169 263.524 444.077 263.262H416.39Z" fill="white"/>
<path fill-rule="evenodd" clip-rule="evenodd" d="M431.898 256.786C432.187 259.532 433.34 261.97 435.056 263.848C435.758 264.561 437.016 263.053 437.586 262.271C438.164 261.469 439.573 260.517 440.375 261.639C441.176 262.76 439.988 263.893 439.097 264.994C438.235 266.06 438.869 266.641 438.909 266.676C440.812 267.559 442.965 267.952 445.195 267.709L442.892 245.756V245.753C442.878 245.673 442.477 243.327 440.877 243.566C439.335 243.971 437.924 244.675 436.698 245.605C436.665 245.649 436.167 246.354 437.23 247.209C438.33 248.094 439.726 248.944 439.174 250.214C438.625 251.482 437.049 250.854 436.317 250.197C435.602 249.555 434.058 248.351 433.522 249.199C432.232 251.408 431.609 254.04 431.898 256.786ZM437.608 258.295C436.575 258.407 435.649 257.648 435.538 256.596C435.429 255.544 436.176 254.601 437.207 254.487C438.24 254.375 439.169 255.136 439.278 256.188C439.39 257.238 438.643 258.182 437.608 258.295Z" fill="#6AB8B1"/>
<path fill-rule="evenodd" clip-rule="evenodd" d="M455.923 254.171C456.21 256.916 455.587 259.548 454.301 261.754C453.763 262.601 452.218 261.398 451.504 260.756C450.771 260.099 449.197 259.47 448.645 260.74C448.094 262.008 449.491 262.86 450.589 263.744C451.654 264.599 451.154 265.304 451.124 265.348C449.446 266.62 447.425 267.467 445.194 267.71L442.89 245.758V245.755C442.885 245.673 442.788 243.295 444.402 243.185C445.993 243.25 447.518 243.632 448.908 244.277C448.95 244.313 449.584 244.895 448.723 245.961C447.831 247.063 446.643 248.195 447.446 249.316C448.247 250.438 449.655 249.486 450.235 248.686C450.802 247.902 452.06 246.395 452.763 247.107C454.478 248.985 455.632 251.423 455.923 254.171ZM450.653 256.874C451.686 256.762 452.433 255.819 452.321 254.767C452.213 253.715 451.285 252.953 450.252 253.067C449.22 253.179 448.474 254.122 448.584 255.174C448.694 256.225 449.622 256.988 450.653 256.874Z" fill="#408178"/>
<path fill-rule="evenodd" clip-rule="evenodd" d="M470.903 276.139C471.244 278.88 470.671 281.524 469.424 283.752C468.904 284.611 467.336 283.438 466.608 282.809C465.865 282.166 464.278 281.569 463.753 282.848C463.226 284.128 464.637 284.952 465.751 285.815C466.832 286.651 466.345 287.366 466.313 287.41C464.663 288.714 462.654 289.601 460.429 289.886L457.715 267.98C457.712 267.899 457.57 265.521 459.182 265.379C460.775 265.414 462.305 265.766 463.709 266.386C463.749 266.42 464.398 266.989 463.555 268.071C462.685 269.19 461.519 270.346 462.338 271.451C463.16 272.557 464.552 271.578 465.116 270.765C465.67 269.972 466.897 268.439 467.613 269.141C469.365 270.985 470.564 273.4 470.903 276.139ZM465.687 278.945C466.717 278.814 467.447 277.856 467.319 276.806C467.186 275.756 466.248 275.013 465.218 275.146C464.187 275.278 463.456 276.235 463.588 277.286C463.716 278.334 464.658 279.079 465.687 278.945Z" fill="#6AB8B1"/>
<path fill-rule="evenodd" clip-rule="evenodd" d="M446.934 279.221C447.274 281.961 448.471 284.375 450.222 286.221C450.938 286.92 452.17 285.387 452.719 284.593C453.284 283.782 454.676 282.802 455.498 283.907C456.32 285.014 455.152 286.169 454.282 287.287C453.441 288.371 454.086 288.94 454.129 288.974C456.044 289.82 458.204 290.171 460.428 289.885L457.714 267.979V267.978C457.701 267.898 457.257 265.56 455.661 265.83C454.129 266.266 452.732 266.996 451.522 267.95C451.488 267.994 451.003 268.709 452.085 269.545C453.198 270.406 454.611 271.232 454.084 272.51C453.557 273.789 451.972 273.193 451.227 272.549C450.499 271.92 448.934 270.746 448.411 271.605C447.169 273.836 446.594 276.48 446.934 279.221ZM452.671 280.619C451.642 280.752 450.701 280.007 450.57 278.959C450.441 277.91 451.169 276.953 452.2 276.82C453.232 276.688 454.172 277.431 454.301 278.479C454.43 279.528 453.701 280.487 452.671 280.619Z" fill="#408178"/>
<path fill-rule="evenodd" clip-rule="evenodd" d="M397.081 265.832C396.129 268.419 396.089 271.125 396.795 273.586C397.108 274.544 398.897 273.77 399.75 273.33C400.621 272.879 402.301 272.671 402.521 274.038C402.744 275.407 401.183 275.877 399.903 276.456C398.663 277.015 398.972 277.824 398.995 277.875C400.307 279.533 402.06 280.866 404.16 281.666L411.759 260.989L411.76 260.988C411.783 260.91 412.46 258.631 410.922 258.115C409.366 257.774 407.795 257.758 406.29 258.032C406.244 258.055 405.487 258.458 406.058 259.71C406.652 261.001 407.525 262.4 406.477 263.282C405.426 264.164 404.294 262.885 403.929 261.962C403.57 261.061 402.72 259.281 401.866 259.795C399.746 261.175 398.03 263.246 397.081 265.832ZM401.522 269.786C400.551 269.415 400.055 268.311 400.42 267.321C400.784 266.331 401.868 265.827 402.84 266.198C403.812 266.57 404.306 267.672 403.942 268.662C403.578 269.654 402.494 270.156 401.522 269.786Z" fill="#6AB8B1"/>
<path fill-rule="evenodd" clip-rule="evenodd" d="M419.708 274.456C418.757 277.042 417.044 279.111 414.922 280.495C414.07 281.008 413.219 279.228 412.861 278.326C412.494 277.404 411.363 276.125 410.312 277.008C409.262 277.891 410.137 279.29 410.729 280.581C411.303 281.833 410.548 282.234 410.499 282.259C408.44 282.631 406.259 282.465 404.16 281.665L411.758 260.989L411.76 260.987C411.794 260.914 412.753 258.742 414.244 259.381C415.639 260.165 416.835 261.203 417.793 262.416C417.815 262.467 418.125 263.276 416.887 263.837C415.606 264.414 414.046 264.886 414.268 266.253C414.491 267.62 416.169 267.412 417.039 266.961C417.89 266.521 419.678 265.747 419.994 266.705C420.698 269.163 420.656 271.869 419.708 274.456ZM413.808 274.467C414.779 274.839 415.863 274.337 416.228 273.347C416.592 272.357 416.099 271.253 415.127 270.882C414.156 270.512 413.071 271.014 412.707 272.004C412.341 272.994 412.836 274.098 413.808 274.467Z" fill="#408178"/>
<path fill-rule="evenodd" clip-rule="evenodd" d="M399.732 233.354C398.805 235.951 398.789 238.657 399.52 241.11C399.841 242.066 401.622 241.274 402.47 240.826C403.337 240.366 405.014 240.143 405.249 241.507C405.484 242.872 403.929 243.36 402.652 243.949C401.418 244.519 401.737 245.326 401.758 245.376C403.086 247.021 404.848 248.336 406.957 249.118L414.367 228.369C414.39 228.291 415.044 226.003 413.502 225.503C411.942 225.176 410.373 225.176 408.871 225.464C408.822 225.488 408.07 225.898 408.656 227.143C409.259 228.429 410.148 229.819 409.103 230.711C408.062 231.604 406.917 230.336 406.544 229.417C406.176 228.52 405.313 226.748 404.462 227.27C402.353 228.674 400.66 230.76 399.732 233.354ZM404.21 237.267C403.234 236.906 402.73 235.807 403.088 234.814C403.44 233.819 404.518 233.307 405.496 233.668C406.472 234.031 406.976 235.128 406.619 236.123C406.264 237.116 405.184 237.628 404.21 237.267Z" fill="#6AB8B1"/>
<path fill-rule="evenodd" clip-rule="evenodd" d="M422.437 241.763C421.511 244.358 419.814 246.444 417.708 247.848C416.858 248.368 415.992 246.598 415.625 245.699C415.252 244.781 414.109 243.511 413.065 244.405C412.026 245.297 412.911 246.689 413.515 247.973C414.102 249.22 413.349 249.628 413.301 249.652C411.243 250.044 409.064 249.9 406.956 249.119L414.366 228.37V228.368C414.398 228.295 415.336 226.113 416.835 226.738C418.237 227.508 419.442 228.536 420.411 229.739C420.433 229.789 420.751 230.595 419.515 231.166C418.24 231.756 416.685 232.24 416.92 233.608C417.155 234.973 418.831 234.749 419.698 234.289C420.545 233.84 422.327 233.048 422.651 234.004C423.382 236.461 423.366 239.167 422.437 241.763ZM416.54 241.833C417.515 242.194 418.593 241.682 418.949 240.687C419.305 239.694 418.799 238.595 417.823 238.232C416.848 237.872 415.771 238.385 415.415 239.379C415.059 240.372 415.563 241.472 416.54 241.833Z" fill="#408178"/>
<path d="M149.019 290.771H87.115V296.57H149.019V290.771Z" fill="white"/>
<path fill-rule="evenodd" clip-rule="evenodd" d="M94.7394 291.275C95.4177 291.275 95.9648 290.712 95.9648 290.021C95.9648 289.331 95.4177 288.77 94.7394 288.77H51.0094C49.6933 288.77 48.4942 289.32 47.6242 290.207L47.6201 290.211C46.7501 291.1 46.2131 292.322 46.2131 293.669C46.2131 295.013 46.7521 296.238 47.6201 297.124C48.4882 298.017 49.6872 298.567 51.0094 298.567H94.7394C95.4177 298.567 95.9648 298.004 95.9648 297.314C95.9648 296.621 95.4177 296.06 94.7394 296.06H92.7369C92.3998 295.807 92.0667 295.52 91.772 295.207C91.2088 294.609 90.8051 293.92 90.8697 293.227C90.9444 292.434 91.445 291.776 92.0264 291.273H94.7394V291.275Z" fill="#CE403F"/>
<path fill-rule="evenodd" clip-rule="evenodd" d="M149.017 291.275C149.695 291.275 150.245 290.712 150.245 290.021C150.245 289.331 149.693 288.77 149.017 288.77H94.1725C92.8564 288.77 91.6573 289.32 90.7873 290.207L90.7832 290.211C89.9132 291.1 89.3762 292.322 89.3762 293.669C89.3762 295.013 89.9152 296.238 90.7832 297.124C91.6533 298.017 92.8503 298.567 94.1725 298.567H149.017C149.695 298.567 150.245 298.004 150.245 297.314C150.245 296.621 149.693 296.06 149.017 296.06H94.1725C93.5306 296.06 92.9432 295.792 92.5193 295.357C92.0933 294.926 91.8289 294.326 91.8289 293.669C91.8289 293.011 92.0933 292.411 92.5172 291.976C92.9412 291.543 93.5286 291.275 94.1725 291.275H149.017Z" fill="#CB2229"/>
<path d="M104.83 279.684H52.929V286.719H104.83V279.684Z" fill="white"/>
<path fill-rule="evenodd" clip-rule="evenodd" d="M95.577 280.298C94.7575 280.298 94.0913 279.617 94.0913 278.778C94.0913 277.939 94.7575 277.259 95.577 277.259H135.881C137.478 277.259 138.932 277.929 139.985 279.003L139.991 279.007C141.043 280.085 141.699 281.57 141.699 283.201C141.699 284.834 141.045 286.318 139.991 287.394C138.94 288.477 137.482 289.145 135.881 289.145H95.577C94.7575 289.145 94.0913 288.462 94.0913 287.625C94.0913 286.786 94.7575 286.106 95.577 286.106H98.0075C98.4153 285.796 98.819 285.448 99.1783 285.069C99.8606 284.343 100.351 283.51 100.27 282.669C100.18 281.704 99.574 280.908 98.8694 280.298H95.577Z" fill="#2C3E73"/>
<path fill-rule="evenodd" clip-rule="evenodd" d="M52.9296 280.298C52.108 280.298 51.4419 279.617 51.4419 278.778C51.4419 277.939 52.108 277.259 52.9296 277.259H96.268C97.8648 277.259 99.3202 277.929 100.372 279.003L100.378 279.007C101.432 280.085 102.088 281.57 102.088 283.201C102.088 284.834 101.434 286.318 100.378 287.394C99.3262 288.477 97.8688 289.145 96.268 289.145H52.9296C52.108 289.145 51.4419 288.462 51.4419 287.625C51.4419 286.786 52.108 286.106 52.9296 286.106H96.268C97.0472 286.106 97.7578 285.778 98.2745 285.25C98.7913 284.726 99.1103 284.001 99.1103 283.201C99.1103 282.403 98.7913 281.675 98.2766 281.149C97.7618 280.624 97.0492 280.298 96.268 280.298H52.9296Z" fill="#122344"/>
<path d="M125.203 267.578H91.5237V274.775H125.203V267.578Z" fill="white"/>
<path fill-rule="evenodd" clip-rule="evenodd" d="M100.991 268.206C101.831 268.206 102.513 267.509 102.513 266.649C102.513 265.794 101.831 265.095 100.991 265.095H76.1616C74.5244 265.095 73.0367 265.779 71.9587 266.88L71.9547 266.886C70.8767 267.989 70.2065 269.507 70.2065 271.177C70.2065 272.847 70.8767 274.366 71.9547 275.467C73.0306 276.574 74.5204 277.259 76.1616 277.259H100.991C101.831 277.259 102.513 276.562 102.513 275.702C102.513 274.845 101.831 274.146 100.991 274.146H98.5039C98.0881 273.83 97.6723 273.474 97.3069 273.084C96.6064 272.342 96.1058 271.492 96.1866 270.63C96.2794 269.643 96.9011 268.831 97.6218 268.206H100.991Z" fill="#C1DEE7"/>
<path fill-rule="evenodd" clip-rule="evenodd" d="M125.203 268.206C126.045 268.206 126.727 267.509 126.727 266.649C126.727 265.794 126.045 265.095 125.203 265.095H100.285C98.6495 265.095 97.1617 265.779 96.0838 266.88L96.0777 266.886C94.9998 267.989 94.3296 269.507 94.3296 271.177C94.3296 272.847 94.9998 274.366 96.0777 275.467C97.1557 276.574 98.6434 277.259 100.285 277.259H125.203C126.045 277.259 126.727 276.562 126.727 275.702C126.727 274.845 126.045 274.146 125.203 274.146H100.285C99.4872 274.146 98.7585 273.812 98.2296 273.274C97.7007 272.738 97.3737 271.993 97.3737 271.177C97.3737 270.36 97.7007 269.616 98.2276 269.078C98.7565 268.54 99.4832 268.208 100.285 268.208L125.203 268.206Z" fill="#B4CADC"/>
<path fill-rule="evenodd" clip-rule="evenodd" d="M295.78 271.681L294.286 276.032C294.286 276.032 285.02 272.253 285.311 272.211C285.604 272.17 293.083 269.071 293.083 269.071L295.78 271.681Z" fill="#122344"/>
<path fill-rule="evenodd" clip-rule="evenodd" d="M288.886 269.582L291.294 270.176L296.781 276.711H302.265V281.635C302.265 281.635 287.556 285.284 286.643 285.284C285.729 285.284 274.344 283.756 274.344 283.756C274.344 283.756 269.44 272.638 288.886 269.582Z" fill="#D77F68"/>
<path fill-rule="evenodd" clip-rule="evenodd" d="M150.023 67.9027C150.023 67.9027 154.012 111.865 142.712 131.218C142.712 131.218 141.878 133.934 144.371 135.121C146.864 136.309 172.416 146.496 195.871 146.496C219.328 146.496 244.878 136.309 247.373 135.121C249.864 133.934 249.032 131.218 249.032 131.218C237.73 111.867 241.72 65.3853 241.72 65.3853L195.871 56.021L150.023 67.9027Z" fill="#122344"/>
<path fill-rule="evenodd" clip-rule="evenodd" d="M229.431 157.309C229.431 157.309 235.117 158.643 238.442 162.569C241.765 166.494 257.242 212.644 262.23 227.921C262.23 227.921 263.891 232.164 267.837 237.044C271.784 241.924 295.259 269.933 295.259 269.933C295.259 269.933 296.09 270.887 295.78 271.683C295.78 271.683 281.084 273.38 274.227 282.928C274.227 282.928 272.826 285.315 272.721 286.429L241.872 254.548L229.431 157.309Z" fill="#EDD063"/>
<path fill-rule="evenodd" clip-rule="evenodd" d="M245.981 258.795L241.871 254.546L241.062 248.206L250.325 243.864L279.578 253.577L245.981 258.795Z" fill="#CE8A53"/>
<path fill-rule="evenodd" clip-rule="evenodd" d="M73.7749 149.853C73.3611 149.499 68.1711 144.823 68.1711 144.823C68.1711 144.823 77.4529 141.021 96.4928 141.159C96.4928 141.159 89.2882 152.54 73.7749 149.853Z" fill="#122344"/>
<path fill-rule="evenodd" clip-rule="evenodd" d="M70.5332 133.908L72.9879 149.063L87.3869 150.48L93.7921 145.843L92.48 144.837L89.3854 132.935L70.5332 133.908Z" fill="#D77F68"/>
<path fill-rule="evenodd" clip-rule="evenodd" d="M150.644 163.764C150.61 163.836 138 158.795 137.501 159.014C135.892 159.717 134.61 160.845 133.333 162.234C127.398 168.679 108.263 197.314 108.263 197.314C108.263 197.314 104.524 161.387 103.14 155.305C101.753 149.223 101.062 141.584 96.4922 141.159C96.4922 141.159 79.8727 147.217 68.1706 144.823C68.1706 144.823 66.0227 146.817 66.162 151.06C66.2993 155.303 80.8416 231.683 80.8416 231.683C80.8416 231.683 84.7215 247.808 98.0163 247.526C114.163 247.183 129.388 231.642 143.686 217.962C149.815 212.097 155.966 207.858 161.636 203.19L150.644 163.764Z" fill="#EDD063"/>
<path fill-rule="evenodd" clip-rule="evenodd" d="M118.184 182.752C112.826 190.488 108.264 197.314 108.264 197.314L109.893 215.01L118.184 182.752Z" fill="#CE8A53"/>
<path fill-rule="evenodd" clip-rule="evenodd" d="M124.886 235.159C131.322 229.972 137.588 223.799 143.688 217.964C149.542 212.362 155.414 208.245 160.871 203.819C160.786 201.976 160.596 200.207 160.342 198.543L156.809 185.871L142.725 184.346L124.886 235.159Z" fill="#CE8A53"/>
<path fill-rule="evenodd" clip-rule="evenodd" d="M219.267 154.814L228.373 156.862C228.373 156.862 229.921 157.33 230.549 158.206C231.177 159.082 253.222 203.349 253.222 203.349C253.222 203.349 258.951 215.28 247.271 232.824C247.271 232.824 238.565 288.496 240.4 300.193H149.242L154.291 268.378L143.689 217.963C143.689 217.963 144.605 170.242 137.503 159.012L166.247 151.528L219.267 154.814Z" fill="#EDD063"/>
<path fill-rule="evenodd" clip-rule="evenodd" d="M251.706 224.687C250.626 227.231 249.183 229.953 247.271 232.827C247.271 232.827 245.497 244.158 243.723 257.668L224.733 253.58L219.174 242.224C219.174 242.224 181.855 242.224 172.38 242.224C166.772 242.224 158.891 254.287 153.396 264.126L143.689 217.968C143.689 217.968 143.81 211.595 143.618 202.963V202.96C143.618 202.96 144.131 208.393 146.789 211.449C149.446 214.504 155.429 221.293 155.429 221.293C155.429 221.293 159.585 224.689 164.238 224.689L251.706 224.687Z" fill="#CE8A53"/>
<path fill-rule="evenodd" clip-rule="evenodd" d="M179.909 120.413V144.246C179.715 146.374 176.903 148.475 172.412 149.798C172.412 149.798 178.876 166.705 205.643 169.482H205.649H205.655C220.07 165.773 218.463 153.297 218.463 153.297L218.548 153.283L218.405 153.26C216.235 152.994 213.38 152.087 211.039 148.924C209.466 146.799 209.694 144.374 209.694 141.997V120.411H179.909V120.413Z" fill="#E6AD83"/>
<path fill-rule="evenodd" clip-rule="evenodd" d="M179.909 120.413V141.201C184.1 143.11 188.697 144.182 193.63 144.182C199.311 144.182 204.747 142.343 209.693 139.238V120.413H179.909Z" fill="#D77F68"/>
<path fill-rule="evenodd" clip-rule="evenodd" d="M94.7868 123.28C96.6218 118.245 100.041 115.097 101.4 114.072C103.199 112.716 96.6985 106.918 92.5421 114.231C92.5421 114.231 89.4758 116.732 88.1556 115.61C86.8374 114.491 88.3938 91.21 88.5634 88.6658C88.7329 86.1217 85.9209 85.4351 85.0449 86.0083C84.1688 86.5794 83.9669 90.2719 83.3997 94.9273C82.8304 99.5785 82.136 104.811 81.6757 105.201C81.2135 105.593 80.1759 105.415 79.5158 102.739C78.8516 100.061 75.753 85.1877 74.6549 84.2826C73.5587 83.3775 71.1081 84.2579 70.9204 86.633C70.7326 89.0081 74.4207 103.906 74.3016 105.966C74.1805 108.027 72.2325 107.59 71.532 106.335C70.8316 105.077 64.602 89.5029 63.6068 88.6205C62.6136 87.7381 60.1408 88.7235 60.5708 91.2368C60.9967 93.7521 66.3501 108.91 66.1019 110.062C65.8556 111.217 64.2144 111.838 62.0101 109.586C59.8017 107.333 55.7522 102.139 54.8277 101.933C53.9052 101.725 52.1934 104.419 54.0303 107.139C55.8673 109.856 60.1953 116.763 60.7121 117.868C63.4393 123.703 64.3133 129.752 67.0506 134.005C68.0377 135.541 69.4528 136.826 71.1162 137.811C75.0445 140.141 80.3697 140.817 84.7885 139.3C92.4654 136.667 92.2635 130.207 94.7868 123.28Z" fill="#E6AD83"/>
<path fill-rule="evenodd" clip-rule="evenodd" d="M156.715 77.6705C156.42 77.7117 156.134 77.7633 155.847 77.8251L155.837 77.8292C150.556 79.0003 146.569 83.765 146.501 89.5192C146.424 96.2095 151.673 101.698 158.219 101.776C164.768 101.857 170.141 96.5002 170.22 89.812C170.266 85.9236 168.514 82.4434 165.753 80.192C166.08 83.767 165.551 88.1956 161.088 88.6698L161.168 81.6847C161.205 78.8622 158.615 77.5798 156.715 77.6705Z" fill="#D77F68"/>
<path fill-rule="evenodd" clip-rule="evenodd" d="M234.869 77.6585C235.162 77.6976 235.453 77.745 235.739 77.8028L235.749 77.8048H235.747C241.044 78.8996 245.096 83.6107 245.243 89.3629C245.411 96.049 240.239 101.612 233.692 101.785C227.146 101.958 221.7 96.6778 221.53 89.9917C221.429 86.1053 223.137 82.5984 225.864 80.3119C225.588 83.889 226.173 88.3093 230.646 88.7237L230.469 81.7407C230.398 78.912 232.972 77.5946 234.869 77.6585Z" fill="#D77F68"/>
<path fill-rule="evenodd" clip-rule="evenodd" d="M195.871 138.327C218.011 138.327 236.48 110.426 236.48 88.3985V59.1365C236.48 36.3276 218.203 17.667 195.877 17.667H195.871C173.542 17.667 155.271 36.3276 155.271 59.1365V87.78C155.271 111.921 171.38 138.327 195.871 138.327Z" fill="#E6AD83"/>
<path fill-rule="evenodd" clip-rule="evenodd" d="M174.118 96.5782C177.225 96.6359 179.7 99.2584 179.641 102.429C179.582 105.604 177.015 108.13 173.908 108.07C170.801 108.012 168.328 105.39 168.387 102.217C168.446 99.044 171.011 96.5184 174.118 96.5782Z" fill="#D7766D"/>
<path fill-rule="evenodd" clip-rule="evenodd" d="M217.837 97.4937C220.944 97.5514 223.419 100.172 223.361 103.347C223.304 106.522 220.736 109.046 217.628 108.988C214.521 108.928 212.046 106.308 212.105 103.133C212.163 99.9595 214.729 97.4339 217.837 97.4937Z" fill="#D7766D"/>
<path fill-rule="evenodd" clip-rule="evenodd" d="M209.355 66.4814C208.501 66.8772 208.122 67.9081 208.509 68.7802C208.897 69.6544 209.906 70.042 210.76 69.6461C210.774 69.6399 215.906 67.1618 220.803 70.3059C221.6 70.8172 222.656 70.5718 223.157 69.7575C223.657 68.9431 223.417 67.8648 222.62 67.3535C216.154 63.1991 209.375 66.4731 209.355 66.4814Z" fill="#122344"/>
<path fill-rule="evenodd" clip-rule="evenodd" d="M169.205 67.2546C168.385 67.7206 168.088 68.7803 168.545 69.6174C168.999 70.4544 170.036 70.7575 170.858 70.2916C170.872 70.2833 175.787 67.3866 180.917 70.1163C181.753 70.5616 182.786 70.2276 183.222 69.3762C183.656 68.5226 183.331 67.467 182.495 67.0237C175.717 63.4198 169.223 67.2464 169.205 67.2546Z" fill="#122344"/>
<path fill-rule="evenodd" clip-rule="evenodd" d="M194.782 91.1896C194.023 93.2884 192.701 97.0882 192.814 97.7252C192.974 98.6159 197.471 99.4406 198.652 98.2675C199.437 97.4881 198.462 94.0616 197.608 91.7545C196.446 88.6104 195.802 88.363 194.782 91.1896Z" fill="#EBBF9E"/>
<path fill-rule="evenodd" clip-rule="evenodd" d="M159.286 77.0354C159.839 76.9323 160.348 76.7365 160.946 76.4829C165.712 72.9037 177.111 71.1471 194.839 71.2605C195.218 71.2626 195.529 71.2647 195.769 71.2647C196.012 71.2647 196.323 71.2647 196.702 71.2605C214.43 71.1471 225.839 72.9037 230.605 76.4829C231.203 76.7365 231.8 76.9303 232.353 77.0354C234.021 77.3488 236.479 78.0168 236.479 78.0168V81.8166C236.479 81.8166 234.279 81.6826 233.724 83.0227C233.169 84.3628 232.682 89.8738 231.118 93.1272C229.01 97.5083 225.553 101.069 219.487 101.799C212.803 102.605 207.897 101.034 204.1 97.5908C199.492 93.4138 199.173 87.3791 199.758 82.2165C199.758 82.2165 198.271 81.4991 195.767 81.4991C193.266 81.4991 191.777 82.2165 191.777 82.2165C192.36 87.3791 192.047 93.4138 187.44 97.5908C183.641 101.034 178.742 102.605 172.062 101.799C165.996 101.067 162.555 97.5083 160.447 93.1272C158.883 89.8717 158.471 84.3628 157.916 83.0227C157.361 81.6805 155.269 81.8166 155.269 81.8166V78.0168C155.269 78.0168 157.619 77.3488 159.286 77.0354ZM203.557 94.0859C205.538 97.2176 210.152 100.366 216.911 100.215C223.669 100.065 226.901 97.2857 228.956 93.5457C231.124 89.5975 231.992 83.4969 230.45 80.3404C228.908 77.1839 223.821 74.8871 216.489 74.9304C209.157 74.9758 204.906 78.2622 203.416 80.5197C200.384 85.1174 201.434 90.7273 203.557 94.0859ZM195.765 79.4023C197.709 79.4023 200.005 79.7363 200.513 79.961C200.513 79.961 202.322 75.8912 209.175 74.2377C212.536 73.4253 215.544 73.1635 218.201 73.2439C212.627 72.4069 205.455 72.011 196.706 72.0667C196.325 72.0687 196.008 72.0708 195.765 72.0708C195.523 72.0708 195.206 72.0687 194.825 72.0667C186.074 72.011 178.9 72.4069 173.33 73.2439C175.983 73.1635 178.992 73.4274 182.353 74.2377C189.209 75.8912 191.015 79.961 191.015 79.961C191.526 79.7363 193.819 79.4023 195.765 79.4023ZM162.575 93.5457C164.628 97.2857 167.862 100.067 174.62 100.215C181.378 100.366 185.993 97.2176 187.973 94.0859C190.099 90.7294 191.147 85.1174 188.113 80.5197C186.623 78.2622 182.37 74.9758 175.038 74.9304C167.706 74.8851 162.619 77.1839 161.079 80.3404C159.539 83.4948 160.405 89.5975 162.575 93.5457Z" fill="#122344"/>
<path fill-rule="evenodd" clip-rule="evenodd" d="M177.84 89.7738C175.171 89.7738 173.005 87.5636 173.005 84.8359C173.005 84.4628 173.045 84.102 173.122 83.7556L172.571 83.5535C171.996 83.3371 171.406 82.9928 170.867 82.4588C170.627 82.2237 170.617 81.832 170.849 81.5846C171.079 81.3372 171.465 81.329 171.707 81.5661C172.232 82.0836 172.819 82.3701 173.372 82.5186L173.383 82.5103C172.829 82.1763 172.268 81.6712 171.879 80.9084C171.723 80.6094 171.838 80.2321 172.133 80.0754C172.428 79.9146 172.795 80.0342 172.949 80.3352C173.274 80.9682 173.758 81.3496 174.206 81.5763L174.253 81.5227C173.893 81.2238 173.538 80.7908 173.368 80.1703C173.278 79.8425 173.463 79.4981 173.784 79.4054C174.105 79.3126 174.44 79.5023 174.531 79.8321C174.654 80.2734 174.939 80.5476 175.183 80.7084C175.946 80.1971 176.857 79.8981 177.836 79.8981C180.504 79.8981 182.67 82.1083 182.67 84.8359C182.674 87.5636 180.508 89.7738 177.84 89.7738Z" fill="#122344"/>
<path fill-rule="evenodd" clip-rule="evenodd" d="M213.907 89.7738C216.576 89.7738 218.74 87.5636 218.74 84.8359C218.74 84.4628 218.7 84.102 218.623 83.7556L219.174 83.5535C219.749 83.3371 220.337 82.9928 220.878 82.4588C221.118 82.2237 221.126 81.832 220.896 81.5846C220.666 81.3372 220.28 81.329 220.038 81.5661C219.513 82.0836 218.926 82.3701 218.373 82.5186L218.363 82.5103C218.916 82.1763 219.475 81.6712 219.866 80.9084C220.022 80.6094 219.907 80.2321 219.612 80.0754C219.317 79.9146 218.95 80.0342 218.795 80.3352C218.472 80.9682 217.987 81.3496 217.537 81.5763L217.492 81.5227C217.85 81.2238 218.205 80.7908 218.377 80.1703C218.467 79.8425 218.282 79.4981 217.961 79.4054C217.638 79.3126 217.305 79.5023 217.212 79.8321C217.093 80.2734 216.804 80.5476 216.562 80.7084C215.799 80.1971 214.888 79.8981 213.909 79.8981C211.241 79.8981 209.075 82.1083 209.075 84.8359C209.075 87.5636 211.239 89.7738 213.907 89.7738Z" fill="#122344"/>
<path fill-rule="evenodd" clip-rule="evenodd" d="M187.342 107.766C187.342 112.576 191.163 116.481 195.871 116.481C200.584 116.481 204.405 112.578 204.405 107.766C204.405 106.881 203.699 106.162 202.835 106.162H188.914C188.046 106.162 187.342 106.881 187.342 107.766Z" fill="#122344"/>
<path fill-rule="evenodd" clip-rule="evenodd" d="M201.975 106.162H189.77V107.636C189.77 108.405 190.386 109.032 191.139 109.032H200.606C201.359 109.032 201.975 108.403 201.975 107.636V106.162Z" fill="white"/>
<path fill-rule="evenodd" clip-rule="evenodd" d="M189.69 113.77C191.244 115.44 193.44 116.479 195.873 116.479C198.307 116.479 200.504 115.438 202.058 113.77C200.504 112.1 198.309 111.059 195.873 111.059C193.442 111.059 191.244 112.1 189.69 113.77Z" fill="#D26070"/>
<path fill-rule="evenodd" clip-rule="evenodd" d="M236.48 85.3918C236.48 85.3918 231.794 80.8086 231.794 72.4916C231.794 72.4916 226.31 70.4546 223.318 57.8925C220.328 45.3305 218.996 37.5248 213.015 35.8259C207.032 34.1291 200.717 38.2031 193.737 47.7076C186.756 57.2122 171.798 82.6744 152.52 73.8461C133.242 65.0199 135.565 32.7684 156.842 14.0995C174.128 -1.07276 216.862 -11.3752 225.312 23.2638C225.312 23.2638 239.938 24.1133 244.758 35.4857C249.579 46.8582 239.934 67.327 239.271 79.1592C239.271 79.1592 236.48 80.1282 236.48 85.3918Z" fill="#122344"/>
<path fill-rule="evenodd" clip-rule="evenodd" d="M172.412 149.8C172.412 149.8 181.645 167.735 205.643 169.484L197.399 186.852C197.399 186.852 195.071 190.925 190.834 189.229C186.595 187.53 164.158 155.703 164.158 155.703C164.158 155.703 162.537 153.031 164.2 151.46C165.859 149.889 172.412 149.8 172.412 149.8Z" fill="white"/>
<path fill-rule="evenodd" clip-rule="evenodd" d="M205.643 169.483C205.643 169.483 216.764 167.634 218.486 153.542L222.741 154.175C222.741 154.175 223.922 154.272 224.516 155.729C225.109 157.185 224.859 182.136 224.859 182.136C224.859 182.136 224.611 185.956 222.035 186.466C219.461 186.975 217.152 184.839 216.094 183.878C215.032 182.915 205.643 169.483 205.643 169.483Z" fill="white"/>
<path fill-rule="evenodd" clip-rule="evenodd" d="M213.958 296.405H326.145C330.6 296.405 334.245 292.682 334.245 288.132C334.245 283.581 330.6 279.858 326.145 279.858H213.958C209.503 279.858 205.857 283.581 205.857 288.132C205.857 292.682 209.503 296.405 213.958 296.405Z" fill="#122344"/>
<path fill-rule="evenodd" clip-rule="evenodd" d="M213.958 296.405H240.344C244.801 296.405 248.445 292.682 248.445 288.132C248.445 283.581 244.801 279.858 240.344 279.858H213.958C209.503 279.858 205.857 283.581 205.857 288.132C205.857 292.682 209.503 296.405 213.958 296.405Z" fill="#2C3E73"/>
<path fill-rule="evenodd" clip-rule="evenodd" d="M260.773 230.777C260.773 230.777 259.719 226.911 256.54 226.744C253.361 226.579 252.149 230.6 253.084 231.092C254.017 231.585 260.773 230.777 260.773 230.777Z" fill="white"/>
<path fill-rule="evenodd" clip-rule="evenodd" d="M258.013 237.643L258.879 237.461C258.883 237.461 258.887 237.461 258.893 237.459L261.841 236.839C258.318 246.712 248.477 245.294 252.353 237.688L257.206 236.667L257.21 237.175C257.212 237.525 257.504 237.748 257.864 237.674L258.013 237.643Z" fill="white"/>
<path fill-rule="evenodd" clip-rule="evenodd" d="M409.493 143.368H271.456C267.667 143.368 263.922 146.534 263.131 150.406L243.675 245.866C242.886 249.738 245.342 252.905 249.131 252.905H387.169C390.96 252.905 394.706 249.738 395.495 245.866L414.951 150.406C415.74 146.534 413.284 143.368 409.493 143.368Z" fill="#122344"/>
<path fill-rule="evenodd" clip-rule="evenodd" d="M409.492 143.368H275.981C272.192 143.368 268.447 146.534 267.656 150.406L248.2 245.866C247.411 249.738 249.868 252.905 253.657 252.905H387.168C390.959 252.905 394.706 249.738 395.495 245.866L414.951 150.406C415.74 146.534 413.283 143.368 409.492 143.368Z" fill="#2C3E73"/>
<path fill-rule="evenodd" clip-rule="evenodd" d="M299.559 252.904H333.388C333.977 251.568 334.347 250.628 334.347 250.362C334.347 248.993 326.577 225.226 315.311 221.496L308.734 221.341L299.559 252.904Z" fill="#2C3E73"/>
<path fill-rule="evenodd" clip-rule="evenodd" d="M396.735 209.875H262.674C261.205 209.875 259.757 211.102 259.448 212.603C259.144 214.102 260.092 215.328 261.564 215.328H395.622C397.09 215.328 398.541 214.102 398.85 212.603C399.153 211.102 398.202 209.875 396.735 209.875Z" fill="#122344"/>
<path fill-rule="evenodd" clip-rule="evenodd" d="M393.535 218.173H262.491C260.192 218.173 257.923 220.093 257.446 222.441L252.902 244.726C252.424 247.075 253.913 248.994 256.211 248.994H387.255C389.555 248.994 391.824 247.075 392.302 244.726L396.844 222.441C397.322 220.093 395.833 218.173 393.535 218.173Z" fill="#162C4F"/>
<path fill-rule="evenodd" clip-rule="evenodd" d="M300.697 248.991H334.021C332.447 243.622 325.236 224.778 315.308 221.494L308.731 221.339L300.697 248.991Z" fill="#122344"/>
<path fill-rule="evenodd" clip-rule="evenodd" d="M395.493 165.568H372.743C371.34 165.568 369.949 166.741 369.658 168.176L362.797 201.844C362.504 203.279 363.415 204.452 364.82 204.452H387.57C388.975 204.452 390.364 203.279 390.654 201.844L397.516 168.176C397.81 166.741 396.9 165.568 395.493 165.568Z" fill="#122344"/>
<path fill-rule="evenodd" clip-rule="evenodd" d="M408.576 151.784H274.513C273.044 151.784 271.595 153.011 271.288 154.51C270.983 156.011 271.932 157.235 273.401 157.235H407.462C408.929 157.235 410.381 156.011 410.687 154.51C410.994 153.011 410.042 151.784 408.576 151.784Z" fill="#122344"/>
<path fill-rule="evenodd" clip-rule="evenodd" d="M278.981 182.639H276.623C275.772 182.639 274.93 183.35 274.752 184.223L273.333 191.189C273.155 192.061 273.708 192.773 274.558 192.773H276.916C277.77 192.773 278.61 192.061 278.787 191.189L280.207 184.223C280.388 183.35 279.835 182.639 278.981 182.639Z" fill="#122344"/>
<path fill-rule="evenodd" clip-rule="evenodd" d="M283.062 167.669H278.647C277.052 167.669 275.476 169.003 275.143 170.632L272.486 183.675C272.155 185.305 273.189 186.637 274.784 186.637H279.198C280.793 186.637 282.37 185.305 282.701 183.675L285.359 170.632C285.69 169.001 284.657 167.669 283.062 167.669Z" fill="#122344"/>
<path fill-rule="evenodd" clip-rule="evenodd" d="M357.474 163.043H298.741C297.528 163.043 296.331 164.055 296.079 165.294L288.733 201.333C288.478 202.574 289.266 203.585 290.479 203.585H349.212C350.425 203.585 351.622 202.572 351.874 201.333L359.22 165.294C359.472 164.055 358.689 163.043 357.474 163.043Z" fill="#122344"/>
<path fill-rule="evenodd" clip-rule="evenodd" d="M313.668 222.218C312.577 222.218 310.852 222.5 310.852 221.389C310.852 220.276 311.732 219.371 312.824 219.371L352 219.373C353.174 219.354 359.598 219.597 360.121 227.36C360.296 229.941 361.358 238.035 362.567 246.775C363.74 255.278 365.121 264.852 365.89 270.178C366.106 271.66 366.235 273.175 366.235 274.656C366.235 277.693 365.7 280.651 364.297 283.043C362.81 285.585 360.421 287.418 356.798 287.966C356.077 288.075 355.318 288.133 354.519 288.133H312.618C311.528 288.133 310.642 287.23 310.642 286.117C310.642 285.003 312.454 285.463 313.546 285.463L320.608 284.098C321.231 284.098 321.801 284.057 322.315 283.981C324.621 283.63 326.108 282.515 327.011 280.977C327.998 279.29 328.375 277.039 328.375 274.654C328.375 273.359 328.264 272.039 328.079 270.759C327.344 265.683 325.561 256.397 324.308 247.323C323.089 238.491 322.013 230.298 321.831 227.624C321.552 223.5 318.339 223.381 317.786 223.391C317.719 223.399 317.65 223.401 317.58 223.401L313.668 222.218Z" fill="#122344"/>
<path fill-rule="evenodd" clip-rule="evenodd" d="M310.706 223.406C309.616 223.406 308.733 222.503 308.733 221.392C308.733 220.279 309.618 219.374 310.706 219.374L314.713 219.376C315.887 219.357 322.311 219.6 322.834 227.363C323.009 229.944 324.071 238.038 325.28 246.778C326.453 255.281 327.834 264.855 328.603 270.181C328.819 271.663 328.946 273.178 328.946 274.659C328.946 277.696 328.413 280.654 327.012 283.046C325.522 285.588 323.134 287.421 319.509 287.969C318.79 288.078 318.031 288.136 317.232 288.136H291C289.91 288.136 289.027 287.233 289.027 286.12C289.027 285.006 289.912 284.101 291 284.101H317.232C317.856 284.101 318.425 284.06 318.938 283.984C321.245 283.633 322.733 282.518 323.633 280.98C324.622 279.293 325 277.042 325 274.657C325 273.362 324.887 272.042 324.701 270.762C323.966 265.686 322.63 256.4 321.378 247.326C320.157 238.494 319.081 230.301 318.899 227.627C318.621 223.503 315.407 223.384 314.854 223.394C314.785 223.402 314.719 223.404 314.648 223.404H310.706V223.406Z" fill="#2C3E73"/>
<path fill-rule="evenodd" clip-rule="evenodd" d="M461.967 298.922H7.84379C3.52928 298.922 0 301.639 0 304.961C0 308.282 3.52928 311 7.84379 311H461.967C466.28 311 469.808 308.283 469.808 304.962C469.806 301.64 466.28 298.922 461.967 298.922Z" fill="#906061"/>
</svg>
