<svg width="29" height="35" viewBox="0 0 29 35" fill="none" xmlns="http://www.w3.org/2000/svg">
<path fill-rule="evenodd" clip-rule="evenodd" d="M4.83333 9.41716C4.83333 6.91958 5.85178 4.52428 7.66464 2.75822C9.47749 0.992163 11.9362 0 14.5 0C17.0638 0 19.5225 0.992163 21.3354 2.75822C23.1482 4.52428 24.1667 6.91958 24.1667 9.41716H25.7778C26.6324 9.41716 27.452 9.74789 28.0562 10.3366C28.6605 10.9253 29 11.7237 29 12.5562V28.2515C29 29.084 28.6605 29.8825 28.0562 30.4711C27.452 31.0598 26.6324 31.3905 25.7778 31.3905H3.22222C2.36764 31.3905 1.54805 31.0598 0.943767 30.4711C0.339483 29.8825 0 29.084 0 28.2515V12.5562C0 11.7237 0.339483 10.9253 0.943767 10.3366C1.54805 9.74789 2.36764 9.41716 3.22222 9.41716H4.83333ZM14.5 3.13905C16.2092 3.13905 17.8483 3.8005 19.0569 4.97787C20.2655 6.15524 20.9444 7.75211 20.9444 9.41716H8.05556C8.05556 7.75211 8.73452 6.15524 9.94309 4.97787C11.1517 3.8005 12.7908 3.13905 14.5 3.13905ZM17.7222 18.8343C17.7222 19.3853 17.5733 19.9266 17.2905 20.4038C17.0077 20.881 16.6009 21.2772 16.1111 21.5528V23.5429C16.1111 23.9592 15.9414 24.3584 15.6392 24.6527C15.3371 24.9471 14.9273 25.1124 14.5 25.1124C14.0727 25.1124 13.6629 24.9471 13.3608 24.6527C13.0586 24.3584 12.8889 23.9592 12.8889 23.5429V21.5528C12.2746 21.2072 11.7946 20.6739 11.5232 20.0355C11.2517 19.3971 11.2041 18.6893 11.3877 18.0219C11.5713 17.3544 11.9758 16.7646 12.5385 16.344C13.1012 15.9233 13.7907 15.6953 14.5 15.6953C15.3546 15.6953 16.1742 16.026 16.7785 16.6147C17.3827 17.2034 17.7222 18.0018 17.7222 18.8343Z" fill="black"/>
</svg>
