<svg width="33" height="32" viewBox="0 0 33 32" fill="none" xmlns="http://www.w3.org/2000/svg">
<path d="M1.83455 29.9999L0.12962 29.2599C0.00779851 29.5943 -0.0290703 29.9583 0.0228998 30.3137C0.0748699 30.669 0.213754 31.0025 0.424912 31.2789C0.63607 31.5553 0.911678 31.7645 1.22269 31.8844C1.53369 32.0042 1.86858 32.0303 2.19204 31.9599L1.83455 29.9999ZM10.4619 28.1279L11.3308 26.3659L10.7497 26.0259L10.1044 26.1659L10.4619 28.1279ZM4.81177 21.8339L6.5167 22.5739L6.81553 21.7459L6.45621 20.9479L4.81177 21.8339ZM29.3335 15.9999C29.3335 22.4919 24.1032 27.9999 17.3623 27.9999V31.9999C25.8704 31.9999 33 24.9719 33 15.9999H29.3335ZM5.39291 15.9999C5.39291 9.50796 10.625 3.99998 17.3641 3.99998V0C8.85594 0 1.72456 7.02797 1.72456 15.9999H5.39291ZM17.3641 3.99998C24.1032 3.99998 29.3335 9.50796 29.3335 15.9999H33C33 7.02797 25.8723 0 17.3641 0V3.99998ZM17.3623 27.9999C15.1532 27.9999 13.0963 27.3999 11.3308 26.3659L9.59292 29.8879C11.9823 31.2853 14.6513 32.0111 17.3623 31.9999V27.9999ZM2.19204 31.9599L10.8194 30.0879L10.1044 26.1659L1.47707 28.0379L2.19204 31.9619V31.9599ZM6.45621 20.9479C5.75829 19.4094 5.39569 17.7165 5.39291 15.9999H1.72456C1.72456 18.3999 2.24154 20.6759 3.1655 22.7199L6.45621 20.9479ZM3.10867 21.0939L0.12962 29.2619L3.53582 30.7379L6.51304 22.5719L3.10684 21.0939H3.10867Z" fill="#2D7B67"/>
<path d="M11.001 17.9999C12.0135 17.9999 12.8342 17.1045 12.8342 15.9999C12.8342 14.8954 12.0135 13.9999 11.001 13.9999C9.9885 13.9999 9.16772 14.8954 9.16772 15.9999C9.16772 17.1045 9.9885 17.9999 11.001 17.9999Z" fill="#2D7B67"/>
<path d="M17.4172 17.9999C18.4297 17.9999 19.2505 17.1045 19.2505 15.9999C19.2505 14.8954 18.4297 13.9999 17.4172 13.9999C16.4048 13.9999 15.584 14.8954 15.584 15.9999C15.584 17.1045 16.4048 17.9999 17.4172 17.9999Z" fill="#2D7B67"/>
<path d="M23.8337 17.9999C24.8462 17.9999 25.667 17.1045 25.667 15.9999C25.667 14.8954 24.8462 13.9999 23.8337 13.9999C22.8213 13.9999 22.0005 14.8954 22.0005 15.9999C22.0005 17.1045 22.8213 17.9999 23.8337 17.9999Z" fill="#2D7B67"/>
</svg>
