<svg width="31" height="41" viewBox="0 0 31 41" fill="none" xmlns="http://www.w3.org/2000/svg">
<path fill-rule="evenodd" clip-rule="evenodd" d="M17.6508 2.51021C17.6508 1.97707 17.439 1.46576 17.062 1.08878C16.6851 0.711789 16.1738 0.5 15.6406 0.5C15.1075 0.5 14.5962 0.711789 14.2192 1.08878C13.8422 1.46576 13.6304 1.97707 13.6304 2.51021V4.01787H12.5107C10.3558 4.01773 8.28189 4.83883 6.7111 6.31401C5.14031 7.78919 4.19077 9.80755 4.05577 11.9582L3.61151 19.0623C3.43977 21.7705 2.53051 24.3801 0.982152 26.6086C0.661791 27.0691 0.466045 27.6046 0.413951 28.1632C0.361857 28.7217 0.455188 29.2842 0.684867 29.7959C0.914546 30.3077 1.27276 30.7513 1.72466 31.0837C2.17656 31.416 2.70678 31.6257 3.26374 31.6925L10.1125 32.5126V34.6736C10.1125 36.1397 10.695 37.5458 11.7317 38.5825C12.7684 39.6193 14.1745 40.2017 15.6406 40.2017C17.1068 40.2017 18.5128 39.6193 19.5496 38.5825C20.5863 37.5458 21.1687 36.1397 21.1687 34.6736V32.5126L28.0175 31.6904C28.5741 31.6235 29.104 31.4138 29.5556 31.0816C30.0072 30.7494 30.3652 30.306 30.5949 29.7945C30.8245 29.2831 30.9179 28.7209 30.8661 28.1627C30.8143 27.6044 30.6189 27.0691 30.2991 26.6086C28.7507 24.3801 27.8415 21.7705 27.6697 19.0623L27.2255 11.9602C27.091 9.80921 26.1416 7.79034 24.5708 6.31474C22.9999 4.83914 20.9257 4.01776 18.7705 4.01787H17.6508V2.51021ZM13.1278 34.6736C13.1278 35.34 13.3926 35.9792 13.8638 36.4504C14.3351 36.9216 14.9742 37.1864 15.6406 37.1864C16.307 37.1864 16.9462 36.9216 17.4174 36.4504C17.8886 35.9792 18.1534 35.34 18.1534 34.6736V33.1659H13.1278V34.6736Z" fill="#2D7B67"/>
</svg>
