<svg width="30" height="32" viewBox="0 0 30 32" fill="none" xmlns="http://www.w3.org/2000/svg">
<path d="M6.94426 0C7.95535 0 8.92502 0.337142 9.63997 0.937258C10.3549 1.53737 10.7566 2.35131 10.7566 3.2C10.7566 4.04869 10.3549 4.86263 9.63997 5.46274C8.92502 6.06286 7.95535 6.4 6.94426 6.4C5.93317 6.4 4.96349 6.06286 4.24854 5.46274C3.5336 4.86263 3.13194 4.04869 3.13194 3.2C3.13194 2.35131 3.5336 1.53737 4.24854 0.937258C4.96349 0.337142 5.93317 0 6.94426 0ZM4.08502 8H9.8035C10.8146 8 11.7843 8.33714 12.4992 8.93726C13.2142 9.53738 13.6158 10.3513 13.6158 11.2V20H10.7566V32H3.13194V20H0.272705V11.2C0.272705 10.3513 0.674359 9.53738 1.38931 8.93726C2.10425 8.33714 3.07393 8 4.08502 8ZM20.2874 16C20.2874 15.1513 20.689 14.3374 21.404 13.7373C22.1189 13.1371 23.0886 12.8 24.0997 12.8C25.1108 12.8 26.0805 13.1371 26.7954 13.7373C27.5103 14.3374 27.912 15.1513 27.912 16C27.912 16.8487 27.5103 17.6626 26.7954 18.2627C26.0805 18.8629 25.1108 19.2 24.0997 19.2C23.0886 19.2 22.1189 18.8629 21.404 18.2627C20.689 17.6626 20.2874 16.8487 20.2874 16ZM18.3812 20.8H29.8182V27.2H26.9589V32H21.2404V27.2H18.3812V20.8Z" fill="#2D7B67"/>
</svg>
