<svg width="38" height="45" viewBox="0 0 38 45" fill="none" xmlns="http://www.w3.org/2000/svg">
<path d="M11.4095 3.48291C13.8488 2.69529 16.255 3.77706 17.1078 5.66319L17.1861 5.84847L18.6796 9.70029L18.6795 9.70127C19.2318 11.1292 18.8698 12.7984 17.6568 14.0268L17.4035 14.2658L17.4025 14.2668L13.4613 17.7361L12.1975 18.8493L12.6463 20.3969C13.182 22.243 13.9457 24.0077 14.9199 25.6557L14.9331 25.6787L14.9473 25.7015C15.9714 27.3456 17.2131 28.8459 18.6414 30.168L19.6654 31.1158L21.0521 30.6575L26.1014 28.9875C27.9157 28.3869 29.8213 28.8116 31.0187 29.952L31.2482 30.189L34.0455 33.3281L34.0521 33.3356C34.7577 34.1204 35.0816 35.132 34.9903 36.1542C34.8988 37.1775 34.3937 38.178 33.5401 38.9332L33.5342 38.9383L33.5292 38.9433C29.5539 42.4995 23.9086 43.6791 19.8107 41.0433L19.42 40.7765C15.2775 37.7824 11.7608 34.099 9.02139 29.8942L8.48393 29.0466L8.48017 29.0389L7.9643 28.1847C5.60998 24.1692 4.00421 19.769 3.21094 15.1675L3.05356 14.1793C2.41577 9.71563 5.76893 5.50047 10.905 3.65457L11.4076 3.48298L11.4095 3.48291Z" fill="#D9D9D9" stroke="#2D7B67" stroke-width="5"/>
</svg>
