<svg width="749" height="666" viewBox="0 0 749 666" fill="none" xmlns="http://www.w3.org/2000/svg">
<path d="M112.591 660.506C85.5977 660.506 63.7168 638.624 63.7168 611.632V574.777H161.465V611.632C161.465 638.624 139.582 660.506 112.591 660.506Z" fill="#2C3E50"/>
<path d="M112.59 661.277C85.2162 661.277 62.9453 639.006 62.9453 611.632V574.006H162.235V611.632C162.235 639.004 139.964 661.277 112.59 661.277ZM64.487 575.546V611.63C64.487 638.155 86.0657 659.733 112.59 659.733C139.114 659.733 160.693 638.155 160.693 611.63V575.546H64.487Z" fill="#C8D6E5"/>
<path d="M54.8394 497.193C54.4232 498.242 53.8219 499.151 53.0511 499.907C52.3419 500.6 51.5248 501.14 50.5998 501.525C50.2144 501.71 49.8136 501.849 49.3819 501.957C45.7898 502.975 40.9798 502.188 35.6919 499.876C31.2057 497.933 26.3648 494.896 21.6319 490.934C19.7511 489.362 17.8702 487.635 16.0511 485.77C2.12981 471.586 -3.88269 454.905 2.62314 448.523C3.30148 447.845 4.10315 447.32 4.99731 446.92C12.5977 443.543 27.1665 449.957 39.6232 462.645C40.9798 464.032 42.2748 465.45 43.4773 466.869C47.9327 472.126 51.2936 477.552 53.3594 482.532C55.749 488.344 56.3657 493.557 54.8394 497.193Z" fill="#8BC34A"/>
<path d="M55.3628 513.413C53.3586 518.099 45.5423 519.441 36.4928 517.159C35.2132 516.851 33.9182 516.465 32.5923 515.972C31.729 515.679 30.8657 515.34 29.9869 514.97C18.4398 510.052 11.0552 501.388 13.5219 495.606C14.6473 492.97 17.6228 491.398 21.6311 490.935C26.2098 490.396 32.1298 491.305 38.1578 493.756C38.4044 493.849 38.6357 493.941 38.8823 494.049C39.1136 494.142 39.3294 494.25 39.5607 494.358C44.0007 496.316 47.7932 498.844 50.599 501.526C51.6474 502.513 52.5569 503.546 53.2969 504.564C54.3607 506.013 55.1161 507.462 55.5169 508.849C55.9794 510.468 55.9486 512.025 55.3628 513.413Z" fill="#8BC34A"/>
<path d="M90.0208 530.556C89.8204 532.298 89.1729 533.932 88.1708 535.428C87.4925 536.43 86.6599 537.37 85.6733 538.249C83.5766 540.099 80.8479 541.61 77.6412 542.75C76.5004 543.151 75.2824 543.506 74.0183 543.814C69.0541 545.001 63.3037 545.34 57.2449 544.616C40.302 542.612 27.5062 533.053 28.6624 523.279C28.9862 520.535 30.3737 518.068 32.5937 515.972C33.457 515.155 34.4437 514.399 35.5537 513.69C40.4562 510.591 47.5478 508.788 55.5183 508.849C57.3374 508.865 59.2029 508.973 61.0991 509.188C61.1145 509.188 61.1145 509.188 61.1145 509.188C61.2224 509.188 61.3458 509.204 61.4537 509.219C61.8391 509.265 62.2245 509.312 62.5945 509.373C72.0604 510.684 80.1387 514.368 85.0412 519.101C88.6179 522.538 90.4987 526.531 90.0208 530.556Z" fill="#8BC34A"/>
<path d="M96.6653 522C96.5728 522.354 96.4803 522.694 96.3724 523.017C94.6457 528.691 91.7782 533.1 88.1707 535.428C86.6598 536.414 85.0103 537.016 83.2682 537.185C73.8178 538.141 64.8298 526.101 62.6869 510.021C62.6561 509.805 62.6253 509.589 62.5944 509.374C62.5482 508.988 62.5173 508.603 62.4711 508.217C62.3323 506.691 62.2398 505.18 62.2244 503.685C62.1011 495.314 63.9973 487.821 67.2503 482.703C68.9153 480.082 70.9194 478.093 73.2011 476.891C74.4344 476.243 75.7603 475.842 77.1478 475.704C86.9528 474.732 96.2644 487.698 97.9448 504.687C98.5769 510.975 98.0682 516.943 96.6653 522Z" fill="#8BC34A"/>
<path d="M47.194 484.042C52.9105 498.224 63.1271 507.471 70.0122 504.694C76.8988 501.919 77.847 488.172 72.1289 473.99C66.4124 459.808 56.1958 450.562 49.3107 453.338C42.4256 456.113 41.4775 469.86 47.194 484.042Z" fill="#8BC34A"/>
<path d="M96.5112 521.967C96.4649 522.322 96.4341 522.677 96.3724 523.016C95.7095 527.548 93.952 531.742 91.0537 535.241C90.5449 535.842 90.0054 536.428 89.4349 536.999C85.7966 540.575 81.2178 542.734 76.2383 543.535C75.5137 543.659 74.7583 543.751 74.0183 543.813C64.5216 544.568 53.9458 540.637 45.852 532.374C41.3812 527.826 38.2516 522.553 36.4941 517.157C36.1241 516.001 35.8003 514.845 35.5537 513.689C34.5207 508.956 34.5516 504.223 35.6924 499.875C36.2474 497.717 37.0645 495.666 38.1591 493.755C38.2362 493.616 38.3133 493.477 38.4058 493.339C39.4078 491.658 40.6258 490.101 42.0595 488.698C43.6937 487.095 45.5283 485.769 47.4862 484.751C49.3362 483.749 51.3095 483.025 53.3599 482.531C57.7383 481.499 62.502 481.56 67.2503 482.701C69.9945 483.349 72.7387 484.366 75.3903 485.738C79.0441 487.604 82.5283 490.147 85.6424 493.323C93.8287 501.665 97.5595 512.441 96.5112 521.967Z" fill="#8BC34A"/>
<path d="M96.6649 522.001C96.5724 522.356 96.4799 522.695 96.3719 523.019C95.709 527.551 93.9515 531.744 91.0532 535.244C89.2649 536.246 87.4611 537.248 85.6728 538.25C82.9903 539.746 80.3232 541.257 77.6407 542.752C77.1782 543.014 76.7003 543.276 76.2378 543.538C75.5132 543.662 74.7578 543.754 74.0178 543.816C69.0536 545.003 63.3032 545.342 57.2444 544.617C40.3015 542.613 27.5057 533.055 28.6619 523.281C28.9857 520.536 30.3732 518.07 32.5932 515.973C31.7298 515.68 30.8665 515.341 29.9877 514.971C18.4407 510.053 11.0561 501.389 13.5227 495.608C14.6481 492.972 17.6236 491.399 21.6319 490.937C19.7511 489.364 17.8702 487.637 16.0511 485.772C2.12981 471.589 -3.88269 454.908 2.62314 448.525C3.30148 447.847 4.10315 447.323 4.99731 446.922C10.8556 460.396 21.0615 478.064 38.4052 493.342C38.7907 493.681 39.1761 494.02 39.5615 494.359C42.614 496.964 45.8823 499.524 49.3819 501.959C50.384 502.653 51.4015 503.347 52.4498 504.025C52.7273 504.21 53.0203 504.395 53.2978 504.565C55.9186 506.245 58.524 507.787 61.0986 509.19C61.114 509.19 61.114 509.19 61.114 509.19C61.6382 509.483 62.1623 509.76 62.6865 510.022C70.4873 514.123 78.0723 517.022 85.0407 519.103C89.0953 520.321 92.9494 521.261 96.5107 521.97C96.5569 521.986 96.6186 521.986 96.6649 522.001Z" fill="#8BC34A"/>
<path d="M96.5971 575.61C95.965 562.292 93.3133 549.391 88.716 537.271C72.1107 493.481 35.0074 471.011 14.3691 461.513L15.0136 460.113C35.8661 469.709 73.358 492.42 90.1575 536.722C94.8133 548.997 97.4974 562.056 98.1372 575.538L96.5971 575.61Z" fill="#8BC34A"/>
<path d="M69.2238 403.679C68.6534 404.696 67.8979 405.544 66.9884 406.222C66.1559 406.839 65.2309 407.286 64.2288 407.564C60.4054 408.643 55.3642 407.409 49.9529 404.311C49.6446 404.141 49.3517 403.956 49.0433 403.771C44.665 401.135 40.0863 397.311 35.7542 392.548C34.0275 390.651 32.3317 388.616 30.7129 386.443C18.3025 369.824 14.4329 351.724 22.0488 346.036C22.2646 345.881 22.4804 345.727 22.6963 345.589C30.5742 340.84 46.2529 349.659 58.3242 365.831C59.5421 367.449 60.6675 369.084 61.7004 370.718C65.6009 376.792 68.3296 382.881 69.7479 388.324C71.3975 394.66 71.305 400.116 69.2238 403.679Z" fill="#C8D6E5"/>
<path d="M67.7907 419.927C67.7136 420.128 67.6057 420.328 67.4977 420.513C64.7844 425.076 56.5057 425.369 47.4715 421.762C46.1919 421.253 44.8815 420.667 43.5865 419.989C42.7386 419.557 41.8907 419.095 41.0427 418.586C29.7886 411.88 23.3752 401.89 26.7206 396.263C28.2469 393.688 31.5461 392.486 35.7548 392.547C37.4044 392.578 39.2236 392.809 41.1198 393.241C44.6965 394.043 48.6123 395.569 52.4665 397.789C52.6977 397.912 52.9444 398.051 53.1757 398.19C57.7852 400.934 61.5777 404.233 64.2294 407.563C66.4957 410.4 67.9294 413.267 68.284 415.811C68.4998 417.322 68.3611 418.711 67.7907 419.927Z" fill="#C8D6E5"/>
<path d="M100.952 443.097C100.489 444.854 99.6105 446.442 98.3771 447.845C95.1396 451.514 89.4509 453.873 82.5596 454.551C77.2563 455.091 71.2438 454.628 65.0771 453.04C47.8413 448.6 35.9396 436.93 38.5142 426.986C39.2388 424.196 41.0117 421.837 43.5863 419.987C44.5884 419.247 45.7292 418.6 46.9779 418.029C50.9554 416.21 56.0121 415.254 61.6238 415.3C63.7667 415.316 66.0021 415.485 68.2838 415.809C70.288 416.087 72.323 416.503 74.3734 417.027C74.7742 417.135 75.175 417.243 75.5605 417.351C87.755 420.789 97.0667 427.819 100.181 435.157C101.306 437.826 101.615 440.524 100.952 443.097Z" fill="#C8D6E5"/>
<path d="M75.5804 416.134C74.9514 433.928 82.763 448.648 93.0274 449.01C103.293 449.374 112.126 435.243 112.755 417.449C113.384 399.655 105.572 384.936 95.3076 384.573C85.0416 384.209 76.2109 398.34 75.5804 416.134Z" fill="#C8D6E5"/>
<path d="M63.1652 389.005C67.0918 404.47 76.3634 415.46 83.8713 413.553C91.3808 411.646 94.2837 397.564 90.3571 382.098C86.4305 366.634 77.1589 355.642 69.6494 357.549C62.14 359.456 59.237 373.539 63.1652 389.005Z" fill="#C8D6E5"/>
<path d="M108.536 436.267C108.459 436.575 108.367 436.884 108.259 437.177C106.64 442.141 103.68 446.488 99.4403 449.664C94.5532 453.318 88.6486 454.89 82.5591 454.551C72.6461 454.027 62.2399 448.477 55.0095 438.795C51.032 433.477 48.5345 427.588 47.4707 421.76C47.2395 420.511 47.0699 419.263 46.9774 418.029C46.5765 412.988 47.2703 408.085 49.0432 403.769C49.0895 403.661 49.1357 403.553 49.182 403.46C50.0299 401.425 51.1245 399.514 52.4657 397.787C53.807 396.03 55.3795 394.457 57.1986 393.1C59.1103 391.667 61.1915 390.572 63.3653 389.77C65.4157 389.015 67.5586 388.537 69.7478 388.321C74.4345 387.843 79.3524 388.583 84.1007 390.418C86.8449 391.482 89.5428 392.915 92.0866 394.704C95.6016 397.155 98.8545 400.269 101.629 403.985C109.199 414.144 111.45 426.339 108.536 436.267Z" fill="#C8D6E5"/>
<path d="M108.259 437.178C106.64 442.143 103.68 446.49 99.4405 449.666C94.5534 453.32 88.6488 454.892 82.5592 454.553C77.2559 455.093 71.2434 454.63 65.0767 453.042C47.8408 448.602 35.9392 436.932 38.5138 426.988C39.2383 424.197 41.0113 421.839 43.5858 419.989C42.7379 419.557 41.89 419.095 41.0421 418.586C29.7879 411.88 23.3746 401.89 26.72 396.262C28.2463 393.688 31.5454 392.485 35.7542 392.547C34.0275 390.651 32.3317 388.616 30.7129 386.442C18.3025 369.823 14.4329 351.724 22.0488 346.035C22.2646 345.881 22.4804 345.727 22.6963 345.588C24.1146 355.917 28.2154 374.617 41.1192 393.241C43.4933 396.663 46.1604 400.086 49.1821 403.462C49.4288 403.74 49.6754 404.032 49.9529 404.31C50.2613 404.665 50.585 405.004 50.9088 405.358C54.3775 409.074 57.9696 412.373 61.6234 415.302C63.6584 416.967 65.7242 418.493 67.79 419.927C70.5188 421.823 73.2629 423.535 75.9917 425.061C84.5325 429.902 92.873 433.078 100.18 435.159C103.002 435.976 105.653 436.623 108.12 437.147C108.166 437.164 108.213 437.164 108.259 437.178Z" fill="#C8D6E5"/>
<path d="M106.935 574.94L105.429 574.609C111.161 548.619 117.126 496.842 92.6578 442.087C80.1718 414.143 61.8568 389.639 38.2246 369.258L39.2313 368.09C63.0362 388.62 81.4853 413.305 94.0638 441.458C118.714 496.617 112.709 548.764 106.935 574.94Z" fill="#C8D6E5"/>
<path d="M196.734 485.772C194.915 487.638 193.034 489.365 191.154 490.937C186.436 494.884 181.595 497.921 177.109 499.879H177.094C171.189 502.453 165.87 503.132 162.186 501.528C161.261 501.143 160.444 500.603 159.734 499.91C158.964 499.154 158.362 498.245 157.946 497.196C156.42 493.558 157.037 488.347 159.426 482.535C160.459 480.037 161.816 477.432 163.481 474.796C165.13 472.16 167.088 469.492 169.308 466.872C170.511 465.453 171.806 464.035 173.162 462.647C187.084 448.464 203.657 442.128 210.162 448.526C210.979 449.327 211.596 450.283 212.012 451.393C215.034 459.054 208.914 473.361 196.734 485.772Z" fill="#C8D6E5"/>
<path d="M173.899 494.053C162.346 498.968 154.972 507.635 157.429 513.412C159.887 519.188 171.244 519.887 182.798 514.972C194.351 510.057 201.725 501.39 199.267 495.613C196.811 489.837 185.452 489.138 173.899 494.053Z" fill="#C8D6E5"/>
<path d="M151.34 509.218C134.396 511.23 121.602 520.785 122.763 530.561C123.923 540.337 138.6 546.63 155.545 544.618C172.489 542.606 185.283 533.051 184.124 523.275C182.962 513.501 168.285 507.206 151.34 509.218Z" fill="#C8D6E5"/>
<path d="M150.561 503.687C150.546 505.167 150.469 506.678 150.315 508.219C150.284 508.605 150.237 508.99 150.191 509.375C148.387 524.268 140.725 535.831 132.154 537.11C131.29 537.249 130.396 537.28 129.517 537.187C127.76 537.018 126.11 536.401 124.599 535.414C120.992 533.086 118.14 528.662 116.413 523.004C114.794 517.731 114.178 511.41 114.841 504.689C116.537 487.7 125.833 474.734 135.638 475.705C137.025 475.844 138.351 476.245 139.584 476.893C141.866 478.095 143.87 480.084 145.535 482.705C146.707 484.539 147.709 486.682 148.48 489.072C149.898 493.31 150.654 498.32 150.561 503.687Z" fill="#C8D6E5"/>
<path d="M169.307 466.871C169.307 468.166 169.215 469.538 169.03 470.941C168.567 475.042 167.411 479.513 165.592 484.046C165.499 484.277 165.407 484.508 165.299 484.739C163.264 489.596 160.72 493.851 157.945 497.196C155.571 500.094 153.043 502.33 150.561 503.686C147.786 505.213 145.088 505.644 142.775 504.704C141.712 504.272 140.787 503.578 140.016 502.669C137.179 499.354 136.269 493.095 137.395 485.741C137.796 482.92 138.536 479.929 139.584 476.892C139.892 475.936 140.262 474.965 140.648 473.994C146.367 459.811 156.589 450.561 163.48 453.336C167.411 454.923 169.4 460.088 169.307 466.871Z" fill="#C8D6E5"/>
<path d="M177.231 513.707C176.984 514.863 176.676 516.02 176.291 517.16C174.533 522.556 171.404 527.829 166.933 532.377C158.839 540.64 148.263 544.571 138.767 543.816C136.454 543.631 134.219 543.168 132.091 542.413C128.838 541.272 125.878 539.468 123.35 537.002C119.48 533.209 117.183 528.322 116.412 523.003C114.963 513.229 118.663 501.975 127.142 493.326C130.257 490.15 133.741 487.607 137.394 485.741C140.046 484.369 142.79 483.352 145.534 482.704C148.741 481.933 151.963 481.656 155.077 481.872C156.557 481.98 158.007 482.195 159.425 482.535C161.475 483.028 163.449 483.752 165.299 484.739C167.272 485.772 169.107 487.098 170.741 488.701C172.282 490.227 173.593 491.923 174.641 493.758C175.736 495.67 176.553 497.72 177.092 499.878H177.108C178.233 504.226 178.264 508.974 177.231 513.707Z" fill="#C8D6E5"/>
<path d="M212.012 451.391C199.756 455.924 183.537 461.582 169.03 470.94C167.15 472.158 165.284 473.437 163.48 474.794C160.551 476.968 157.73 479.311 155.078 481.87C152.735 484.106 150.53 486.495 148.48 489.07C147.802 489.918 147.139 490.796 146.491 491.691C143.917 495.236 141.789 498.921 140.016 502.667C138.305 506.275 136.933 509.944 135.854 513.613C133.449 521.676 132.431 529.739 132.154 537.108C132.107 538.588 132.077 540.053 132.077 541.471V541.486C132.077 541.795 132.077 542.103 132.092 542.411C128.839 541.271 125.879 539.467 123.351 537C119.481 533.208 117.184 528.321 116.413 523.002C114.794 517.729 114.178 511.408 114.841 504.687C116.537 487.698 125.833 474.732 135.638 475.703C137.025 475.842 138.351 476.243 139.584 476.891C139.893 475.935 140.263 474.963 140.648 473.992C146.368 459.809 156.589 450.559 163.48 453.334C167.412 454.922 169.4 460.086 169.308 466.87C170.51 465.451 171.805 464.033 173.162 462.646C187.083 448.462 203.656 442.126 210.162 448.524C210.979 449.325 211.596 450.281 212.012 451.391Z" fill="#C8D6E5"/>
<path d="M116.191 575.61L114.65 575.538C115.292 562.056 117.976 548.997 122.63 536.722C139.428 492.422 176.92 469.709 197.772 460.113L198.417 461.513C177.779 471.01 140.675 493.481 124.07 537.271C119.476 549.391 116.824 562.292 116.191 575.61Z" fill="#C8D6E5"/>
<path d="M699.484 474.834H520.65V658.292H699.484V474.834Z" fill="#2D7B67"/>
<path d="M738.026 658.293H48.9004V666.001H738.026V658.293Z" fill="#C8D6E5"/>
<path d="M518.446 658.055H251.284C229.273 658.055 211.428 640.21 211.428 618.198V102.829C211.428 80.8159 229.273 62.9727 251.284 62.9727H518.446C540.46 62.9727 558.304 80.8175 558.304 102.829V618.198C558.303 640.21 540.458 658.055 518.446 658.055Z" fill="#222F3E"/>
<path d="M499.577 632.833H271.603C249.591 632.833 231.746 614.988 231.746 592.975V127.405C231.746 105.392 249.591 87.5469 271.603 87.5469H499.577C521.59 87.5469 539.435 105.392 539.435 127.405V592.976C539.435 614.988 521.59 632.833 499.577 632.833Z" fill="white"/>
<path d="M452.628 113.846H317.105C302.164 113.846 290.055 101.734 290.055 86.7956V62.9707H479.68V86.7956C479.678 101.734 467.567 113.846 452.628 113.846Z" fill="#222F3E"/>
<path d="M408.761 182.827V282.91C408.761 289.649 403.302 295.108 396.563 295.108H254.645C247.956 295.045 242.559 289.613 242.559 282.91V182.827C242.559 176.088 248.018 170.629 254.756 170.629H396.563C403.302 170.629 408.761 176.088 408.761 182.827Z" fill="#C8D6E5"/>
<path d="M349.525 295.105H254.645L302.085 212.93L339.29 277.373L349.525 295.105Z" fill="#8395A7"/>
<path d="M396.12 295.106H329.055L339.291 277.374L362.588 237.02L396.12 295.106Z" fill="#B1BEC9"/>
<path d="M339.917 227.651C351.054 227.651 360.083 218.623 360.083 207.485C360.083 196.347 351.054 187.318 339.917 187.318C328.779 187.318 319.75 196.347 319.75 207.485C319.75 218.623 328.779 227.651 339.917 227.651Z" fill="#B1BEC9"/>
<path d="M516.406 333.949V383.737C516.406 387.089 513.689 389.805 510.338 389.805H439.737C436.409 389.774 433.725 387.072 433.725 383.737V333.949C433.725 330.597 436.441 327.881 439.793 327.881H510.338C513.691 327.881 516.406 330.596 516.406 333.949Z" fill="#C8D6E5"/>
<path d="M486.938 389.804H439.736L463.338 348.924L481.845 380.983L486.938 389.804Z" fill="#8395A7"/>
<path d="M510.117 389.805H476.754L481.846 380.984L493.435 360.908L510.117 389.805Z" fill="#B1BEC9"/>
<path d="M492.189 346.217C492.189 351.758 487.697 356.25 482.156 356.25C476.615 356.25 472.123 351.758 472.123 346.217C472.123 340.676 476.615 336.184 482.156 336.184C487.697 336.184 492.189 340.676 492.189 346.217Z" fill="#B1BEC9"/>
<path d="M517.949 423.365V473.153C517.949 476.505 515.232 479.221 511.881 479.221H441.28C437.952 479.19 435.268 476.488 435.268 473.153V423.365C435.268 420.013 437.984 417.297 441.336 417.297H511.881C515.234 417.297 517.949 420.012 517.949 423.365Z" fill="#C8D6E5"/>
<path d="M488.481 479.222H441.279L464.881 438.342L483.388 470.401L488.481 479.222Z" fill="#8395A7"/>
<path d="M511.66 479.221H478.297L483.389 470.4L494.978 450.324L511.66 479.221Z" fill="#B1BEC9"/>
<path d="M493.732 435.633C493.732 441.174 489.24 445.666 483.699 445.666C478.158 445.666 473.666 441.174 473.666 435.633C473.666 430.092 478.158 425.6 483.699 425.6C489.24 425.6 493.732 430.092 493.732 435.633Z" fill="#B1BEC9"/>
<path d="M406.635 340.471H249.012C246.135 340.471 243.803 338.139 243.803 335.262V334.889C243.803 332.012 246.135 329.68 249.012 329.68H406.635C409.512 329.68 411.844 332.012 411.844 334.889V335.262C411.844 338.139 409.512 340.471 406.635 340.471Z" fill="#C8D6E5"/>
<path d="M406.635 358.971H249.012C246.135 358.971 243.803 356.639 243.803 353.762V353.389C243.803 350.512 246.135 348.18 249.012 348.18H406.635C409.512 348.18 411.844 350.512 411.844 353.389V353.762C411.844 356.639 409.512 358.971 406.635 358.971Z" fill="#C8D6E5"/>
<path d="M361.928 377.471H250.553C247.676 377.471 245.344 375.139 245.344 372.262V371.889C245.344 369.012 247.676 366.68 250.553 366.68H361.928C364.804 366.68 367.137 369.012 367.137 371.889V372.262C367.137 375.139 364.804 377.471 361.928 377.471Z" fill="#C8D6E5"/>
<path d="M406.635 431.428H249.012C246.135 431.428 243.803 429.096 243.803 426.219V425.846C243.803 422.969 246.135 420.637 249.012 420.637H406.635C409.512 420.637 411.844 422.969 411.844 425.846V426.219C411.844 429.096 409.512 431.428 406.635 431.428Z" fill="#C8D6E5"/>
<path d="M361.928 449.928H250.553C247.676 449.928 245.344 447.596 245.344 444.719V444.346C245.344 441.469 247.676 439.137 250.553 439.137H361.928C364.804 439.137 367.137 441.469 367.137 444.346V444.719C367.137 447.596 364.804 449.928 361.928 449.928Z" fill="#C8D6E5"/>
<path d="M361.928 469.971H250.553C247.676 469.971 245.344 467.639 245.344 464.762V464.389C245.344 461.512 247.676 459.18 250.553 459.18H361.928C364.804 459.18 367.137 461.512 367.137 464.389V464.762C367.137 467.639 364.804 469.971 361.928 469.971Z" fill="#C8D6E5"/>
<path d="M350.762 513.137H508.385C511.262 513.137 513.594 510.805 513.594 507.928V507.555C513.594 504.678 511.262 502.346 508.385 502.346H350.762C347.885 502.346 345.553 504.678 345.553 507.555V507.928C345.553 510.805 347.885 513.137 350.762 513.137Z" fill="#C8D6E5"/>
<path d="M395.471 531.637H506.844C509.721 531.637 512.053 529.305 512.053 526.428V526.055C512.053 523.178 509.721 520.846 506.844 520.846H395.471C392.594 520.846 390.262 523.178 390.262 526.055V526.428C390.262 529.305 392.594 531.637 395.471 531.637Z" fill="#C8D6E5"/>
<path d="M395.471 551.678H506.844C509.721 551.678 512.053 549.346 512.053 546.469V546.096C512.053 543.219 509.721 540.887 506.844 540.887H395.471C392.594 540.887 390.262 543.219 390.262 546.096V546.469C390.262 549.346 392.594 551.678 395.471 551.678Z" fill="#C8D6E5"/>
<path d="M581.845 581.718L549.418 582.137L550.069 632.569L582.496 632.15L581.845 581.718Z" fill="#FAB1A0"/>
<path d="M582.129 615.651L549.603 601.465L549.52 589.708L582.197 589.418L582.129 615.651Z" fill="#FC928D"/>
<path d="M582.084 629.271V654.593H504.098C504.327 651.009 505.265 645.813 508.977 641.726C510.983 639.517 513.281 638.353 516.363 637.459C520.233 636.335 525.34 635.638 532.66 633.831C539.628 632.112 545.111 630.281 548.374 629.122C548.399 629.112 548.425 629.103 548.448 629.094L582.084 629.271Z" fill="#60A3BC"/>
<path d="M582.112 629.154H575.277V654.593H582.112V629.154Z" fill="#3C6382"/>
<path d="M567.257 629.162H548.785V613.531H551.626C560.26 613.531 567.257 620.529 567.257 629.162Z" fill="#60A3BC"/>
<path d="M504.173 658.903H582.006C583.03 658.903 583.859 657.949 583.859 656.771C583.859 655.593 583.03 654.639 582.006 654.639H504.173C503.15 654.639 502.32 655.593 502.32 656.771C502.32 657.949 503.15 658.903 504.173 658.903Z" fill="#3C6382"/>
<path d="M548.86 631.55C548.86 634.431 546.878 637.032 543.951 637.702L523.942 642.275C520.541 643.052 517.154 640.926 516.377 637.527C516.373 637.504 516.366 637.482 516.363 637.46C520.233 636.337 525.34 635.64 532.66 633.833C539.629 632.114 545.111 630.282 548.374 629.123C548.51 629.447 548.62 629.786 548.7 630.139C548.808 630.614 548.86 631.086 548.86 631.55Z" fill="#3C6382"/>
<path d="M521.688 636.215L525.465 641.93" stroke="#222F3E" stroke-width="0.5" stroke-miterlimit="10"/>
<path d="M527.238 635.076L530.914 640.685" stroke="#222F3E" stroke-width="0.5" stroke-miterlimit="10"/>
<path d="M532.553 633.859L536.228 639.468" stroke="#222F3E" stroke-width="0.5" stroke-miterlimit="10"/>
<path d="M537.412 632.646L541.089 638.255" stroke="#222F3E" stroke-width="0.5" stroke-miterlimit="10"/>
<path d="M542.273 631.127L545.949 636.736" stroke="#222F3E" stroke-width="0.5" stroke-miterlimit="10"/>
<path d="M582.189 630.746H578.695V624.368C578.695 622.44 580.259 620.875 582.189 620.875V630.746Z" fill="#3C6382"/>
<path d="M495.668 583.261L463.24 583.68L463.891 634.112L496.318 633.693L495.668 583.261Z" fill="#FAB1A0"/>
<path d="M495.949 617.194L463.423 603.008L463.34 591.251L496.017 590.961L495.949 617.194Z" fill="#FC928D"/>
<path d="M496.082 629.352V654.673H418.096C418.325 651.089 419.263 645.894 422.975 641.807C424.981 639.597 427.279 638.433 430.361 637.539C434.231 636.415 439.338 635.719 446.658 633.913C453.627 632.194 459.109 630.363 462.372 629.203C462.397 629.194 462.423 629.185 462.446 629.176L496.082 629.352Z" fill="#60A3BC"/>
<path d="M496.108 629.234H489.273V654.673H496.108V629.234Z" fill="#3C6382"/>
<path d="M481.254 629.242H462.781V613.611H465.624C474.256 613.611 481.254 620.609 481.254 629.242Z" fill="#60A3BC"/>
<path d="M418.169 658.985H496.002C497.026 658.985 497.855 658.031 497.855 656.853C497.855 655.675 497.026 654.721 496.002 654.721H418.169C417.146 654.721 416.316 655.675 416.316 656.853C416.316 658.031 417.146 658.985 418.169 658.985Z" fill="#3C6382"/>
<path d="M462.856 631.63C462.856 634.511 460.874 637.112 457.947 637.783L437.938 642.355C434.537 643.132 431.15 641.007 430.373 637.607C430.369 637.584 430.362 637.562 430.359 637.541C434.229 636.417 439.336 635.72 446.656 633.915C453.625 632.196 459.107 630.364 462.371 629.205C462.506 629.529 462.616 629.868 462.696 630.221C462.805 630.693 462.856 631.165 462.856 631.63Z" fill="#3C6382"/>
<path d="M435.684 636.293L439.459 642.008" stroke="#222F3E" stroke-width="0.5" stroke-miterlimit="10"/>
<path d="M441.232 635.154L444.909 640.761" stroke="#222F3E" stroke-width="0.5" stroke-miterlimit="10"/>
<path d="M446.547 633.939L450.224 639.546" stroke="#222F3E" stroke-width="0.5" stroke-miterlimit="10"/>
<path d="M451.408 632.725L455.084 638.333" stroke="#222F3E" stroke-width="0.5" stroke-miterlimit="10"/>
<path d="M456.268 631.205L459.943 636.814" stroke="#222F3E" stroke-width="0.5" stroke-miterlimit="10"/>
<path d="M496.185 630.826H492.691V624.448C492.691 622.52 494.255 620.955 496.185 620.955V630.826Z" fill="#3C6382"/>
<path d="M629.645 334.541H579.695V292.364C579.695 275.594 590.877 261.998 604.67 261.998C618.464 261.998 629.645 275.594 629.645 292.364V334.541Z" fill="#222F3E"/>
<path d="M613.512 289.585C611.723 293.494 613.046 297.932 616.466 299.497C619.885 301.062 624.108 299.162 625.898 295.253C627.686 291.344 626.365 286.906 622.944 285.341C619.523 283.776 615.3 285.676 613.512 289.585Z" fill="#F2C6C2"/>
<path d="M617.832 290.926C617.883 290.681 618.254 288.985 619.713 288.282C621.287 287.523 623.524 288.215 624.757 290.153" stroke="#222F3E" stroke-width="0.35" stroke-miterlimit="10"/>
<path d="M585.633 334.148H609.207V307.431H585.633V334.148Z" fill="#F2C6C2"/>
<path d="M609.206 307.432V322.768C606.906 322.858 601.666 322.821 596.053 320.507C589.732 317.901 586.692 313.958 585.633 312.41C585.633 310.751 585.633 309.09 585.633 307.432H609.206Z" fill="#FC928D"/>
<path d="M616.742 292.662C616.645 295.035 616.34 297.31 615.812 299.461C614.522 304.65 612.039 309.09 608.806 312.198C605.573 315.334 601.591 317.124 597.331 316.985C593.446 316.86 589.908 315.139 587.022 312.323C583.803 309.173 581.402 304.65 580.279 299.433C579.724 296.894 579.488 294.202 579.571 291.427C579.876 282.533 583.595 274.846 588.951 270.587C591.906 268.27 595.347 266.965 598.996 267.09C606.78 267.34 613.218 273.986 615.688 283.199C616.478 286.141 616.853 289.332 616.742 292.662Z" fill="#F2C6C2"/>
<path d="M610.22 263.386C615.584 263.386 619.933 259.038 619.933 253.673C619.933 248.309 615.584 243.961 610.22 243.961C604.856 243.961 600.508 248.309 600.508 253.673C600.508 259.038 604.856 263.386 610.22 263.386Z" fill="#222F3E"/>
<path d="M588.28 291.291C588.237 291.882 587.724 292.324 587.133 292.281C586.543 292.236 586.1 291.723 586.144 291.134C586.187 290.543 586.7 290.101 587.291 290.146C587.883 290.189 588.325 290.702 588.28 291.291Z" fill="#222F3E"/>
<path d="M604.706 292.51C604.661 293.1 604.148 293.543 603.559 293.5C602.969 293.455 602.526 292.942 602.569 292.353C602.614 291.762 603.126 291.32 603.716 291.364C604.307 291.406 604.749 291.919 604.706 292.51Z" fill="#222F3E"/>
<path d="M603.461 297.884C603.444 299.52 604.756 300.858 606.392 300.875C608.028 300.892 609.366 299.58 609.383 297.944C609.4 296.308 608.086 294.97 606.452 294.953C604.816 294.936 603.477 296.248 603.461 297.884Z" fill="#EE5253"/>
<path d="M581.748 297.663C581.731 299.299 583.043 300.637 584.679 300.654C586.315 300.671 587.653 299.359 587.67 297.723C587.687 296.088 586.375 294.75 584.739 294.733C583.103 294.716 581.765 296.028 581.748 297.663Z" fill="#EE5253"/>
<path d="M594.959 289.545V297.694H592.199L594.373 299.9" stroke="#222F3E" stroke-width="0.35" stroke-miterlimit="10"/>
<path d="M589.858 283.319C589.982 283.726 588.431 284.558 586.394 285.175C584.358 285.793 582.606 285.964 582.481 285.556C582.358 285.149 583.909 284.316 585.946 283.7C587.984 283.083 589.735 282.912 589.858 283.319Z" fill="#222F3E"/>
<path d="M600.983 283.319C600.86 283.726 602.411 284.558 604.448 285.175C606.484 285.793 608.235 285.964 608.36 285.556C608.484 285.149 606.933 284.316 604.896 283.7C602.858 283.083 601.107 282.912 600.983 283.319Z" fill="#222F3E"/>
<path d="M590.025 302.167C591.345 304.276 593.735 305.473 596.192 305.251C598.542 305.038 600.604 303.561 601.585 301.396" stroke="#222F3E" stroke-width="0.35" stroke-miterlimit="10"/>
<path d="M599.336 267.566C600.612 269.779 597.011 274.248 591.293 277.55C585.573 280.852 579.901 281.736 578.625 279.523C577.347 277.311 580.948 272.842 586.668 269.54C592.386 266.237 598.058 265.354 599.336 267.566Z" fill="#222F3E"/>
<path d="M597.123 267.566C595.845 269.779 599.446 274.248 605.166 277.55C610.885 280.852 616.557 281.736 617.834 279.523C619.11 277.311 615.509 272.842 609.791 269.54C604.071 266.237 598.399 265.354 597.123 267.566Z" fill="#222F3E"/>
<path d="M621.643 430.324C623.223 452.133 606.826 471.092 585.017 472.674L481.454 480.18C470.55 480.971 461.07 472.771 460.279 461.868C459.488 450.964 467.687 441.484 478.591 440.693L621.643 430.324Z" fill="#3C6382"/>
<path d="M637.278 440.987H556.109V346.274C556.109 336.896 563.711 329.293 573.091 329.293H620.298C629.676 329.293 637.28 336.895 637.28 346.274V440.987H637.278Z" fill="#2D7B67"/>
<path d="M640.996 435.482V441.962C640.996 460.249 626.999 475.072 609.732 475.072H534.597C524.274 475.072 515.906 466.209 515.906 455.277C515.906 444.345 524.274 435.482 534.597 435.482H640.996Z" fill="#60A3BC"/>
<path d="M587.718 592.74L537.501 600.902L515.408 464.967C513.154 451.1 522.569 438.033 536.434 435.779C550.302 433.525 563.369 442.94 565.623 456.805L587.718 592.74Z" fill="#60A3BC"/>
<path d="M548.562 331.787L484.721 384.335C479.856 388.34 479.159 395.53 483.163 400.394C487.168 405.26 494.358 405.957 499.222 401.953L563.064 349.405L548.562 331.787Z" fill="#F2C6C2"/>
<path d="M479.898 312.373C479.724 339.21 479.551 366.049 479.377 392.888C479.622 399.184 484.925 404.09 491.222 403.844C497.518 403.599 502.423 398.296 502.178 392C500.914 365.218 499.648 338.436 498.383 311.654C492.222 311.893 486.06 312.132 479.898 312.373Z" fill="#F2C6C2"/>
<path d="M525.246 345.238L547.781 372.615L569.802 354.49C577.362 348.268 578.446 337.094 572.224 329.535C566.002 321.975 554.828 320.891 547.269 327.113L525.246 345.238Z" fill="#2D7B67"/>
<path d="M641.443 342.727L676.741 417.499C679.432 423.197 676.993 429.997 671.295 432.687C665.597 435.378 658.796 432.939 656.106 427.241L620.807 352.468L641.443 342.727Z" fill="#F2C6C2"/>
<path d="M583.859 416.25C610.671 415.032 637.482 413.816 664.293 412.598C670.594 412.598 675.703 417.705 675.703 424.008C675.703 430.308 670.595 435.417 664.293 435.417C637.482 435.195 610.671 434.972 583.859 434.75C583.859 428.583 583.859 422.417 583.859 416.25Z" fill="#F2C6C2"/>
<path d="M656.784 364.844L624.718 379.981L612.542 354.191C608.363 345.337 612.152 334.77 621.006 330.589C629.86 326.41 640.426 330.199 644.607 339.053L656.784 364.844Z" fill="#2D7B67"/>
<path d="M583.859 416.25L545.277 435.66L583.859 434.75V416.25Z" fill="#F2C6C2"/>
<path d="M505.883 603.867H455.008V466.148C455.008 452.099 466.396 440.711 480.445 440.711C494.495 440.711 505.883 452.099 505.883 466.148V603.867Z" fill="#3C6382"/>
<path d="M549.521 467.125L575.278 594.763" stroke="white" stroke-width="0.8957" stroke-miterlimit="10"/>
<path d="M521.428 440.306H617.776C617.776 436.69 615.297 433.756 612.238 433.756H521.428V440.306Z" fill="#2C3E50"/>
<path d="M464.176 440.306H570.435C562.81 414.176 555.185 388.048 547.56 361.918C512.14 361.918 476.721 361.918 441.301 361.918C448.927 388.048 456.553 414.176 464.176 440.306Z" fill="#222F3E"/>
<path d="M489.307 404.162C489.307 410.507 494.451 415.652 500.797 415.652C507.142 415.652 512.287 410.507 512.287 404.162C512.287 397.816 507.142 392.672 500.797 392.672C494.451 392.672 489.307 397.816 489.307 404.162Z" fill="white"/>
<path d="M467.463 394.666C473.849 394.666 479.025 389.489 479.025 383.104C479.025 376.718 473.849 371.541 467.463 371.541C461.077 371.541 455.9 376.718 455.9 383.104C455.9 389.489 461.077 394.666 467.463 394.666Z" fill="#60A3BC"/>
<path d="M549.869 409.805L525.838 423.68L530.59 431.91L554.622 418.035L549.869 409.805Z" fill="#60A3BC"/>
<path d="M546.088 434.75C549.919 434.75 553.025 431.644 553.025 427.813C553.025 423.981 549.919 420.875 546.088 420.875C542.256 420.875 539.15 423.981 539.15 427.813C539.15 431.644 542.256 434.75 546.088 434.75Z" fill="#FF9F43"/>
<path d="M466.506 322.659L481.953 327.388C489.265 329.627 497.009 325.515 499.249 318.202C501.488 310.889 497.375 303.146 490.063 300.906L474.615 296.176L466.506 322.659Z" fill="#F2C6C2"/>
<path d="M481.952 327.388C489.264 329.627 497.008 325.515 499.248 318.202C501.486 310.889 497.373 303.146 490.061 300.906L474.613 296.176" stroke="#FC928D" stroke-width="0.5" stroke-miterlimit="10"/>
<path d="M453.006 296.824L477.147 304.216C478.98 304.778 480.922 303.746 481.483 301.913C482.045 300.08 481.013 298.138 479.18 297.576L455.039 290.184C453.206 289.623 451.264 290.654 450.702 292.487C450.14 294.322 451.171 296.263 453.006 296.824Z" fill="#F2C6C2"/>
<path d="M450.739 303.434L475.173 310.915C477.006 311.476 478.949 310.445 479.51 308.612C480.071 306.779 479.04 304.836 477.207 304.275L452.773 296.794C450.94 296.232 448.997 297.264 448.436 299.097C447.875 300.93 448.906 302.872 450.739 303.434Z" fill="#F2C6C2"/>
<path d="M447.807 309.734L473.159 317.497C474.994 318.058 476.935 317.026 477.496 315.193C478.057 313.36 477.026 311.418 475.193 310.857L449.84 303.094C448.007 302.533 446.064 303.565 445.503 305.398C444.941 307.231 445.972 309.173 447.807 309.734Z" fill="#F2C6C2"/>
<path d="M451.965 318.207L471.143 324.079C472.978 324.64 474.919 323.609 475.48 321.776C476.041 319.943 475.01 318 473.176 317.439L453.998 311.567C452.164 311.006 450.223 312.037 449.661 313.87C449.099 315.703 450.13 317.644 451.965 318.207Z" fill="#F2C6C2"/>
<path d="M454.32 297.268L470.793 302.31" stroke="#D89491" stroke-width="0.6718" stroke-miterlimit="10"/>
<path d="M453.15 304.609L469.623 309.654" stroke="#D89491" stroke-width="0.6718" stroke-miterlimit="10"/>
<path d="M453.328 311.648L469.801 316.691" stroke="#D89491" stroke-width="0.6718" stroke-miterlimit="10"/>
<path d="M476.722 302.266L471.332 320.343" stroke="#D89491" stroke-width="0.6718" stroke-miterlimit="10"/>
<path d="M447.26 334.841H476.78C479.213 334.841 481.184 332.869 481.184 330.437V273.49C481.184 271.058 479.213 269.086 476.78 269.086H447.26C444.827 269.086 442.855 271.058 442.855 273.49V330.437C442.855 332.869 444.827 334.841 447.26 334.841Z" fill="#222F3E"/>
<path d="M449.344 332.054H474.535C476.968 332.054 478.939 330.082 478.939 327.649V276.205C478.939 273.773 476.968 271.801 474.535 271.801H449.344C446.911 271.801 444.939 273.773 444.939 276.205V327.649C444.941 330.082 446.913 332.054 449.344 332.054Z" fill="white"/>
<path d="M454.533 274.706H469.508C471.16 274.706 472.498 273.368 472.498 271.717V269.084H451.545V271.717C451.545 273.368 452.883 274.706 454.533 274.706Z" fill="#222F3E"/>
<g opacity="0.35">
<path d="M446.943 282.158V293.216C446.943 293.961 447.546 294.564 448.291 294.564H463.973C464.711 294.556 465.308 293.956 465.308 293.216V282.158C465.308 281.413 464.705 280.811 463.96 280.811H448.291C447.546 280.811 446.943 281.413 446.943 282.158Z" fill="#C8D6E5"/>
<path d="M453.49 294.565H463.974L458.732 285.484L454.622 292.604L453.49 294.565Z" fill="#8395A7"/>
<path d="M448.34 294.566H455.751L454.621 292.605L452.046 288.146L448.34 294.566Z" fill="#B1BEC9"/>
<path d="M452.322 284.882C452.322 286.112 453.32 287.11 454.55 287.11C455.78 287.11 456.779 286.112 456.779 284.882C456.779 283.652 455.782 282.654 454.55 282.654C453.32 282.654 452.322 283.652 452.322 284.882Z" fill="#B1BEC9"/>
<path d="M447.484 299.026V304.528C447.484 304.898 447.785 305.199 448.155 305.199H455.956C456.323 305.196 456.62 304.897 456.62 304.528V299.026C456.62 298.656 456.32 298.355 455.95 298.355H448.155C447.785 298.355 447.484 298.656 447.484 299.026Z" fill="#C8D6E5"/>
<path d="M450.74 305.197H455.956L453.349 300.68L451.303 304.222L450.74 305.197Z" fill="#8395A7"/>
<path d="M448.18 305.197H451.866L451.303 304.222L450.023 302.004L448.18 305.197Z" fill="#B1BEC9"/>
<path d="M450.16 300.382C450.16 300.994 450.657 301.49 451.269 301.49C451.881 301.49 452.377 300.994 452.377 300.382C452.377 299.77 451.881 299.273 451.269 299.273C450.657 299.273 450.16 299.77 450.16 300.382Z" fill="#B1BEC9"/>
<path d="M447.314 308.907V314.408C447.314 314.778 447.615 315.078 447.985 315.078H455.786C456.153 315.075 456.45 314.776 456.45 314.408V308.907C456.45 308.537 456.15 308.236 455.78 308.236H447.985C447.614 308.236 447.314 308.535 447.314 308.907Z" fill="#C8D6E5"/>
<path d="M450.57 315.078H455.786L453.177 310.561L451.133 314.103L450.57 315.078Z" fill="#8395A7"/>
<path d="M448.008 315.078H451.695L451.133 314.103L449.852 311.885L448.008 315.078Z" fill="#B1BEC9"/>
<path d="M449.99 310.263C449.99 310.875 450.487 311.371 451.099 311.371C451.711 311.371 452.207 310.875 452.207 310.263C452.207 309.651 451.711 309.154 451.099 309.154C450.487 309.154 449.99 309.651 449.99 310.263Z" fill="#B1BEC9"/>
<path d="M459.634 299.746H477.01C477.34 299.746 477.606 299.479 477.606 299.149C477.606 298.819 477.34 298.553 477.01 298.553H459.634C459.304 298.553 459.037 298.819 459.037 299.149C459.037 299.479 459.305 299.746 459.634 299.746Z" fill="#C8D6E5"/>
<path d="M459.634 301.791H477.01C477.34 301.791 477.606 301.524 477.606 301.194C477.606 300.864 477.34 300.598 477.01 300.598H459.634C459.304 300.598 459.037 300.864 459.037 301.194C459.037 301.524 459.305 301.791 459.634 301.791Z" fill="#C8D6E5"/>
<path d="M464.575 303.836H476.841C477.171 303.836 477.437 303.569 477.437 303.239C477.437 302.909 477.171 302.643 476.841 302.643H464.575C464.245 302.643 463.979 302.909 463.979 303.239C463.979 303.569 464.245 303.836 464.575 303.836Z" fill="#C8D6E5"/>
<path d="M459.634 309.799H477.01C477.34 309.799 477.606 309.532 477.606 309.202C477.606 308.872 477.34 308.605 477.01 308.605H459.634C459.304 308.605 459.037 308.872 459.037 309.202C459.037 309.532 459.305 309.799 459.634 309.799Z" fill="#C8D6E5"/>
<path d="M464.575 311.842H476.841C477.171 311.842 477.437 311.575 477.437 311.245C477.437 310.915 477.171 310.648 476.841 310.648H464.575C464.245 310.648 463.979 310.915 463.979 311.245C463.979 311.575 464.245 311.842 464.575 311.842Z" fill="#C8D6E5"/>
<path d="M464.575 314.057H476.841C477.171 314.057 477.437 313.79 477.437 313.46C477.437 313.13 477.171 312.863 476.841 312.863H464.575C464.245 312.863 463.979 313.13 463.979 313.46C463.979 313.79 464.245 314.057 464.575 314.057Z" fill="#C8D6E5"/>
<path d="M465.768 318.826H448.392C448.062 318.826 447.795 318.559 447.795 318.229C447.795 317.9 448.062 317.633 448.392 317.633H465.768C466.098 317.633 466.364 317.9 466.364 318.229C466.364 318.559 466.098 318.826 465.768 318.826Z" fill="#C8D6E5"/>
<path d="M460.827 320.871H448.561C448.232 320.871 447.965 320.604 447.965 320.274C447.965 319.944 448.232 319.678 448.561 319.678H460.827C461.157 319.678 461.424 319.944 461.424 320.274C461.422 320.604 461.155 320.871 460.827 320.871Z" fill="#C8D6E5"/>
<path d="M460.827 323.086H448.561C448.232 323.086 447.965 322.819 447.965 322.489C447.965 322.159 448.232 321.893 448.561 321.893H460.827C461.157 321.893 461.424 322.159 461.424 322.489C461.422 322.818 461.155 323.086 460.827 323.086Z" fill="#C8D6E5"/>
</g>
<path d="M468.152 314.246C474.603 311.574 477.666 304.179 474.994 297.728C472.322 291.278 464.927 288.215 458.476 290.887C452.026 293.559 448.963 300.954 451.635 307.404C454.307 313.855 461.702 316.918 468.152 314.246Z" fill="#2D7B67"/>
<path d="M472.776 301.498C472.734 301.706 472.694 301.942 472.625 302.164C472.502 302.608 472.337 303.052 472.132 303.508C472.022 303.744 471.899 303.966 471.775 304.202C470.938 305.741 469.637 307.364 467.95 308.986C467.758 309.166 467.567 309.347 467.375 309.527C466.361 310.443 465.209 311.371 463.948 312.273L463.853 312.328L463.538 312.522L463.524 312.536L463.168 312.287C463.141 312.273 463.127 312.259 463.1 312.245C461.647 311.204 460.345 310.124 459.206 309.041C458.987 308.833 458.781 308.639 458.59 308.431C458.164 308.015 457.78 307.598 457.424 307.184C457.259 306.989 457.096 306.795 456.931 306.587C455.574 304.896 454.683 303.246 454.367 301.748C454.311 301.526 454.285 301.304 454.257 301.082C454.19 300.374 454.257 299.71 454.49 299.099C454.558 298.891 454.655 298.683 454.779 298.489C454.902 298.253 455.053 298.017 455.23 297.795C455.833 297.032 456.71 296.395 457.726 296.242C458.287 296.159 458.878 296.229 459.467 296.437C459.686 296.52 459.92 296.617 460.139 296.742C460.893 297.158 461.619 297.795 462.251 298.627C462.43 298.863 462.607 299.127 462.786 299.391C463.06 299.848 463.321 300.362 463.54 300.901C463.54 300.901 463.54 300.915 463.554 300.915C464.103 299.571 464.856 298.461 465.706 297.67C465.885 297.49 466.076 297.337 466.269 297.184C467.269 296.435 468.367 296.09 469.381 296.242C470.931 296.478 472.164 297.864 472.617 299.099C472.659 299.21 472.687 299.321 472.713 299.432C472.781 299.668 472.822 299.918 472.85 300.168C472.872 300.584 472.859 301.028 472.776 301.498Z" fill="#3C6382"/>
<path d="M472.822 302.066L484.55 306.933C486.321 307.668 488.353 306.828 489.088 305.057C489.824 303.285 488.983 301.253 487.212 300.518L475.485 295.651C473.713 294.916 471.681 295.756 470.946 297.527C470.211 299.299 471.051 301.331 472.822 302.066Z" fill="#F2C6C2"/>
<path d="M208.057 44.586C215.788 36.8551 215.788 24.3207 208.057 16.5897C200.326 8.85879 187.792 8.85879 180.061 16.5898C172.33 24.3207 172.33 36.8551 180.061 44.586C187.792 52.317 200.326 52.317 208.057 44.586Z" fill="#2D7B67"/>
<path d="M187.969 31.6328C188.868 33.9237 190.972 35.5024 193.354 35.672C196.038 35.8631 198.606 34.2321 199.644 31.6328" stroke="#2C3E50" stroke-width="0.8957" stroke-miterlimit="10"/>
<path d="M190.998 27.258C190.998 28.0011 190.396 28.6039 189.653 28.6039C188.909 28.6039 188.307 28.0011 188.307 27.258C188.307 26.5149 188.909 25.9121 189.653 25.9121C190.396 25.9106 190.998 26.5134 190.998 27.258Z" fill="#222F3E"/>
<path d="M199.078 27.258C199.078 28.0011 198.476 28.6039 197.733 28.6039C196.989 28.6039 196.387 28.0011 196.387 27.258C196.387 26.5149 196.989 25.9121 197.733 25.9121C198.476 25.9106 199.078 26.5134 199.078 27.258Z" fill="#222F3E"/>
<path d="M89.3479 354.459C97.0789 346.728 97.0789 334.194 89.3479 326.463C81.617 318.732 69.0826 318.732 61.3517 326.463C53.6207 334.194 53.6207 346.728 61.3517 354.459C69.0826 362.19 81.617 362.19 89.3479 354.459Z" fill="#2D7B67"/>
<path d="M69.2617 341.508C70.1605 343.799 72.2649 345.377 74.6483 345.547C77.3323 345.738 79.9008 344.107 80.9383 341.508" stroke="#2C3E50" stroke-width="0.8957" stroke-miterlimit="10"/>
<path d="M72.2914 337.133C72.2914 337.876 71.6886 338.479 70.9455 338.479C70.2024 338.479 69.5996 337.876 69.5996 337.133C69.5996 336.39 70.2024 335.787 70.9455 335.787C71.6886 335.786 72.2914 336.388 72.2914 337.133Z" fill="#222F3E"/>
<path d="M80.3714 337.133C80.3714 337.876 79.7686 338.479 79.0256 338.479C78.2825 338.479 77.6797 337.876 77.6797 337.133C77.6797 336.39 78.2825 335.787 79.0256 335.787C79.7686 335.786 80.3714 336.388 80.3714 337.133Z" fill="#222F3E"/>
<path d="M162.821 134.125H82.9811C76.0791 134.125 70.4844 128.53 70.4844 121.628V81.8718C70.4844 74.9697 76.0791 69.375 82.9811 69.375H162.821C169.723 69.375 175.318 74.9697 175.318 81.8718V121.628C175.318 128.53 169.723 134.125 162.821 134.125Z" fill="#60A3BC"/>
<path d="M112.261 148L100.082 133.842H124.442L112.261 148Z" fill="#60A3BC"/>
<path d="M108.336 102.096C108.336 104.461 106.42 106.377 104.057 106.377C101.692 106.377 99.7754 104.461 99.7754 102.096C99.7754 99.7323 101.692 97.8145 104.057 97.8145C106.42 97.8145 108.336 99.7307 108.336 102.096Z" fill="#2D7B67"/>
<path d="M122.673 97.85C125.018 98.1506 126.675 100.295 126.374 102.64C126.074 104.985 123.929 106.642 121.584 106.342C119.24 106.041 117.582 103.896 117.883 101.552C118.183 99.2051 120.328 97.5478 122.673 97.85Z" fill="#2D7B67"/>
<path d="M140.747 97.85C143.092 98.1506 144.749 100.295 144.449 102.64C144.148 104.985 142.004 106.642 139.659 106.342C137.314 106.041 135.656 103.896 135.957 101.552C136.258 99.2051 138.402 97.5478 140.747 97.85Z" fill="#2D7B67"/>
<path d="M688.856 298.812H735.808C742.71 298.812 748.304 293.217 748.304 286.315V266.872C748.304 259.97 742.71 254.375 735.808 254.375H688.856C681.954 254.375 676.359 259.97 676.359 266.872V286.315C676.359 293.216 681.954 298.812 688.856 298.812Z" fill="#60A3BC"/>
<path d="M719.632 308.334L727.991 298.617H711.273L719.632 308.334Z" fill="#60A3BC"/>
<path d="M722.326 276.829C722.326 278.451 723.641 279.768 725.263 279.768C726.885 279.768 728.201 278.453 728.201 276.829C728.201 275.208 726.886 273.893 725.263 273.893C723.643 273.893 722.326 275.208 722.326 276.829Z" fill="#FECA57"/>
<path d="M712.486 273.915C710.877 274.121 709.741 275.594 709.946 277.202C710.152 278.811 711.625 279.947 713.234 279.742C714.844 279.536 715.98 278.063 715.775 276.456C715.568 274.846 714.096 273.708 712.486 273.915Z" fill="#FECA57"/>
<path d="M700.084 273.915C698.475 274.121 697.338 275.594 697.543 277.202C697.75 278.811 699.222 279.947 700.83 279.742C702.44 279.536 703.576 278.063 703.371 276.456C703.164 274.846 701.694 273.708 700.084 273.915Z" fill="#FECA57"/>
<path d="M329.361 21.9045C329.297 22.2205 329.236 22.5797 329.131 22.9173C328.943 23.5926 328.692 24.2694 328.379 24.9662C328.212 25.3254 328.024 25.6631 327.836 26.0223C326.562 28.3671 324.578 30.8369 322.01 33.3082C321.717 33.5826 321.426 33.857 321.133 34.1314C319.588 35.5251 317.834 36.9403 315.913 38.3124L315.766 38.3972L315.285 38.6932L315.264 38.7148L314.721 38.334C314.679 38.3124 314.658 38.2924 314.616 38.2708C312.402 36.6875 310.42 35.0395 308.687 33.393C308.352 33.0769 308.039 32.7809 307.746 32.4633C307.099 31.8297 306.515 31.1961 305.972 30.5625C305.721 30.2665 305.471 29.972 305.22 29.6544C303.152 27.0783 301.796 24.5654 301.315 22.2853C301.231 21.9476 301.19 21.61 301.148 21.2708C301.043 20.1932 301.148 19.1803 301.503 18.2507C301.608 17.9347 301.754 17.6171 301.942 17.3211C302.13 16.9619 302.36 16.6027 302.631 16.265C303.55 15.1042 304.887 14.1329 306.431 13.9001C307.287 13.7737 308.186 13.8785 309.083 14.1961C309.418 14.3225 309.772 14.4705 310.107 14.6602C311.255 15.2938 312.362 16.265 313.323 17.5323C313.594 17.8915 313.865 18.2923 314.137 18.6932C314.554 19.39 314.951 20.1716 315.285 20.9949C315.285 20.9949 315.285 21.0165 315.307 21.0165C316.142 18.9676 317.291 17.2795 318.584 16.0754C318.856 15.801 319.149 15.5682 319.44 15.337C320.965 14.1961 322.634 13.6689 324.181 13.9017C326.539 14.2609 328.419 16.373 329.108 18.2523C329.171 18.4218 329.213 18.5899 329.254 18.7595C329.359 19.1187 329.421 19.4979 329.462 19.8787C329.506 20.5108 329.485 21.186 329.361 21.9045Z" fill="#2D7B67"/>
<path d="M586.819 242.363C586.756 242.679 586.694 243.039 586.589 243.376C586.401 244.052 586.15 244.728 585.837 245.425C585.67 245.784 585.482 246.122 585.294 246.481C584.021 248.826 582.037 251.296 579.468 253.767C579.175 254.042 578.884 254.316 578.591 254.59C577.046 255.984 575.292 257.399 573.371 258.771L573.224 258.856L572.745 259.152L572.725 259.174L572.182 258.793C572.141 258.771 572.119 258.751 572.077 258.73C569.864 257.146 567.881 255.498 566.148 253.852C565.814 253.534 565.501 253.24 565.209 252.922C564.562 252.289 563.978 251.655 563.435 251.021C563.184 250.725 562.934 250.429 562.683 250.113C560.615 247.537 559.258 245.024 558.777 242.743C558.694 242.405 558.653 242.067 558.611 241.73C558.506 240.652 558.611 239.639 558.966 238.71C559.07 238.392 559.217 238.076 559.405 237.78C559.593 237.421 559.823 237.062 560.094 236.724C561.013 235.563 562.35 234.592 563.894 234.359C564.75 234.233 565.649 234.338 566.546 234.655C566.88 234.782 567.235 234.93 567.57 235.119C568.718 235.753 569.825 236.724 570.786 237.991C571.057 238.35 571.328 238.751 571.6 239.152C572.017 239.849 572.414 240.631 572.748 241.454C572.748 241.454 572.748 241.475 572.77 241.475C573.605 239.427 574.754 237.738 576.047 236.534C576.319 236.26 576.612 236.027 576.903 235.796C578.428 234.655 580.097 234.128 581.643 234.361C584.002 234.72 585.882 236.832 586.571 238.711C586.634 238.881 586.676 239.049 586.717 239.218C586.822 239.578 586.884 239.957 586.925 240.338C586.964 240.97 586.944 241.645 586.819 242.363Z" fill="#FECA57"/>
<path d="M92.0677 46.2507C98.8792 46.2507 104.401 40.7288 104.401 33.9173C104.401 27.1058 98.8792 21.584 92.0677 21.584C85.2562 21.584 79.7344 27.1058 79.7344 33.9173C79.7344 40.7288 85.2562 46.2507 92.0677 46.2507Z" stroke="#FECA57" stroke-miterlimit="10"/>
<path d="M587.714 80.9382C594.526 80.9382 600.048 75.4163 600.048 68.6048C600.048 61.7933 594.526 56.2715 587.714 56.2715C580.903 56.2715 575.381 61.7933 575.381 68.6048C575.381 75.4163 580.903 80.9382 587.714 80.9382Z" stroke="#FECA57" stroke-miterlimit="10"/>
<path d="M71.2552 298.313C78.0667 298.313 83.5886 292.791 83.5886 285.98C83.5886 279.168 78.0667 273.646 71.2552 273.646C64.4437 273.646 58.9219 279.168 58.9219 285.98C58.9219 292.791 64.4437 298.313 71.2552 298.313Z" stroke="#FECA57" stroke-miterlimit="10"/>
<path d="M96.6927 188.083C103.504 188.083 109.026 182.561 109.026 175.749C109.026 168.938 103.504 163.416 96.6927 163.416C89.8812 163.416 84.3594 168.938 84.3594 175.749C84.3594 182.561 89.8812 188.083 96.6927 188.083Z" fill="#2D7B67"/>
<path d="M665.567 305.249C668.973 305.249 671.734 302.488 671.734 299.083C671.734 295.677 668.973 292.916 665.567 292.916C662.161 292.916 659.4 295.677 659.4 299.083C659.4 302.488 662.161 305.249 665.567 305.249Z" fill="#FECA57"/>
<path d="M725.692 234.333C729.098 234.333 731.859 231.572 731.859 228.167C731.859 224.761 729.098 222 725.692 222C722.286 222 719.525 224.761 719.525 228.167C719.525 231.572 722.286 234.333 725.692 234.333Z" fill="#FECA57"/>
<path d="M400.401 41.6244C403.807 41.6244 406.568 38.8634 406.568 35.4577C406.568 32.0519 403.807 29.291 400.401 29.291C396.995 29.291 394.234 32.0519 394.234 35.4577C394.234 38.8634 396.995 41.6244 400.401 41.6244Z" fill="#2D7B67"/>
<path d="M152.192 64.7494C155.598 64.7494 158.359 61.9884 158.359 58.5827C158.359 55.1769 155.598 52.416 152.192 52.416C148.786 52.416 146.025 55.1769 146.025 58.5827C146.025 61.9884 148.786 64.7494 152.192 64.7494Z" fill="#FECA57"/>
<path d="M500.61 12.3333C504.016 12.3333 506.777 9.57243 506.777 6.16667C506.777 2.76091 504.016 0 500.61 0C497.204 0 494.443 2.76091 494.443 6.16667C494.443 9.57243 497.204 12.3333 500.61 12.3333Z" fill="#2D7B67"/>
<path d="M645.526 157.249C648.932 157.249 651.693 154.488 651.693 151.083C651.693 147.677 648.932 144.916 645.526 144.916C642.12 144.916 639.359 147.677 639.359 151.083C639.359 154.488 642.12 157.249 645.526 157.249Z" fill="#FECA57"/>
<path d="M651.692 119.571V197.981C651.692 204.872 646.096 210.468 639.189 210.468H350.605C343.713 210.468 338.117 204.872 338.117 197.981V119.571C338.117 112.665 343.713 107.084 350.605 107.084H639.189C644.092 107.084 648.316 109.89 650.366 113.991C651.214 115.671 651.692 117.567 651.692 119.571Z" fill="#2D7B67"/>
<path d="M484.84 232.628L470.168 210.018H499.512L484.84 232.628Z" fill="#2D7B67"/>
<path d="M417.999 155.742L431.911 157.922L421.718 167.639L423.944 181.543L411.554 174.853L399.017 181.266L401.551 167.414L391.578 157.472L405.535 155.603L411.908 143.045L417.999 155.742Z" fill="white"/>
<path d="M462.458 155.742L476.372 157.922L466.178 167.639L468.403 181.543L456.012 174.853L443.476 181.266L446.012 167.414L436.037 157.472L449.995 155.603L456.367 143.045L462.458 155.742Z" fill="#FECA57"/>
<path d="M506.919 155.742L520.831 157.922L510.637 167.639L512.863 181.543L500.473 174.853L487.935 181.266L490.471 167.414L480.496 157.472L494.454 155.603L500.828 143.045L506.919 155.742Z" fill="#FECA57"/>
<path d="M552.304 155.742L566.216 157.922L556.022 167.639L558.249 181.543L545.858 174.853L533.32 181.266L535.856 167.414L525.883 157.472L539.84 155.603L546.213 143.045L552.304 155.742Z" fill="#FECA57"/>
<path d="M597.689 155.742L611.601 157.922L601.407 167.639L603.633 181.543L591.243 174.853L578.706 181.266L581.241 167.414L571.268 157.472L585.224 155.603L591.598 143.045L597.689 155.742Z" fill="#FECA57"/>
<path d="M701.981 254.375V259.725C701.981 266.616 696.385 272.212 689.478 272.212H676.358H676.281V275.295H676.358H692.561C699.468 275.295 705.064 269.699 705.064 262.808V254.375H701.981Z" fill="#222F3E"/>
<path d="M689.558 272.603H642.606C635.704 272.603 630.109 267.008 630.109 260.106V240.663C630.109 233.761 635.704 228.166 642.606 228.166H689.558C696.46 228.166 702.054 233.761 702.054 240.663V260.106C702.054 267.007 696.46 272.603 689.558 272.603Z" fill="#2D7B67"/>
<path d="M658.781 282.123L650.422 272.406H667.14L658.781 282.123Z" fill="#2D7B67"/>
<path d="M656.086 250.62C656.086 252.242 654.771 253.559 653.149 253.559C651.528 253.559 650.211 252.244 650.211 250.62C650.211 248.999 651.526 247.684 653.149 247.684C654.771 247.684 656.086 248.999 656.086 250.62Z" fill="#60A3BC"/>
<path d="M665.926 247.706C667.535 247.912 668.671 249.385 668.466 250.993C668.26 252.602 666.787 253.738 665.178 253.533C663.568 253.327 662.432 251.854 662.637 250.247C662.844 248.637 664.316 247.499 665.926 247.706Z" fill="#60A3BC"/>
<path d="M678.33 247.706C679.939 247.912 681.076 249.385 680.869 250.993C680.662 252.602 679.19 253.738 677.582 253.533C675.973 253.327 674.836 251.854 675.041 250.247C675.248 248.637 676.72 247.499 678.33 247.706Z" fill="#60A3BC"/>
<path d="M676.359 109.212C676.359 118.863 671.888 127.465 664.904 133.061C660.942 135.204 656.456 136.484 651.692 136.684V139.228C649.781 139.598 647.792 139.798 645.772 139.798C628.876 139.798 615.186 126.108 615.186 109.212C615.186 108.503 615.216 107.778 615.263 107.084H619.841C619.811 106.776 619.811 106.452 619.811 106.128C619.811 96.4775 624.281 87.875 631.265 82.2788C635.582 79.9508 640.515 78.625 645.772 78.625C662.669 78.625 676.359 92.315 676.359 109.212Z" fill="#222F3E"/>
<path d="M680.984 106.128C680.984 117.767 674.478 127.896 664.904 133.061C660.942 135.204 656.456 136.483 651.692 136.684C651.261 136.699 650.829 136.714 650.397 136.714C633.824 136.714 620.335 123.533 619.841 107.084C619.811 106.775 619.811 106.451 619.811 106.128C619.811 96.4769 624.281 87.8744 631.265 82.2781C636.491 78.0539 643.151 75.541 650.397 75.541C667.294 75.541 680.984 89.231 680.984 106.128Z" fill="#FECA57"/>
<path d="M640.982 107.744C642.371 111.284 645.623 113.723 649.304 113.986C653.451 114.282 657.42 111.762 659.023 107.744" stroke="#2C3E50" stroke-width="1.3839" stroke-miterlimit="10"/>
<path d="M645.663 100.984C645.663 102.133 644.732 103.064 643.584 103.064C642.435 103.064 641.504 102.133 641.504 100.984C641.504 99.8355 642.435 98.9043 643.584 98.9043C644.732 98.9028 645.663 99.8339 645.663 100.984Z" fill="#222F3E"/>
<path d="M658.147 100.984C658.147 102.133 657.216 103.064 656.068 103.064C654.919 103.064 653.986 102.133 653.986 100.984C653.986 99.8355 654.918 98.9043 656.068 98.9043C657.215 98.9028 658.147 99.8339 658.147 100.984Z" fill="#222F3E"/>
<path d="M239.698 631.793L207.276 632.132L206.922 597.075L206.845 589.659L206.768 581.689L239.189 581.365L239.251 588.133L239.42 603.904L239.698 631.793Z" fill="#D68A85"/>
<path d="M239.419 603.904L206.921 597.075L206.844 589.659L239.25 588.133L239.419 603.904Z" fill="#BF6462"/>
<path d="M240.067 607.42V639.795H207.692C207.183 627.462 206.659 615.128 206.15 602.795C207.445 602.98 208.756 603.149 210.051 603.319C210.56 603.396 211.084 603.473 211.592 603.535C213.89 603.843 216.202 604.167 218.499 604.475C219.023 604.552 219.532 604.614 220.056 604.691C222.353 605 224.666 605.323 226.963 605.632C227.472 605.709 227.996 605.77 228.505 605.847C230.817 606.156 233.114 606.48 235.427 606.788C235.935 606.865 236.46 606.927 236.968 607.004C238.001 607.142 239.034 607.281 240.067 607.42Z" fill="#E55039"/>
<path d="M212.363 639.794H210.822L210.051 603.318C210.56 603.395 211.084 603.473 211.592 603.534L212.363 639.794Z" fill="white"/>
<path d="M220.797 639.796H219.255L218.5 604.477C219.024 604.554 219.533 604.615 220.057 604.692L220.797 639.796Z" fill="white"/>
<path d="M229.229 639.796H227.687L226.963 605.633C227.472 605.71 227.996 605.772 228.505 605.849L229.229 639.796Z" fill="white"/>
<path d="M237.663 639.794H236.121L235.428 606.787C235.936 606.864 236.461 606.926 236.969 607.003L237.663 639.794Z" fill="white"/>
<path d="M207.047 628.447V653.769H285.034C284.804 650.184 283.867 644.989 280.154 640.902C278.149 638.693 275.85 637.529 272.768 636.635C268.899 635.511 263.791 634.814 256.471 633.007C249.503 631.288 244.021 629.457 240.757 628.297C240.732 628.288 240.706 628.279 240.683 628.27L207.047 628.447Z" fill="#2D7B67"/>
<path d="M207.019 653.768H213.854V628.329H207.019V653.768Z" fill="#E58E26"/>
<path d="M221.875 628.338H240.347V612.707H237.504C228.873 612.707 221.875 619.706 221.875 628.338Z" fill="#2D7B67"/>
<path d="M284.959 658.081H207.127C206.103 658.081 205.273 657.126 205.273 655.949C205.273 654.771 206.103 653.816 207.127 653.816H284.959C285.983 653.816 286.812 654.771 286.812 655.949C286.812 657.126 285.981 658.081 284.959 658.081Z" fill="#E58E26"/>
<path d="M240.271 630.725C240.271 633.606 242.254 636.207 245.18 636.878L265.189 641.45C268.59 642.227 271.977 640.101 272.754 636.701C272.759 636.677 272.765 636.657 272.768 636.634C268.899 635.51 263.791 634.813 256.471 633.007C249.503 631.288 244.021 629.456 240.757 628.297C240.621 628.621 240.512 628.96 240.432 629.313C240.324 629.788 240.271 630.259 240.271 630.725Z" fill="#E58E26"/>
<path d="M267.445 635.387L263.67 641.102" stroke="#222F3E" stroke-width="0.5" stroke-miterlimit="10"/>
<path d="M261.894 634.248L258.219 639.855" stroke="#222F3E" stroke-width="0.5" stroke-miterlimit="10"/>
<path d="M256.58 633.033L252.904 638.64" stroke="#222F3E" stroke-width="0.5" stroke-miterlimit="10"/>
<path d="M251.72 631.818L248.045 637.425" stroke="#222F3E" stroke-width="0.5" stroke-miterlimit="10"/>
<path d="M246.86 630.301L243.184 635.908" stroke="#222F3E" stroke-width="0.5" stroke-miterlimit="10"/>
<path d="M206.943 629.924H210.437V623.544C210.437 621.616 208.874 620.051 206.943 620.051V629.924Z" fill="#E58E26"/>
<path d="M144.471 631.793L176.892 632.132L177.247 597.075L177.324 589.659L177.401 581.689L144.979 581.365L144.918 588.133L144.748 603.904L144.471 631.793Z" fill="#D68A85"/>
<path d="M144.748 603.904L177.246 597.075L177.323 589.659L144.918 588.133L144.748 603.904Z" fill="#BF6462"/>
<path d="M144.102 607.42V639.795H176.477C176.985 627.462 177.509 615.128 178.018 602.795C176.723 602.98 175.413 603.149 174.118 603.319C173.609 603.396 173.085 603.473 172.576 603.535C170.279 603.843 167.967 604.167 165.669 604.475C165.145 604.552 164.637 604.614 164.112 604.691C161.815 605 159.503 605.323 157.206 605.632C156.697 605.709 156.173 605.77 155.664 605.847C153.352 606.156 151.054 606.48 148.742 606.788C148.233 606.865 147.709 606.927 147.2 607.004C146.167 607.142 145.134 607.281 144.102 607.42Z" fill="#E55039"/>
<path d="M171.805 639.794H173.346L174.117 603.318C173.608 603.395 173.084 603.473 172.576 603.534L171.805 639.794Z" fill="white"/>
<path d="M163.371 639.796H164.913L165.668 604.477C165.144 604.554 164.635 604.615 164.111 604.692L163.371 639.796Z" fill="white"/>
<path d="M154.939 639.796H156.481L157.206 605.633C156.697 605.71 156.173 605.772 155.664 605.849L154.939 639.796Z" fill="white"/>
<path d="M146.506 639.794H148.048L148.741 606.787C148.233 606.864 147.708 606.926 147.2 607.003L146.506 639.794Z" fill="white"/>
<path d="M177.122 628.447V653.769H99.1348C99.3645 650.184 100.302 644.989 104.014 640.902C106.02 638.693 108.318 637.529 111.4 636.635C115.27 635.511 120.377 634.814 127.697 633.007C134.666 631.288 140.148 629.457 143.411 628.297C143.436 628.288 143.462 628.279 143.485 628.27L177.122 628.447Z" fill="#2D7B67"/>
<path d="M177.149 628.328H170.314V653.767H177.149V628.328Z" fill="#E58E26"/>
<path d="M162.293 628.338H143.82V612.707H146.662C155.295 612.707 162.293 619.706 162.293 628.338Z" fill="#2D7B67"/>
<path d="M99.2086 658.081H177.041C178.065 658.081 178.894 657.126 178.894 655.949C178.894 654.771 178.065 653.816 177.041 653.816H99.2086C98.1849 653.816 97.3555 654.771 97.3555 655.949C97.3555 657.126 98.1864 658.081 99.2086 658.081Z" fill="#E58E26"/>
<path d="M143.895 630.725C143.895 633.606 141.913 636.207 138.987 636.878L118.977 641.45C115.576 642.227 112.189 640.101 111.412 636.701C111.408 636.677 111.402 636.657 111.398 636.634C115.268 635.51 120.376 634.813 127.695 633.007C134.664 631.288 140.146 629.456 143.41 628.297C143.545 628.621 143.655 628.96 143.735 629.313C143.844 629.788 143.895 630.259 143.895 630.725Z" fill="#E58E26"/>
<path d="M116.723 635.387L120.498 641.102" stroke="#222F3E" stroke-width="0.5" stroke-miterlimit="10"/>
<path d="M122.273 634.248L125.949 639.855" stroke="#222F3E" stroke-width="0.5" stroke-miterlimit="10"/>
<path d="M127.588 633.033L131.263 638.64" stroke="#222F3E" stroke-width="0.5" stroke-miterlimit="10"/>
<path d="M132.447 631.818L136.123 637.425" stroke="#222F3E" stroke-width="0.5" stroke-miterlimit="10"/>
<path d="M137.307 630.301L140.984 635.908" stroke="#222F3E" stroke-width="0.5" stroke-miterlimit="10"/>
<path d="M177.224 629.924H173.73V623.544C173.73 621.616 175.294 620.051 177.224 620.051V629.924Z" fill="#E58E26"/>
<path d="M265.941 273.704L238.273 285.46L211.596 222.674C208.349 215.034 211.912 206.208 219.552 202.963C227.193 199.716 236.019 203.279 239.264 210.919L265.941 273.704Z" fill="#3C6382"/>
<path d="M212.602 277.076H153.227V160.395C153.227 143.999 166.519 130.707 182.914 130.707C199.31 130.707 212.602 143.999 212.602 160.395V277.076Z" fill="#2D7B67"/>
<path d="M175.178 162.993C176.919 166.796 175.631 171.114 172.303 172.638C168.974 174.161 164.866 172.312 163.125 168.509C161.385 164.706 162.672 160.388 165.999 158.864C169.327 157.34 173.438 159.19 175.178 162.993Z" fill="#D68A85"/>
<path d="M169.388 162.267C169.147 162.23 167.473 161.997 166.34 163.091C165.117 164.274 164.994 166.548 166.346 168.327" stroke="#222F3E" stroke-width="0.3135" stroke-miterlimit="10"/>
<path d="M202.307 180.359H179.367V206.358H202.307V180.359Z" fill="#D68A85"/>
<path d="M179.367 180.359V195.282C181.606 195.369 186.706 195.333 192.166 193.082C198.317 190.548 201.276 186.711 202.306 185.203C202.306 183.589 202.306 181.973 202.306 180.357H179.367V180.359Z" fill="#BF6462"/>
<path d="M207.521 172.573C206.426 177.658 204.08 182.056 200.949 185.121C198.141 187.859 194.7 189.538 190.919 189.656C186.776 189.794 182.908 188.047 179.759 185.001C176.609 181.971 174.195 177.658 172.946 172.607C172.433 170.518 172.124 168.293 172.038 165.983C171.592 152.579 179.313 141.436 189.309 141.111C199.305 140.786 207.761 151.381 208.207 164.785C208.292 167.489 208.051 170.108 207.521 172.573Z" fill="#D68A85"/>
<path d="M199.443 163.351C199.486 163.942 199.999 164.384 200.59 164.339C201.18 164.296 201.622 163.783 201.578 163.192C201.535 162.604 201.021 162.16 200.431 162.204C199.84 162.247 199.398 162.761 199.443 163.351Z" fill="#222F3E"/>
<path d="M183.017 164.566C183.061 165.157 183.575 165.599 184.164 165.554C184.754 165.511 185.196 164.996 185.153 164.407C185.109 163.818 184.597 163.374 184.006 163.419C183.416 163.462 182.973 163.977 183.017 164.566Z" fill="#222F3E"/>
<path d="M184.262 169.941C184.279 171.576 182.967 172.914 181.331 172.931C179.695 172.948 178.357 171.636 178.34 170.001C178.323 168.365 179.637 167.027 181.271 167.01C182.906 166.994 184.246 168.306 184.262 169.941Z" fill="#EE5253"/>
<path d="M205.974 169.722C205.991 171.358 204.679 172.696 203.044 172.713C201.408 172.73 200.07 171.418 200.053 169.782C200.036 168.146 201.348 166.808 202.984 166.791C204.619 166.774 205.957 168.086 205.974 169.722Z" fill="#EE5253"/>
<path d="M192.764 161.604V169.751H195.523L193.35 171.957" stroke="#222F3E" stroke-width="0.35" stroke-miterlimit="10"/>
<path d="M197.864 155.377C197.741 155.784 199.292 156.615 201.328 157.233C203.365 157.852 205.116 158.023 205.24 157.614C205.363 157.207 203.812 156.376 201.776 155.758C199.739 155.141 197.988 154.97 197.864 155.377Z" fill="#222F3E"/>
<path d="M186.738 155.377C186.861 155.784 185.31 156.615 183.274 157.233C181.237 157.852 179.486 158.023 179.362 157.614C179.239 157.207 180.79 156.376 182.826 155.758C184.863 155.141 186.614 154.97 186.738 155.377Z" fill="#222F3E"/>
<path d="M180.738 171.914C184.57 171.914 187.676 168.808 187.676 164.977C187.676 161.145 184.57 158.039 180.738 158.039C176.907 158.039 173.801 161.145 173.801 164.977C173.801 168.808 176.907 171.914 180.738 171.914Z" stroke="#3C6382" stroke-miterlimit="10"/>
<path d="M202.322 171.914C206.154 171.914 209.26 168.808 209.26 164.977C209.26 161.145 206.154 158.039 202.322 158.039C198.491 158.039 195.385 161.145 195.385 164.977C195.385 168.808 198.491 171.914 202.322 171.914Z" stroke="#3C6382" stroke-miterlimit="10"/>
<path d="M195.602 163.27L187.457 163.273" stroke="#3C6382" stroke-miterlimit="10"/>
<path d="M197.696 174.226C196.376 176.335 193.987 177.531 191.529 177.309C189.18 177.096 187.117 175.62 186.137 173.455" stroke="#222F3E" stroke-width="0.35" stroke-miterlimit="10"/>
<path d="M200.612 150.979H180.086V148.611C180.086 142.943 184.68 138.348 190.349 138.348C196.016 138.348 200.612 142.942 200.612 148.611V150.979Z" fill="#2D7B67"/>
<path d="M114.165 301.323C106.961 297.826 103.956 289.151 107.453 281.948L141.104 212.624C144.601 205.42 153.276 202.415 160.478 205.912C167.683 209.408 170.687 218.083 167.191 225.286L133.539 294.61C130.043 301.814 121.369 304.819 114.165 301.323Z" fill="#3C6382"/>
<path d="M281.961 220.347L300.816 232.166L319.959 201.626L301.104 189.807L281.961 220.347Z" fill="#D68A85"/>
<path d="M332.772 201.233L317.325 205.963C310.013 208.201 302.269 204.089 300.03 196.776C297.792 189.464 301.903 181.72 309.217 179.48L324.665 174.75L332.772 201.233Z" fill="#D68A85"/>
<path d="M346.269 175.396L322.128 182.789C320.295 183.35 318.353 182.319 317.792 180.485C317.23 178.652 318.262 176.71 320.095 176.149L344.236 168.756C346.069 168.195 348.011 169.227 348.573 171.06C349.135 172.894 348.104 174.835 346.269 175.396Z" fill="#F2C6C2"/>
<path d="M348.535 182.008L324.101 189.489C322.268 190.051 320.325 189.019 319.764 187.186C319.203 185.353 320.234 183.411 322.068 182.849L346.503 175.368C348.336 174.807 350.278 175.838 350.84 177.671C351.401 179.504 350.369 181.447 348.535 182.008Z" fill="#F2C6C2"/>
<path d="M351.469 188.309L326.117 196.071C324.284 196.632 322.341 195.601 321.78 193.768C321.219 191.935 322.25 189.992 324.083 189.431L349.436 181.669C351.269 181.107 353.211 182.139 353.773 183.972C354.334 185.805 353.302 187.747 351.469 188.309Z" fill="#F2C6C2"/>
<path d="M347.311 196.781L328.132 202.653C326.299 203.215 324.357 202.183 323.796 200.35C323.234 198.517 324.266 196.575 326.099 196.013L345.277 190.141C347.112 189.58 349.053 190.611 349.614 192.444C350.177 194.278 349.144 196.22 347.311 196.781Z" fill="#D68A85"/>
<path d="M344.955 175.84L328.482 180.883" stroke="#D89491" stroke-width="0.6718" stroke-miterlimit="10"/>
<path d="M346.125 183.184L329.65 188.228" stroke="#D89491" stroke-width="0.6718" stroke-miterlimit="10"/>
<path d="M345.947 190.223L329.475 195.265" stroke="#D89491" stroke-width="0.6718" stroke-miterlimit="10"/>
<path d="M322.555 180.838L327.943 198.915" stroke="#D89491" stroke-width="0.6718" stroke-miterlimit="10"/>
<path d="M364.007 209.345L337.945 195.617L311.862 209.305L316.863 180.276L295.785 159.698L324.94 155.486L337.996 129.08L351.012 155.506L380.159 159.764L359.051 180.308L364.007 209.345Z" fill="#2D7B67"/>
<path d="M326.454 180.64L314.727 185.507C312.955 186.243 310.924 185.402 310.188 183.631C309.453 181.86 310.293 179.828 312.064 179.092L323.792 174.225C325.563 173.49 327.595 174.33 328.33 176.101C329.066 177.873 328.226 179.905 326.454 180.64Z" fill="#D68A85"/>
<path d="M245.361 300.627C252.146 304.879 261.094 302.827 265.345 296.042C280.559 269.306 295.772 242.571 310.985 215.835C304.818 211.724 298.652 207.614 292.485 203.502C275.249 229.215 258.012 254.929 240.776 280.642C236.524 287.427 238.576 296.375 245.361 300.627Z" fill="#D68A85"/>
<path d="M196.162 596.672V553.027H196.1V346.151H189.748V596.672H130.795L136.114 431.821L136.699 398.691L136.715 398.706C136.684 392.663 136.761 385.571 137.085 377.74C137.116 377.169 137.131 376.63 137.162 376.075C137.255 374.302 137.347 372.498 137.44 370.679C137.47 370.139 137.501 369.6 137.547 369.076C137.578 368.598 137.594 368.12 137.609 367.657C137.717 366.1 137.794 364.605 137.887 363.171C137.902 362.971 137.917 362.755 137.933 362.554C138.226 357.929 138.519 353.983 138.92 350.391C138.966 350.036 139.012 349.681 139.058 349.311C139.228 347.924 139.413 346.583 139.613 345.272C140.199 341.541 141.001 338.103 142.142 334.496C143.467 330.256 145.518 324.83 148.879 318.648C148.971 318.432 149.095 318.201 149.233 318C150.59 315.533 152.178 312.943 153.997 310.276C154.907 308.935 155.893 307.594 156.926 306.237C157.173 305.867 157.481 305.513 157.759 305.158C159.115 303.416 160.58 301.658 162.152 299.855C162.23 299.762 162.322 299.67 162.399 299.577V268.143H223.125V299.207C223.326 299.423 223.511 299.639 223.696 299.855C226.856 303.416 229.554 306.916 231.836 310.276C233.809 313.175 235.52 315.981 236.985 318.648C237.093 318.863 237.216 319.064 237.34 319.28C240.485 325.184 242.442 330.411 243.722 334.496C244.832 338.057 245.603 341.433 246.204 345.118C247.037 350.221 247.499 355.879 247.977 363.171C247.992 363.387 247.992 363.587 248.008 363.818C248.131 365.946 248.27 368.228 248.424 370.679C249.287 386.003 249.226 399.092 249.01 407.895C248.995 408.342 248.979 408.789 248.964 409.236C248.917 411.333 248.84 413.152 248.779 414.663L254.637 596.672H196.162Z" fill="#60A3BC"/>
<path d="M137.787 357.002C139.753 356.751 142.38 356.245 145.303 355.165C147.12 354.492 149.054 353.597 151.015 352.4C160.821 346.419 164.496 337.079 165.576 333.951" stroke="white" stroke-width="0.8957" stroke-miterlimit="10"/>
<path d="M247.039 358.383C245.073 358.132 242.446 357.626 239.523 356.545C237.706 355.873 235.772 354.978 233.811 353.781C224.006 347.8 220.33 338.46 219.252 335.332" stroke="white" stroke-width="0.8957" stroke-miterlimit="10"/>
<path d="M184.154 345.496H201.645" stroke="white" stroke-width="0.8957" stroke-miterlimit="10"/>
<path d="M223.696 299.854H162.152C162.229 299.762 162.322 299.669 162.399 299.577V289.062H223.125V299.207C223.326 299.423 223.511 299.638 223.696 299.854Z" fill="#FF9F43"/>
<path d="M206.152 283.668H179.943V305.251H206.152V283.668Z" stroke="white" stroke-width="0.8957" stroke-miterlimit="10"/>
<path d="M223.325 289.628C203.072 289.628 182.821 289.628 162.568 289.628C159.257 281.553 155.842 270.81 154.283 257.868C151.525 234.973 155.897 216.212 159.485 205.086C178.464 205.189 197.442 205.293 216.42 205.396C221.184 216.206 227.304 233.989 227.466 256.487C227.563 269.723 225.572 281.007 223.325 289.628Z" fill="#3C6382"/>
<path d="M113.256 297.46C117.958 303.941 127.025 305.384 133.506 300.682C157.614 281.576 181.722 262.472 205.83 243.366C201.649 237.247 197.467 231.128 193.286 225.008C167.683 242.409 142.081 259.809 116.478 277.21C109.997 281.912 108.554 290.979 113.256 297.46Z" fill="#D68A85"/>
<path d="M193.875 263.944L216.356 258.23C218.209 257.76 219.328 255.876 218.858 254.025L207.837 210.659C207.366 208.808 205.482 207.687 203.631 208.159L181.15 213.872C179.299 214.342 178.178 216.226 178.648 218.078L189.67 261.443C190.14 263.293 192.022 264.414 193.875 263.944Z" fill="#222F3E"/>
<path d="M187.776 216.744L199.179 213.846C200.436 213.527 201.196 212.249 200.877 210.991L200.366 208.986L184.41 213.041L184.92 215.045C185.24 216.303 186.518 217.063 187.776 216.744Z" fill="#222F3E"/>
<path d="M211.752 230.732L184.434 237.674C182.813 238.086 181.165 237.107 180.752 235.485C180.341 233.865 181.32 232.217 182.941 231.804L210.26 224.862C211.88 224.45 213.528 225.429 213.941 227.051C214.354 228.673 213.374 230.319 211.752 230.732Z" fill="#D68A85"/>
<path d="M213.245 236.601L185.928 243.543C184.308 243.955 182.659 242.974 182.246 241.354C181.835 239.734 182.814 238.086 184.435 237.673L211.754 230.731C213.374 230.319 215.022 231.299 215.435 232.92C215.845 234.542 214.865 236.19 213.245 236.601Z" fill="#D68A85"/>
<path d="M214.736 242.471L187.418 249.413C185.798 249.825 184.15 248.846 183.736 247.224C183.325 245.604 184.305 243.956 185.926 243.544L213.242 236.602C214.863 236.19 216.511 237.169 216.924 238.791C217.337 240.41 216.357 242.058 214.736 242.471Z" fill="#D68A85"/>
<path d="M216.227 248.342L188.909 255.284C187.288 255.695 185.64 254.716 185.229 253.095C184.817 251.474 185.796 249.826 187.418 249.413L214.736 242.471C216.357 242.059 218.005 243.038 218.418 244.66C218.828 246.282 217.849 247.93 216.227 248.342Z" fill="#D68A85"/>
<path d="M178.748 220.484L186.919 230.203C188.152 231.67 187.964 233.861 186.496 235.094C185.029 236.329 182.838 236.14 181.605 234.67L173.432 224.952C172.197 223.484 172.387 221.293 173.856 220.06C175.322 218.827 177.513 219.016 178.748 220.484Z" fill="#D68A85"/>
</svg>
