<svg width="35" height="34" viewBox="0 0 35 34" fill="none" xmlns="http://www.w3.org/2000/svg">
<path d="M17.1825 0.455078C7.88253 0.455078 0.273438 7.81871 0.273438 16.8187C0.273438 25.8187 7.88253 33.1824 17.1825 33.1824C26.4825 33.1824 34.0916 25.8187 34.0916 16.8187C34.0916 7.81871 26.4825 0.455078 17.1825 0.455078ZM17.1825 29.9096C9.72562 29.9096 3.65526 24.0351 3.65526 16.8187C3.65526 9.60235 9.72562 3.72781 17.1825 3.72781C24.6394 3.72781 30.7098 9.60235 30.7098 16.8187C30.7098 24.0351 24.6394 29.9096 17.1825 29.9096ZM24.9438 9.58599L13.8007 20.3696L9.42126 16.1478L7.03707 18.4551L13.8007 25.0005L27.328 11.9096L24.9438 9.58599Z" fill="#2D7B67"/>
</svg>
