<svg width="33" height="23" viewBox="0 0 33 23" fill="none" xmlns="http://www.w3.org/2000/svg">
<path fill-rule="evenodd" clip-rule="evenodd" d="M0.468506 3.13636C0.468506 2.30455 0.8111 1.5068 1.42092 0.91862C2.03074 0.330437 2.85784 0 3.72025 0H29.7342C30.5967 0 31.4238 0.330437 32.0336 0.91862C32.6434 1.5068 32.986 2.30455 32.986 3.13636V19.8636C32.986 20.6955 32.6434 21.4932 32.0336 22.0814C31.4238 22.6696 30.5967 23 29.7342 23H3.72025C2.85784 23 2.03074 22.6696 1.42092 22.0814C0.8111 21.4932 0.468506 20.6955 0.468506 19.8636L0.468506 3.13636ZM6.972 8.36364C6.972 7.25455 7.42879 6.19089 8.24189 5.40664C9.05498 4.6224 10.1578 4.18182 11.3077 4.18182C12.4576 4.18182 13.5603 4.6224 14.3734 5.40664C15.1865 6.19089 15.6433 7.25455 15.6433 8.36364C15.6433 9.47272 15.1865 10.5364 14.3734 11.3206C13.5603 12.1049 12.4576 12.5455 11.3077 12.5455C10.1578 12.5455 9.05498 12.1049 8.24189 11.3206C7.42879 10.5364 6.972 9.47272 6.972 8.36364ZM26.4825 8.36364H19.979V6.27273H26.4825V8.36364ZM26.4825 14.6364H19.979V12.5455H26.4825V14.6364ZM11.3077 14.6364C10.1294 14.6371 8.97463 14.9539 7.97236 15.5513C6.97009 16.1488 6.15987 17.0033 5.63228 18.0195L4.9169 19.3953C4.83401 19.5548 4.79484 19.7322 4.80312 19.9105C4.81141 20.0887 4.86687 20.262 4.96423 20.4137C5.06159 20.5655 5.1976 20.6907 5.35931 20.7774C5.52103 20.8641 5.70306 20.9094 5.88809 20.9091H16.7272C16.9121 20.9091 17.0939 20.8635 17.2553 20.7766C17.4167 20.6898 17.5524 20.5646 17.6495 20.4129C17.7466 20.2612 17.8019 20.088 17.8101 19.9099C17.8182 19.7318 17.7791 19.5547 17.6963 19.3953L16.9831 18.0195C16.4555 17.0033 15.6452 16.1488 14.643 15.5513C13.6407 14.9539 12.4859 14.6371 11.3077 14.6364Z" fill="#2D7B67"/>
</svg>
