<svg width="407" height="347" viewBox="0 0 407 347" fill="none" xmlns="http://www.w3.org/2000/svg">
<path d="M319.353 92.002V100.712H296.162V92.002H319.353Z" fill="#EBEBEB" stroke="black" stroke-width="2"/>
<path d="M305.356 78.4976V87.2075H282.166V78.4976H305.356Z" fill="#EBEBEB" stroke="black" stroke-width="2"/>
<path d="M405.512 252.955V261.665H382.321V252.955H405.512Z" fill="#EBEBEB" stroke="black" stroke-width="2"/>
<path d="M211.249 73.7197V81.5H49.5112V73.7197H211.249Z" fill="#EBEBEB" stroke="black" stroke-width="2"/>
<path d="M69.667 83.5039V113.855H61.9404V83.5039H69.667Z" fill="#EBEBEB" stroke="black" stroke-width="2"/>
<path d="M69.667 83.5039V91.5029H61.9404V83.5039H69.667Z" fill="#DBDBDB" stroke="black" stroke-width="2"/>
<path d="M198.825 83.5039V113.855H191.099V83.5039H198.825Z" fill="#EBEBEB" stroke="black" stroke-width="2"/>
<path d="M198.825 83.5039V91.5029H191.099V83.5039H198.825Z" fill="#DBDBDB" stroke="black" stroke-width="2"/>
<path d="M104.499 71.7202H90.895L90.895 11.3804L104.499 11.3804L104.499 71.7202Z" fill="#C7C7C7" stroke="black" stroke-width="2"/>
<path d="M104.499 12.8975L90.8953 12.8975V8.04687L104.499 8.04688V12.8975Z" fill="#DBDBDB" stroke="black" stroke-width="2"/>
<path d="M104.499 24.2173L90.895 24.2173V23.6753L104.499 23.6753V24.2173Z" fill="#DBDBDB" stroke="black" stroke-width="2"/>
<path d="M106.444 63.5435H90.8958V58.6929H106.444V63.5435Z" fill="#DBDBDB" stroke="black" stroke-width="2"/>
<path d="M115.404 71.7217H106.499L106.499 1L115.404 1L115.404 71.7217Z" fill="#DBDBDB" stroke="black" stroke-width="2"/>
<path d="M113.176 33.8062H108.632V7.8374L113.176 7.8374V33.8062Z" fill="#EBEBEB" stroke="black" stroke-width="2"/>
<path d="M192.573 64.9415L186.308 71.3177L136.321 21.6052L142.585 15.229L192.573 64.9415Z" fill="#C7C7C7" stroke="black" stroke-width="2"/>
<path d="M179 54.4805L175.802 57.7365L157.448 39.4836L160.647 36.2276L179 54.4805Z" fill="#DBDBDB" stroke="black" stroke-width="2"/>
<path d="M133.916 71.7329H117.397L117.397 18.4956L133.916 18.4956V71.7329Z" fill="#A6A6A6" stroke="black" stroke-width="2"/>
<path d="M133.916 65.8774H117.397V62.729H133.916V65.8774Z" fill="#C7C7C7" stroke="black" stroke-width="2"/>
<mask id="path-19-inside-1_670_4105" fill="white">
<path d="M134.915 58.3504V56.354H116.396V58.3504H134.915Z"/>
</mask>
<path d="M134.915 58.3504V56.354H116.396V58.3504H134.915Z" fill="#C7C7C7"/>
<path d="M134.915 56.354H136.915V54.354H134.915V56.354ZM134.915 58.3504V60.3504H136.915V58.3504H134.915ZM116.396 58.3504L114.396 58.3504V60.3504L116.396 60.3504V58.3504ZM116.396 56.354V54.354L114.396 54.354V56.354L116.396 56.354ZM134.915 56.354H132.915V58.3504H134.915H136.915V56.354H134.915ZM134.915 58.3504V56.3504H116.396V58.3504V60.3504H134.915V58.3504ZM116.396 58.3504H118.396V56.354H116.396L114.396 56.354V58.3504L116.396 58.3504ZM116.396 56.354V58.354H134.915V56.354V54.354H116.396V56.354Z" fill="black" mask="url(#path-19-inside-1_670_4105)"/>
<path d="M88.8948 71.7339H78.1028L78.1028 21.8218L88.8948 21.8218L88.8948 71.7339Z" fill="#A6A6A6" stroke="black" stroke-width="2"/>
<path d="M88.8955 66.23H78.1035V63.3921H88.8955V66.23Z" fill="#C7C7C7" stroke="black" stroke-width="2"/>
<path d="M88.8948 35.3608H78.1028V32.522H88.8948V35.3608Z" fill="#C7C7C7" stroke="black" stroke-width="2"/>
<mask id="path-24-inside-2_670_4105" fill="white">
<path d="M89.8953 41.5497V39.6738H77.1028V41.5497H89.8953Z"/>
</mask>
<path d="M89.8953 41.5497V39.6738H77.1028V41.5497H89.8953Z" fill="#C7C7C7"/>
<path d="M89.8953 39.6738H91.8953V37.6738H89.8953V39.6738ZM89.8953 41.5497V43.5497H91.8953V41.5497H89.8953ZM77.1028 41.5497H75.1028V43.5497H77.1028V41.5497ZM77.1028 39.6738V37.6738H75.1028V39.6738H77.1028ZM89.8953 39.6738H87.8953V41.5497H89.8953H91.8953V39.6738H89.8953ZM89.8953 41.5497V39.5497H77.1028V41.5497V43.5497H89.8953V41.5497ZM77.1028 41.5497H79.1028V39.6738H77.1028H75.1028V41.5497H77.1028ZM77.1028 39.6738V41.6738H89.8953V39.6738V37.6738H77.1028V39.6738Z" fill="black" mask="url(#path-24-inside-2_670_4105)"/>
<mask id="path-26-inside-3_670_4105" fill="white">
<path d="M397.023 338.402L347.395 338.634L297.767 338.719L198.511 338.879L99.2556 338.72L49.6278 338.636L0 338.402L49.6278 338.167L99.2556 338.083L198.511 337.924L297.767 338.084L347.395 338.169L397.023 338.402Z"/>
</mask>
<path d="M397.023 338.402L347.395 338.634L297.767 338.719L198.511 338.879L99.2556 338.72L49.6278 338.636L0 338.402L49.6278 338.167L99.2556 338.083L198.511 337.924L297.767 338.084L347.395 338.169L397.023 338.402Z" fill="#263238"/>
<path d="M397.023 338.402L397.032 340.402V336.402L397.023 338.402ZM347.395 338.634L347.398 340.634L347.404 340.634L347.395 338.634ZM297.767 338.719L297.77 340.719L297.77 340.719L297.767 338.719ZM198.511 338.879L198.508 340.879L198.515 340.879L198.511 338.879ZM99.2556 338.72L99.2523 340.72L99.2524 340.72L99.2556 338.72ZM49.6278 338.636L49.6184 340.636L49.6245 340.636L49.6278 338.636ZM0 338.402L-0.00945042 336.402L-0.00944924 340.402L0 338.402ZM49.6278 338.167L49.6244 336.167L49.6184 336.167L49.6278 338.167ZM99.2556 338.083L99.2524 336.083L99.2523 336.083L99.2556 338.083ZM198.511 337.924L198.514 335.924L198.508 335.924L198.511 337.924ZM297.767 338.084L297.77 336.084L297.77 336.084L297.767 338.084ZM347.395 338.169L347.404 336.169L347.398 336.169L347.395 338.169ZM397.023 338.402L397.013 336.402L347.385 336.634L347.395 338.634L347.404 340.634L397.032 340.402L397.023 338.402ZM347.395 338.634L347.391 336.634L297.764 336.719L297.767 338.719L297.77 340.719L347.398 340.634L347.395 338.634ZM297.767 338.719L297.764 336.719L198.508 336.879L198.511 338.879L198.515 340.879L297.77 340.719L297.767 338.719ZM198.511 338.879L198.514 336.879L99.2589 336.72L99.2556 338.72L99.2524 340.72L198.508 340.879L198.511 338.879ZM99.2556 338.72L99.259 336.72L49.6312 336.636L49.6278 338.636L49.6245 340.636L99.2523 340.72L99.2556 338.72ZM49.6278 338.636L49.6373 336.636L0.00944924 336.402L0 338.402L-0.00944924 340.402L49.6184 340.636L49.6278 338.636ZM0 338.402L0.00945042 340.402L49.6373 340.167L49.6278 338.167L49.6184 336.167L-0.00945042 336.402L0 338.402ZM49.6278 338.167L49.6312 340.167L99.259 340.083L99.2556 338.083L99.2523 336.083L49.6244 336.167L49.6278 338.167ZM99.2556 338.083L99.2588 340.083L198.514 339.924L198.511 337.924L198.508 335.924L99.2524 336.083L99.2556 338.083ZM198.511 337.924L198.508 339.924L297.764 340.084L297.767 338.084L297.77 336.084L198.514 335.924L198.511 337.924ZM297.767 338.084L297.763 340.084L347.391 340.169L347.395 338.169L347.398 336.169L297.77 336.084L297.767 338.084ZM347.395 338.169L347.385 340.169L397.013 340.402L397.023 338.402L397.032 336.402L347.404 336.169L347.395 338.169Z" fill="black" mask="url(#path-26-inside-3_670_4105)"/>
<path d="M182.105 206.615C183.853 206.674 186.167 207.79 188.793 210.159C191.227 212.355 193.828 215.536 196.356 219.634L196.861 220.466V220.467C204.753 233.676 212.196 245.991 217.959 255.365C220.84 260.051 223.303 264.005 225.193 266.97C227.066 269.908 228.412 271.932 229.041 272.708V272.708L229.044 272.711C229.354 273.091 229.865 273.35 230.31 273.541C230.807 273.753 231.435 273.962 232.161 274.171C233.616 274.59 235.556 275.033 237.819 275.49C242.349 276.404 248.262 277.397 254.361 278.404C260.469 279.412 266.769 280.436 272.099 281.414C277.127 282.336 281.204 283.203 283.449 283.96L283.874 284.11C284.169 284.22 284.609 284.694 284.777 286.23C284.935 287.672 284.803 289.672 284.411 292.085C283.629 296.895 281.854 303.095 279.633 309.204C277.411 315.311 274.764 321.272 272.258 325.608C271.001 327.782 269.805 329.502 268.743 330.625C268.212 331.188 267.747 331.565 267.359 331.781C266.975 331.995 266.742 332.01 266.616 331.988C266.332 331.932 265.318 331.639 263.657 331.116C262.024 330.601 259.829 329.886 257.242 329.018C252.068 327.283 245.336 324.939 238.41 322.373C231.481 319.805 224.368 317.018 218.428 314.395C212.817 311.917 208.368 309.633 206.072 307.858L205.642 307.509L205.394 307.292C202.832 304.993 200.141 300.725 197.463 294.957C194.714 289.036 192.033 281.655 189.545 273.485C184.724 257.657 180.647 238.944 178.201 222.313L177.969 220.71C177.227 215.479 177.491 211.833 178.355 209.564C178.782 208.443 179.338 207.702 179.947 207.249C180.546 206.803 181.26 206.586 182.105 206.615Z" fill="#FFD89D" stroke="black" stroke-width="2"/>
<path d="M279.424 284.069C280.175 284.086 281.278 284.119 282.676 284.183C285.472 284.312 289.45 284.565 294.17 285.063C303.322 286.029 315.231 287.912 326.708 291.578L327.817 291.938H327.818C329.646 292.54 332.422 294.368 335.54 297.001C338.625 299.607 341.942 302.912 344.842 306.349C347.749 309.795 350.2 313.327 351.59 316.383C352.285 317.913 352.692 319.273 352.785 320.413C352.877 321.544 352.657 322.386 352.183 322.996L352.173 323.007C351.729 323.595 351.265 323.78 350.791 323.79L349.109 323.824L349.942 325.285C350.995 327.131 351.661 328.838 351.807 330.284C351.939 331.599 351.641 332.648 350.833 333.459L350.665 333.619L350.661 333.623C349.638 334.543 348.207 334.64 346.298 333.832L344.177 332.934L344.97 335.097C345.311 336.028 345.388 336.773 345.262 337.352C345.158 337.827 344.901 338.269 344.382 338.665L344.143 338.832L344.139 338.833C343.663 339.14 342.931 339.269 341.855 339.095C340.788 338.922 339.506 338.469 338.06 337.777C335.171 336.394 331.818 334.148 328.553 331.681L327.229 333.173C329.191 335.212 330.732 337.159 331.468 338.768C331.835 339.571 331.958 340.199 331.911 340.664C331.869 341.077 331.688 341.428 331.246 341.739C329.787 342.763 327.935 342.939 325.665 342.378C323.383 341.815 320.803 340.534 318.048 338.824C315.302 337.12 312.445 335.03 309.608 332.895C306.786 330.771 303.972 328.591 301.364 326.756H301.363C298.657 324.852 295.178 322.73 292.08 321.542C290.54 320.952 289.008 320.558 287.674 320.59C286.39 320.621 285.175 321.061 284.424 322.194L284.279 322.429C283.795 323.293 283.886 324.252 284.185 325.082C284.484 325.913 285.031 326.744 285.678 327.509C286.892 328.947 288.6 330.323 290.224 331.228L290.547 331.402C293.627 333.01 297.247 334.842 299.872 336.745C301.189 337.699 302.167 338.611 302.706 339.45C303.192 340.206 303.261 340.789 303.041 341.312L302.993 341.417L302.992 341.417C302.503 342.398 301.416 343.026 299.627 343.257C297.851 343.487 295.608 343.29 293.206 342.837C288.417 341.935 283.292 340.077 280.645 339.056H280.644C274.352 336.629 264.682 330.82 262.153 329.274C262.203 329.002 262.269 328.65 262.35 328.227C262.56 327.129 262.873 325.551 263.28 323.636C264.096 319.805 265.291 314.632 266.802 309.249C268.314 303.86 270.136 298.289 272.202 293.652C274.218 289.127 276.388 285.678 278.594 284.053C278.786 284.056 279.065 284.061 279.424 284.069Z" fill="#FFD89D" stroke="black" stroke-width="2"/>
<mask id="path-30-inside-4_670_4105" fill="white">
<path d="M298.669 310.285C304.317 311.671 309.771 314.302 314.355 317.935C320.174 322.547 323.861 327.682 328.628 332.942C328.753 333.08 328.544 333.281 328.417 333.142C326.146 330.642 316.66 321.16 314.187 318.978C309.654 314.979 304.467 312.003 298.64 310.382C298.576 310.365 298.606 310.27 298.669 310.285Z"/>
</mask>
<path d="M298.669 310.285C304.317 311.671 309.771 314.302 314.355 317.935C320.174 322.547 323.861 327.682 328.628 332.942C328.753 333.08 328.544 333.281 328.417 333.142C326.146 330.642 316.66 321.16 314.187 318.978C309.654 314.979 304.467 312.003 298.64 310.382C298.576 310.365 298.606 310.27 298.669 310.285Z" fill="#263238"/>
<path d="M298.669 310.285L299.145 308.342L299.143 308.342L298.669 310.285ZM314.355 317.935L315.597 316.367L315.597 316.367L314.355 317.935ZM328.628 332.942L327.146 334.285L327.149 334.289L328.628 332.942ZM328.417 333.142L326.937 334.487L326.939 334.49L328.417 333.142ZM314.187 318.978L315.51 317.478L315.51 317.478L314.187 318.978ZM298.64 310.382L299.176 308.456L299.166 308.453L299.155 308.45L298.64 310.382ZM298.669 310.285L298.192 312.227C303.569 313.546 308.76 316.052 313.113 319.502L314.355 317.935L315.597 316.367C310.782 312.551 305.066 309.795 299.145 308.342L298.669 310.285ZM314.355 317.935L313.113 319.502C318.76 323.978 322.202 328.83 327.146 334.285L328.628 332.942L330.11 331.599C325.52 326.535 321.587 321.115 315.597 316.367L314.355 317.935ZM328.628 332.942L327.149 334.289C326.799 333.904 326.618 333.375 326.677 332.834C326.731 332.344 326.966 331.958 327.235 331.7C327.503 331.444 327.914 331.213 328.438 331.191C329.02 331.166 329.546 331.412 329.895 331.795L328.417 333.142L326.939 334.49C327.352 334.942 327.952 335.215 328.605 335.187C329.199 335.162 329.678 334.898 329.999 334.592C330.321 334.284 330.592 333.831 330.654 333.268C330.721 332.655 330.519 332.049 330.106 331.595L328.628 332.942ZM328.417 333.142L329.898 331.798C327.587 329.254 318.049 319.719 315.51 317.478L314.187 318.978L312.863 320.478C315.271 322.601 324.704 332.029 326.937 334.487L328.417 333.142ZM314.187 318.978L315.51 317.478C310.775 313.302 305.325 310.165 299.176 308.456L298.64 310.382L298.104 312.309C303.609 313.84 308.532 316.657 312.863 320.478L314.187 318.978ZM298.64 310.382L299.155 308.45C299.665 308.586 300.153 308.944 300.417 309.505C300.658 310.014 300.636 310.523 300.52 310.905C300.294 311.646 299.429 312.529 298.195 312.228L298.669 310.285L299.143 308.342C297.846 308.026 296.935 308.948 296.694 309.738C296.57 310.145 296.549 310.68 296.8 311.211C297.075 311.794 297.583 312.171 298.126 312.315L298.64 310.382Z" fill="black" mask="url(#path-30-inside-4_670_4105)"/>
<mask id="path-32-inside-5_670_4105" fill="white">
<path d="M304.064 300.293C310.305 302.59 316.702 304.92 322.376 308.461C328.586 312.336 333.21 318.19 337.766 323.831C340.502 327.219 343.168 330.663 345.747 334.174C345.856 334.321 345.655 334.522 345.537 334.374C340.923 328.554 336.136 322.867 331.176 317.342C326.51 312.144 321.166 308.015 314.887 304.979C311.349 303.269 307.688 301.835 304.031 300.404C303.963 300.377 303.994 300.266 304.064 300.293Z"/>
</mask>
<path d="M304.064 300.293C310.305 302.59 316.702 304.92 322.376 308.461C328.586 312.336 333.21 318.19 337.766 323.831C340.502 327.219 343.168 330.663 345.747 334.174C345.856 334.321 345.655 334.522 345.537 334.374C340.923 328.554 336.136 322.867 331.176 317.342C326.51 312.144 321.166 308.015 314.887 304.979C311.349 303.269 307.688 301.835 304.031 300.404C303.963 300.377 303.994 300.266 304.064 300.293Z" fill="#263238"/>
<path d="M304.064 300.293L303.353 302.162L303.363 302.166L303.374 302.17L304.064 300.293ZM322.376 308.461L321.317 310.158L321.317 310.158L322.376 308.461ZM337.766 323.831L339.322 322.574L339.322 322.574L337.766 323.831ZM345.747 334.174L344.136 335.358L344.136 335.359L345.747 334.174ZM345.537 334.374L343.97 335.616L343.972 335.618L345.537 334.374ZM331.176 317.342L329.688 318.678L329.688 318.678L331.176 317.342ZM314.887 304.979L315.757 303.179L315.757 303.179L314.887 304.979ZM304.031 300.404L304.76 298.541L304.76 298.541L304.031 300.404ZM304.064 300.293L303.374 302.17C309.655 304.482 315.849 306.746 321.317 310.158L322.376 308.461L323.435 306.765C317.554 303.095 310.954 300.698 304.755 298.416L304.064 300.293ZM322.376 308.461L321.317 310.158C327.187 313.821 331.6 319.38 336.21 325.087L337.766 323.831L339.322 322.574C334.819 317 329.985 310.852 323.435 306.764L322.376 308.461ZM337.766 323.831L336.21 325.087C338.929 328.454 341.576 331.874 344.136 335.358L345.747 334.174L347.359 332.99C344.76 329.452 342.075 325.983 339.322 322.574L337.766 323.831ZM345.747 334.174L344.136 335.359C343.473 334.457 343.832 333.44 344.33 332.953C344.594 332.696 345.034 332.431 345.618 332.426C346.271 332.42 346.796 332.743 347.103 333.129L345.537 334.374L343.972 335.618C344.338 336.079 344.931 336.432 345.652 336.426C346.304 336.42 346.809 336.123 347.124 335.816C347.725 335.229 348.13 334.037 347.358 332.988L345.747 334.174ZM345.537 334.374L347.104 333.131C342.465 327.281 337.653 321.562 332.664 316.006L331.176 317.342L329.688 318.678C334.619 324.171 339.38 329.827 343.97 335.616L345.537 334.374ZM331.176 317.342L332.664 316.006C327.837 310.628 322.286 306.335 315.757 303.179L314.887 304.979L314.016 306.78C320.046 309.695 325.184 313.66 329.688 318.678L331.176 317.342ZM314.887 304.979L315.757 303.179C312.139 301.429 308.405 299.968 304.76 298.541L304.031 300.404L303.302 302.266C306.97 303.701 310.56 305.109 314.016 306.78L314.887 304.979ZM304.031 300.404L304.76 298.541C305.92 298.995 306.123 300.178 305.916 300.888C305.807 301.26 305.549 301.71 305.048 302.01C304.489 302.346 303.857 302.354 303.353 302.162L304.064 300.293L304.776 298.424C304.237 298.218 303.574 298.23 302.991 298.58C302.468 298.894 302.192 299.368 302.075 299.769C301.853 300.534 302.073 301.785 303.302 302.266L304.031 300.404Z" fill="black" mask="url(#path-32-inside-5_670_4105)"/>
<mask id="path-34-inside-6_670_4105" fill="white">
<path d="M311.647 291.796C317.745 293.603 323.068 295.158 328.284 298.968C335.189 304.014 341.588 312.071 343.831 314.925C346.309 318.079 348.679 321.312 351.001 324.582C351.096 324.715 350.868 324.883 350.77 324.751C345.438 317.579 339.623 310.705 333.414 304.286C330.447 301.218 327.172 298.488 323.408 296.464C319.686 294.464 315.628 293.165 311.635 291.837C311.608 291.828 311.619 291.788 311.647 291.796Z"/>
</mask>
<path d="M311.647 291.796C317.745 293.603 323.068 295.158 328.284 298.968C335.189 304.014 341.588 312.071 343.831 314.925C346.309 318.079 348.679 321.312 351.001 324.582C351.096 324.715 350.868 324.883 350.77 324.751C345.438 317.579 339.623 310.705 333.414 304.286C330.447 301.218 327.172 298.488 323.408 296.464C319.686 294.464 315.628 293.165 311.635 291.837C311.608 291.828 311.619 291.788 311.647 291.796Z" fill="#263238"/>
<path d="M311.647 291.796L312.215 289.878L312.198 289.873L312.182 289.869L311.647 291.796ZM328.284 298.968L329.464 297.353L329.464 297.353L328.284 298.968ZM343.831 314.925L345.404 313.689L345.404 313.689L343.831 314.925ZM351.001 324.582L349.37 325.74L349.374 325.745L351.001 324.582ZM350.77 324.751L352.376 323.56L352.375 323.558L350.77 324.751ZM333.414 304.286L334.852 302.895L334.852 302.895L333.414 304.286ZM323.408 296.464L324.355 294.703L324.355 294.703L323.408 296.464ZM311.635 291.837L312.267 289.939L312.249 289.933L312.231 289.928L311.635 291.837ZM311.647 291.796L311.078 293.713C317.217 295.532 322.209 297.007 327.104 300.583L328.284 298.968L329.464 297.353C323.927 293.309 318.273 291.673 312.215 289.878L311.647 291.796ZM328.284 298.968L327.104 300.583C333.757 305.444 340.001 313.289 342.259 316.161L343.831 314.925L345.404 313.689C343.175 310.854 336.622 302.583 329.464 297.353L328.284 298.968ZM343.831 314.925L342.259 316.161C344.71 319.28 347.059 322.485 349.37 325.74L351.001 324.582L352.632 323.424C350.299 320.138 347.909 316.877 345.404 313.689L343.831 314.925ZM351.001 324.582L349.374 325.745C349.019 325.249 348.946 324.641 349.1 324.118C349.236 323.658 349.516 323.344 349.773 323.155C350.029 322.966 350.416 322.79 350.902 322.8C351.457 322.811 352.014 323.072 352.376 323.56L350.77 324.751L349.164 325.943C349.574 326.496 350.197 326.786 350.819 326.799C351.372 326.81 351.829 326.608 352.143 326.377C352.457 326.146 352.783 325.773 352.937 325.248C353.11 324.66 353.03 323.981 352.628 323.419L351.001 324.582ZM350.77 324.751L352.375 323.558C346.993 316.319 341.122 309.378 334.852 302.895L333.414 304.286L331.977 305.676C338.124 312.031 343.883 318.84 349.165 325.945L350.77 324.751ZM333.414 304.286L334.852 302.895C331.789 299.729 328.353 296.852 324.355 294.703L323.408 296.464L322.461 298.226C325.991 300.124 329.105 302.707 331.977 305.676L333.414 304.286ZM323.408 296.464L324.355 294.703C320.449 292.604 316.208 291.251 312.267 289.939L311.635 291.837L311.004 293.735C315.047 295.08 318.923 296.325 322.461 298.226L323.408 296.464ZM311.635 291.837L312.231 289.928C312.718 290.08 313.165 290.43 313.418 290.947C313.653 291.429 313.663 291.934 313.546 292.352C313.428 292.769 313.154 293.203 312.69 293.494C312.188 293.807 311.61 293.861 311.112 293.723L311.647 291.796L312.182 289.869C311.67 289.727 311.08 289.783 310.569 290.102C310.095 290.398 309.815 290.842 309.695 291.269C309.575 291.697 309.585 292.214 309.825 292.704C310.082 293.232 310.538 293.59 311.039 293.746L311.635 291.837Z" fill="black" mask="url(#path-34-inside-6_670_4105)"/>
<path d="M181.665 202.471C182.472 202.411 183.467 202.626 184.675 203.255C186.963 204.447 189.813 207.022 193.228 211.37L193.918 212.263C201.39 222.079 208.779 233.515 214.305 242.507C217.067 247.001 219.36 250.881 220.963 253.636C221.765 255.014 222.394 256.11 222.822 256.862C222.88 256.964 222.933 257.06 222.984 257.149L187.399 277.199C187.383 277.137 187.366 277.074 187.349 277.008C187.106 276.076 186.757 274.719 186.332 273.024C185.48 269.633 184.321 264.889 183.096 259.479C180.72 248.986 178.1 236.025 176.966 225.566L176.862 224.562C176.329 219.264 176.305 214.629 176.786 210.969C177.273 207.262 178.255 204.743 179.558 203.466C180.182 202.855 180.876 202.53 181.665 202.471Z" fill="#1F4C56" stroke="black" stroke-width="2"/>
<mask id="path-37-inside-7_670_4105" fill="white">
<path d="M218.621 252.232C207.909 257.669 197.281 263.46 187.181 269.989C187.031 270.087 187.184 270.337 187.343 270.259C198.149 264.998 208.599 258.887 218.799 252.529C218.965 252.425 218.794 252.144 218.621 252.232Z"/>
</mask>
<path d="M218.621 252.232C207.909 257.669 197.281 263.46 187.181 269.989C187.031 270.087 187.184 270.337 187.343 270.259C198.149 264.998 208.599 258.887 218.799 252.529C218.965 252.425 218.794 252.144 218.621 252.232Z" fill="#263238"/>
<path d="M218.621 252.232L219.526 254.016L219.528 254.015L218.621 252.232ZM187.181 269.989L186.095 268.31L186.092 268.312L187.181 269.989ZM187.343 270.259L186.467 268.461L186.466 268.462L187.343 270.259ZM218.799 252.529L217.744 250.83L217.741 250.832L218.799 252.529ZM218.621 252.232L217.716 250.449C206.972 255.902 196.276 261.728 186.095 268.31L187.181 269.989L188.267 271.669C198.285 265.192 208.846 259.437 219.526 254.016L218.621 252.232ZM187.181 269.989L186.092 268.312C185.547 268.666 185.208 269.233 185.135 269.846C185.069 270.4 185.227 270.882 185.435 271.226C185.809 271.844 186.899 272.701 188.22 272.057L187.343 270.259L186.466 268.462C187.628 267.895 188.561 268.666 188.857 269.154C189.026 269.433 189.164 269.839 189.106 270.321C189.042 270.863 188.74 271.361 188.27 271.667L187.181 269.989ZM187.343 270.259L188.218 272.058C199.113 266.754 209.629 260.602 219.857 254.226L218.799 252.529L217.741 250.832C207.57 257.171 197.185 263.243 186.467 268.461L187.343 270.259ZM218.799 252.529L219.854 254.228C220.429 253.871 220.778 253.286 220.852 252.66C220.918 252.1 220.756 251.617 220.549 251.275C220.189 250.679 219.079 249.755 217.714 250.449L218.621 252.232L219.528 254.015C218.336 254.621 217.398 253.794 217.125 253.343C216.962 253.073 216.823 252.674 216.879 252.193C216.944 251.646 217.252 251.135 217.744 250.83L218.799 252.529Z" fill="black" mask="url(#path-37-inside-7_670_4105)"/>
<path opacity="0.1" d="M216.32 260.901L187.4 277.198C187.385 277.138 187.368 277.075 187.352 277.01C187.109 276.077 186.76 274.72 186.334 273.025C185.482 269.635 184.324 264.891 183.099 259.48C180.723 248.987 178.104 236.026 176.972 225.565L176.866 224.562V224.561C176.186 217.847 176.33 212.218 177.27 208.289C177.74 206.323 178.392 204.857 179.176 203.893C179.793 203.133 180.482 202.691 181.26 202.534L216.32 260.901Z" fill="black" stroke="black" stroke-width="2"/>
<path d="M150.866 202.474C157.912 197.038 165.944 196.595 172.749 198.297C176.153 199.149 179.228 200.534 181.683 202.08C184.001 203.54 185.704 205.104 186.625 206.439L186.798 206.704C191.966 214.965 196.892 227.206 201.346 241.004C205.795 254.785 209.754 270.056 213.006 284.334C216.258 298.611 218.8 311.884 220.417 321.666C221.226 326.559 221.802 330.568 222.12 333.39C222.279 334.803 222.372 335.901 222.398 336.654C222.402 336.763 222.402 336.862 222.403 336.952H81.9985C82.0103 336.839 82.0232 336.713 82.0415 336.575C82.15 335.757 82.3651 334.587 82.689 333.097C83.3356 330.121 84.4026 325.932 85.8716 320.845C88.8089 310.673 93.3439 296.947 99.314 282.221C111.091 253.173 128.367 220.447 149.84 203.279L150.866 202.474Z" fill="#1F4C56" stroke="black" stroke-width="2"/>
<path d="M184.444 250.876C184.691 250.942 185.05 251.039 185.503 251.158C186.409 251.397 187.688 251.73 189.188 252.104C192.183 252.85 196.066 253.763 199.59 254.425C201.377 254.76 204.253 255.079 207.737 255.515C211.249 255.954 215.442 256.517 219.95 257.347C228.982 259.008 239.211 261.725 247.702 266.588L248.183 266.862L248.67 266.602H248.671C248.672 266.601 248.673 266.601 248.675 266.6C248.678 266.598 248.683 266.595 248.69 266.591C248.705 266.583 248.726 266.572 248.755 266.557C248.812 266.526 248.899 266.481 249.012 266.423C249.237 266.306 249.567 266.137 249.984 265.929C250.821 265.511 252.007 264.935 253.404 264.305C256.207 263.04 259.82 261.573 263.141 260.712C266.514 259.837 271.915 258.721 276.849 257.677C279.306 257.156 281.645 256.654 283.538 256.212C285.258 255.81 286.689 255.438 287.495 255.135L290.34 255.03L261.85 330.658L222.582 338.774L157.275 323.091L180.481 251.003L184.219 250.815C184.278 250.831 184.354 250.852 184.444 250.876Z" fill="white" stroke="black" stroke-width="2"/>
<path d="M241.469 267.721L215.994 340.568L153.41 324.833L177.534 250.48L241.469 267.721Z" fill="#455A64" stroke="black" stroke-width="2"/>
<path d="M251.078 268.493L225.537 341.248L218.02 340.835L243.465 268.075L251.078 268.493Z" fill="#37474F" stroke="black" stroke-width="2"/>
<path d="M262.907 331.433L227.803 340.833L253.246 268.355L292.055 254.949L262.907 331.433Z" fill="#455A64" stroke="black" stroke-width="2"/>
<path d="M153.001 201.732C155.193 200.723 157.216 200.46 158.722 201.029C160.143 201.567 161.392 202.962 161.83 205.982C162.245 208.844 161.9 213.038 160.325 218.934L159.993 220.135C154.517 239.39 147.281 255.702 141.437 267.311C138.516 273.114 135.943 277.741 134.113 280.974C133.201 282.584 132.463 283.867 131.966 284.764C131.718 285.211 131.518 285.583 131.382 285.862C131.316 286 131.253 286.138 131.208 286.264C131.185 286.325 131.158 286.407 131.139 286.499C131.13 286.545 131.104 286.671 131.117 286.833L131.145 287.005C131.315 287.684 131.93 287.891 132.182 287.953C132.492 288.029 132.847 288.039 133.182 288.027C133.872 288.003 134.793 287.87 135.842 287.681C136.896 287.491 138.136 287.234 139.487 286.945L143.799 286.017C143.879 286 144.104 285.999 144.541 286.266C144.968 286.527 145.486 286.98 146.085 287.646C147.28 288.973 148.656 290.99 150.127 293.517C153.063 298.558 156.284 305.461 159.095 312.479C161.907 319.497 164.291 326.585 165.57 331.99C166.212 334.703 166.56 336.934 166.566 338.5C166.569 339.29 166.483 339.83 166.358 340.157C166.298 340.314 166.242 340.388 166.213 340.417L166.179 340.439C158.726 342.185 138.812 343.906 119.572 342.934C109.959 342.448 100.575 341.291 93.0356 339.154C85.6657 337.066 80.3248 334.114 78.0513 330.195L77.8413 329.813C77.068 328.33 76.8842 325.92 77.4048 322.574C77.9191 319.269 79.0926 315.218 80.8325 310.583C84.3109 301.318 90.0017 289.854 96.9956 277.601C110.546 253.862 128.919 227.276 145.368 208.163L146.953 206.338C148.661 204.389 150.836 202.73 153.001 201.732Z" fill="#FFD89D" stroke="black" stroke-width="2"/>
<path d="M127.589 293.957C135.036 283.274 159.952 262.007 195.394 270.251L196.233 270.451C199.611 271.278 202.335 272.577 204.288 274.016C206.263 275.471 207.362 277.002 207.675 278.259C207.828 278.871 207.792 279.403 207.608 279.855C207.424 280.308 207.06 280.761 206.426 281.159C205.208 281.926 203.065 282.445 199.756 282.314L199.079 282.279C193.773 281.944 189.315 281.431 185.686 281.093C182.125 280.761 179.244 280.579 177.296 280.998L175.395 281.406L176.833 282.715L176.834 282.716C176.835 282.717 176.838 282.718 176.84 282.721C176.845 282.725 176.852 282.733 176.863 282.742C176.884 282.762 176.916 282.791 176.958 282.831C177.043 282.91 177.169 283.029 177.329 283.185C177.649 283.496 178.108 283.954 178.657 284.533C179.756 285.693 181.207 287.334 182.621 289.261C185.405 293.054 187.869 297.718 187.559 301.932L187.52 302.338C187.039 306.429 185.501 317.331 183.115 325.92C182.959 325.911 182.783 325.902 182.588 325.888C181.774 325.826 180.645 325.713 179.386 325.507L178.386 325.344L178.236 326.344V326.346C178.235 326.349 178.234 326.355 178.233 326.363C178.23 326.38 178.225 326.408 178.218 326.446C178.204 326.522 178.181 326.639 178.147 326.792C178.078 327.098 177.965 327.547 177.79 328.1C177.439 329.207 176.842 330.723 175.859 332.342C173.943 335.497 170.562 339.052 164.632 340.761L114.712 311.605C115.135 311.09 115.752 310.321 116.616 309.19C118.388 306.871 121.218 303.034 125.61 296.785L127.589 293.957Z" fill="#FFD89D" stroke="black" stroke-width="2"/>
<path d="M137.439 284.69C144.43 283.006 157.017 280.365 168.431 281.366L169.613 281.483C176.631 282.263 186.801 284.359 195.033 287.55C199.155 289.148 202.722 290.994 205.163 293.039C207.537 295.028 208.685 297.059 208.521 299.127L208.501 299.327C208.3 301.001 207.597 302.104 206.682 302.862C205.742 303.641 204.522 304.1 203.25 304.349C201.982 304.596 200.725 304.622 199.775 304.583C199.303 304.564 198.912 304.529 198.643 304.499C198.509 304.484 198.405 304.471 198.336 304.462C198.302 304.457 198.277 304.453 198.261 304.45C198.253 304.449 198.248 304.449 198.245 304.448C198.243 304.448 198.242 304.447 198.242 304.447V304.45L197.639 306.325C197.637 306.33 197.637 306.331 197.637 306.331L197.641 306.333C197.645 306.335 197.651 306.338 197.66 306.342C197.676 306.35 197.703 306.364 197.738 306.382C197.808 306.418 197.912 306.474 198.046 306.548C198.315 306.695 198.701 306.915 199.157 307.2C200.072 307.773 201.258 308.598 202.365 309.616C204.573 311.647 206.159 314.139 205.379 316.82L205.296 317.08C204.397 319.674 202.289 320.622 200.212 320.912C199.174 321.057 198.185 321.027 197.449 320.958C197.083 320.924 196.785 320.88 196.582 320.846C196.48 320.829 196.402 320.814 196.352 320.804C196.327 320.799 196.308 320.795 196.297 320.793L196.287 320.79V320.791L195.477 322.573H195.476C195.477 322.574 195.48 322.576 195.483 322.578C195.49 322.583 195.502 322.593 195.519 322.605C195.553 322.632 195.605 322.674 195.672 322.729C195.808 322.842 196.003 323.011 196.23 323.232C196.686 323.678 197.255 324.317 197.728 325.103C198.632 326.602 199.168 328.574 197.958 330.849L197.835 331.069C197.441 331.754 196.971 332.187 196.447 332.464C195.913 332.745 195.265 332.894 194.481 332.917C192.873 332.964 190.903 332.49 188.581 331.859C186.314 331.244 183.759 330.495 181.17 330.123C178.681 329.766 176.083 329.745 173.558 330.544C173.513 330.511 173.458 330.471 173.395 330.419C173.063 330.147 172.603 329.703 172.02 329.088C170.862 327.866 169.309 326.064 167.49 323.858C163.855 319.453 159.207 313.5 154.62 307.515C150.034 301.531 145.515 295.523 142.142 291.01C140.456 288.754 139.056 286.872 138.079 285.554C137.839 285.231 137.626 284.942 137.439 284.69Z" fill="#FFD89D" stroke="black" stroke-width="2"/>
<mask id="path-48-inside-8_670_4105" fill="white">
<path d="M165.574 295.272C172.214 294.743 187.601 297.435 197.968 305.159C198.203 305.335 198.198 305.607 197.95 305.493C184.739 299.427 171.328 296.364 165.559 295.406C165.482 295.393 165.499 295.278 165.574 295.272Z"/>
</mask>
<path d="M165.574 295.272C172.214 294.743 187.601 297.435 197.968 305.159C198.203 305.335 198.198 305.607 197.95 305.493C184.739 299.427 171.328 296.364 165.559 295.406C165.482 295.393 165.499 295.278 165.574 295.272Z" fill="#263238"/>
<path d="M165.574 295.272L165.726 297.266L165.733 297.265L165.574 295.272ZM197.968 305.159L199.168 303.559L199.163 303.555L197.968 305.159ZM197.95 305.493L197.115 307.311L197.116 307.311L197.95 305.493ZM165.559 295.406L165.887 293.433L165.878 293.431L165.559 295.406ZM165.574 295.272L165.733 297.265C168.759 297.024 174.03 297.518 179.864 299.054C185.68 300.586 191.859 303.101 196.773 306.763L197.968 305.159L199.163 303.555C193.71 299.493 187.012 296.8 180.883 295.186C174.772 293.577 169.029 292.99 165.415 293.278L165.574 295.272ZM197.968 305.159L196.769 306.76C196.631 306.657 196.493 306.514 196.379 306.321C196.281 306.157 196.124 305.823 196.142 305.36C196.162 304.831 196.462 303.998 197.371 303.648C198.083 303.373 198.654 303.616 198.784 303.675L197.95 305.493L197.116 307.311C197.37 307.427 198.035 307.679 198.81 307.38C199.783 307.005 200.116 306.115 200.139 305.51C200.176 304.532 199.575 303.864 199.168 303.559L197.968 305.159ZM197.95 305.493L198.785 303.676C185.371 297.517 171.78 294.411 165.887 293.433L165.559 295.406L165.231 297.379C170.876 298.316 184.107 301.338 197.115 307.311L197.95 305.493ZM165.559 295.406L165.878 293.431C166.397 293.515 166.895 293.817 167.207 294.309C167.491 294.757 167.54 295.229 167.493 295.593C167.405 296.271 166.848 297.18 165.726 297.266L165.574 295.272L165.422 293.278C164.225 293.369 163.622 294.339 163.526 295.079C163.475 295.475 163.529 295.978 163.829 296.452C164.158 296.97 164.682 297.29 165.24 297.38L165.559 295.406Z" fill="black" mask="url(#path-48-inside-8_670_4105)"/>
<mask id="path-50-inside-9_670_4105" fill="white">
<path d="M164.41 309.706C170.186 309.842 185.921 313.33 196.16 321.52C196.389 321.703 196.365 321.976 196.122 321.852C182.579 314.942 170.089 311.141 164.387 309.839C164.311 309.822 164.336 309.704 164.41 309.706Z"/>
</mask>
<path d="M164.41 309.706C170.186 309.842 185.921 313.33 196.16 321.52C196.389 321.703 196.365 321.976 196.122 321.852C182.579 314.942 170.089 311.141 164.387 309.839C164.311 309.822 164.336 309.704 164.41 309.706Z" fill="#263238"/>
<path d="M164.41 309.706L164.358 311.705L164.363 311.706L164.41 309.706ZM196.16 321.52L194.91 323.082L194.913 323.084L196.16 321.52ZM196.122 321.852L195.213 323.634L195.217 323.636L196.122 321.852ZM164.387 309.839L164.832 307.889L164.828 307.888L164.387 309.839ZM164.41 309.706L164.363 311.706C167 311.768 172.18 312.621 177.998 314.496C183.803 316.367 190.048 319.192 194.91 323.082L196.16 321.52L197.409 319.958C192.033 315.657 185.291 312.644 179.225 310.689C173.172 308.738 167.596 307.78 164.457 307.707L164.41 309.706ZM196.16 321.52L194.913 323.084C194.771 322.971 194.63 322.814 194.518 322.604C194.422 322.423 194.28 322.069 194.328 321.598C194.383 321.058 194.738 320.281 195.625 319.982C196.333 319.744 196.885 319.997 197.026 320.068L196.122 321.852L195.217 323.636C195.48 323.769 196.126 324.034 196.9 323.774C197.852 323.453 198.245 322.62 198.308 322.004C198.41 321.002 197.822 320.287 197.407 319.956L196.16 321.52ZM196.122 321.852L197.031 320.071C183.33 313.08 170.682 309.225 164.832 307.889L164.387 309.839L163.942 311.789C169.495 313.057 181.828 316.804 195.213 323.634L196.122 321.852ZM164.387 309.839L164.828 307.888C165.36 308.009 165.836 308.355 166.109 308.863C166.356 309.322 166.374 309.787 166.307 310.138C166.187 310.77 165.578 311.737 164.358 311.705L164.41 309.706L164.461 307.707C163.168 307.673 162.509 308.698 162.377 309.393C162.304 309.776 162.325 310.272 162.587 310.758C162.875 311.293 163.376 311.661 163.945 311.79L164.387 309.839Z" fill="black" mask="url(#path-50-inside-9_670_4105)"/>
<mask id="path-52-inside-10_670_4105" fill="white">
<path d="M103.06 304.472C107.132 299.169 119.453 289.513 132.105 286.978C132.393 286.92 132.589 287.107 132.338 287.216C118.997 292.983 107.73 300.917 103.148 304.573C103.087 304.622 103.014 304.531 103.06 304.472Z"/>
</mask>
<path d="M103.06 304.472C107.132 299.169 119.453 289.513 132.105 286.978C132.393 286.92 132.589 287.107 132.338 287.216C118.997 292.983 107.73 300.917 103.148 304.573C103.087 304.622 103.014 304.531 103.06 304.472Z" fill="#263238"/>
<path d="M103.06 304.472L104.645 305.691L104.646 305.69L103.06 304.472ZM132.105 286.978L131.713 285.016L131.712 285.017L132.105 286.978ZM132.338 287.216L133.132 289.052L133.135 289.05L132.338 287.216ZM103.148 304.573L101.901 303.01L101.897 303.013L103.148 304.573ZM103.06 304.472L104.646 305.69C106.504 303.271 110.411 299.674 115.462 296.359C120.498 293.053 126.502 290.14 132.498 288.939L132.105 286.978L131.712 285.017C125.056 286.35 118.573 289.533 113.267 293.015C107.978 296.487 103.688 300.37 101.473 303.254L103.06 304.472ZM132.105 286.978L132.497 288.939C132.327 288.973 132.124 288.981 131.901 288.935C131.71 288.897 131.352 288.787 131.018 288.457C130.634 288.077 130.237 287.298 130.583 286.402C130.855 285.7 131.408 285.439 131.541 285.381L132.338 287.216L133.135 289.05C133.394 288.938 134.017 288.613 134.313 287.847C134.685 286.887 134.267 286.044 133.829 285.612C133.124 284.915 132.215 284.916 131.713 285.016L132.105 286.978ZM132.338 287.216L131.545 285.38C117.999 291.235 106.581 299.275 101.901 303.01L103.148 304.573L104.396 306.136C108.88 302.559 119.995 294.731 133.132 289.052L132.338 287.216ZM103.148 304.573L101.897 303.013C102.307 302.684 102.867 302.514 103.449 302.616C103.977 302.709 104.36 302.996 104.595 303.276C105.03 303.794 105.325 304.807 104.645 305.691L103.06 304.472L101.475 303.252C100.749 304.195 101.057 305.284 101.533 305.85C101.788 306.154 102.198 306.458 102.756 306.556C103.367 306.663 103.959 306.486 104.399 306.134L103.148 304.573Z" fill="black" mask="url(#path-52-inside-10_670_4105)"/>
<path d="M159.039 199.398C159.903 199.487 160.597 199.815 161.149 200.387C161.715 200.974 162.191 201.881 162.486 203.219C163.045 205.752 162.911 209.604 161.787 215.03L161.549 216.136C158.859 228.201 154.881 241.24 151.57 251.275C149.916 256.29 148.429 260.549 147.357 263.553C146.821 265.055 146.389 266.244 146.091 267.056C146.051 267.164 146.013 267.265 145.978 267.359L107.86 252.76C107.898 252.706 107.938 252.65 107.979 252.592C108.534 251.807 109.345 250.667 110.364 249.25C112.403 246.417 115.276 242.48 118.615 238.063C125.09 229.496 133.291 219.159 140.538 211.575L141.236 210.849C144.933 207.039 148.45 204.048 151.548 202.072C154.686 200.069 157.233 199.212 159.039 199.398Z" fill="#1F4C56" stroke="black" stroke-width="2"/>
<mask id="path-55-inside-11_670_4105" fill="white">
<path d="M159.03 237.294C159.073 237.191 158.928 237.115 158.874 237.215C158.173 238.531 157.484 239.854 156.789 241.174C157.516 238.491 158.191 235.793 158.802 233.071C158.821 232.986 158.684 232.934 158.654 233.02C156.612 238.87 154.599 244.725 152.652 250.609C150.704 256.495 148.484 262.295 146.597 268.201C145.438 267.965 144.816 267.78 143.949 267.632C143.751 267.598 143.622 267.822 143.807 267.916C144.897 268.472 147.045 269.324 147.111 269.177C149.664 263.53 151.732 257.197 153.718 251.329C154.696 248.44 155.585 245.531 156.404 242.604C157.36 240.874 158.269 239.124 159.03 237.294Z"/>
</mask>
<path d="M159.03 237.294C159.073 237.191 158.928 237.115 158.874 237.215C158.173 238.531 157.484 239.854 156.789 241.174C157.516 238.491 158.191 235.793 158.802 233.071C158.821 232.986 158.684 232.934 158.654 233.02C156.612 238.87 154.599 244.725 152.652 250.609C150.704 256.495 148.484 262.295 146.597 268.201C145.438 267.965 144.816 267.78 143.949 267.632C143.751 267.598 143.622 267.822 143.807 267.916C144.897 268.472 147.045 269.324 147.111 269.177C149.664 263.53 151.732 257.197 153.718 251.329C154.696 248.44 155.585 245.531 156.404 242.604C157.36 240.874 158.269 239.124 159.03 237.294Z" fill="#263238"/>
<path d="M159.03 237.294L160.877 238.062L160.878 238.059L159.03 237.294ZM158.874 237.215L160.64 238.156L160.641 238.152L158.874 237.215ZM156.789 241.174L154.859 240.651L158.559 242.105L156.789 241.174ZM158.802 233.071L160.754 233.509L160.754 233.507L158.802 233.071ZM158.654 233.02L156.77 232.347L156.768 232.354L156.765 232.361L158.654 233.02ZM152.652 250.609L154.551 251.238L154.551 251.238L152.652 250.609ZM146.597 268.201L146.198 270.161L147.957 270.519L148.503 268.81L146.597 268.201ZM143.949 267.632L144.287 265.66L144.283 265.66L143.949 267.632ZM143.807 267.916L144.717 266.135L144.71 266.131L143.807 267.916ZM147.111 269.177L148.932 270.005L148.934 270.001L147.111 269.177ZM153.718 251.329L151.823 250.688L151.823 250.688L153.718 251.329ZM156.404 242.604L154.654 241.636L154.541 241.84L154.478 242.065L156.404 242.604ZM159.03 237.294L160.878 238.059C161.361 236.893 160.712 235.813 159.898 235.397C159.498 235.192 158.97 235.09 158.415 235.238C157.817 235.396 157.363 235.797 157.107 236.279L158.874 237.215L160.641 238.152C160.413 238.584 159.996 238.956 159.44 239.104C158.925 239.241 158.442 239.145 158.078 238.959C157.341 238.582 156.742 237.591 157.183 236.529L159.03 237.294ZM158.874 237.215L157.109 236.275C156.405 237.597 155.709 238.932 155.019 240.243L156.789 241.174L158.559 242.105C159.258 240.776 159.942 239.466 160.64 238.156L158.874 237.215ZM156.789 241.174L158.72 241.697C159.453 238.989 160.136 236.263 160.754 233.509L158.802 233.071L156.851 232.634C156.247 235.324 155.579 237.993 154.859 240.651L156.789 241.174ZM158.802 233.071L160.754 233.507C161.056 232.156 160.057 231.329 159.428 231.101C159.069 230.971 158.572 230.906 158.04 231.089C157.444 231.295 156.98 231.759 156.77 232.347L158.654 233.02L160.537 233.693C160.342 234.238 159.907 234.677 159.344 234.871C158.846 235.042 158.388 234.979 158.065 234.862C157.508 234.66 156.567 233.901 156.85 232.635L158.802 233.071ZM158.654 233.02L156.765 232.361C154.722 238.217 152.705 244.083 150.753 249.981L152.652 250.609L154.551 251.238C156.493 245.368 158.503 239.524 160.542 233.679L158.654 233.02ZM152.652 250.609L150.754 249.981C149.787 252.9 148.754 255.799 147.716 258.731C146.682 261.655 145.646 264.607 144.692 267.593L146.597 268.201L148.503 268.81C149.435 265.889 150.453 262.989 151.487 260.065C152.519 257.149 153.569 254.205 154.551 251.238L152.652 250.609ZM146.597 268.201L146.997 266.242C146.066 266.052 145.14 265.807 144.287 265.66L143.949 267.632L143.612 269.603C144.491 269.754 144.81 269.878 146.198 270.161L146.597 268.201ZM143.949 267.632L144.283 265.66C143.368 265.505 142.424 265.934 141.97 266.785C141.737 267.222 141.619 267.819 141.82 268.442C142.026 269.079 142.48 269.486 142.905 269.701L143.807 267.916L144.71 266.131C145.043 266.299 145.443 266.643 145.627 267.213C145.806 267.769 145.699 268.293 145.499 268.668C145.113 269.391 144.333 269.725 143.615 269.604L143.949 267.632ZM143.807 267.916L142.898 269.697C143.521 270.015 144.397 270.395 145.12 270.675C145.48 270.815 145.846 270.947 146.148 271.037C146.287 271.078 146.485 271.133 146.69 271.165C146.777 271.178 146.988 271.208 147.244 271.186C147.371 271.176 147.62 271.144 147.905 271.018C148.204 270.887 148.665 270.592 148.932 270.005L147.111 269.177L145.291 268.35C145.553 267.772 146.006 267.484 146.293 267.358C146.565 267.238 146.799 267.21 146.906 267.201C147.123 267.182 147.28 267.208 147.299 267.211C147.37 267.222 147.381 267.23 147.292 267.204C147.139 267.158 146.887 267.07 146.566 266.945C145.926 266.697 145.183 266.373 144.717 266.135L143.807 267.916ZM147.111 269.177L148.934 270.001C151.537 264.242 153.641 257.797 155.612 251.97L153.718 251.329L151.823 250.688C149.824 256.597 147.792 262.817 145.289 268.354L147.111 269.177ZM153.718 251.329L155.612 251.97C156.603 249.044 157.502 246.101 158.33 243.143L156.404 242.604L154.478 242.065C153.667 244.962 152.788 247.836 151.823 250.688L153.718 251.329ZM156.404 242.604L158.154 243.571C159.125 241.816 160.075 239.992 160.877 238.062L159.03 237.294L157.184 236.526C156.464 238.256 155.595 239.932 154.654 241.636L156.404 242.604Z" fill="black" mask="url(#path-55-inside-11_670_4105)"/>
<path d="M113.144 248.203L113.117 248.264L113.143 248.205M113.144 248.203L113.143 248.205M113.144 248.203L113.143 248.205M113.144 248.203L113.164 248.161L113.143 248.205" fill="#263238" stroke="black" stroke-width="2"/>
<path d="M191.13 188.105L183.075 205.237L182.477 206.505L182.429 206.607L182.406 206.717L182.405 206.718V206.72C182.404 206.722 182.403 206.725 182.403 206.729C182.401 206.737 182.397 206.749 182.394 206.766C182.386 206.799 182.375 206.849 182.361 206.914C182.331 207.044 182.288 207.236 182.231 207.48C182.116 207.97 181.949 208.669 181.738 209.507C181.315 211.184 180.718 213.407 180.021 215.607C179.32 217.819 178.531 219.96 177.732 221.496C177.328 222.27 176.953 222.83 176.626 223.166C176.383 223.416 176.256 223.454 176.229 223.459C171.576 222.62 167.409 218.294 164.332 213.613C162.815 211.304 161.608 208.977 160.781 207.091C160.368 206.147 160.055 205.324 159.846 204.676C159.651 204.072 159.576 203.699 159.56 203.533C159.56 203.531 159.561 203.528 159.562 203.525C159.581 203.447 159.612 203.331 159.656 203.177C159.743 202.869 159.873 202.438 160.041 201.898C160.377 200.82 160.859 199.328 161.438 197.561C162.595 194.028 164.14 189.408 165.684 184.817C167.228 180.227 168.772 175.667 169.93 172.255C170.509 170.549 170.992 169.13 171.329 168.138C171.333 168.128 171.336 168.118 171.339 168.108L191.13 188.105Z" fill="#FFD89D" stroke="black" stroke-width="2"/>
<path d="M191.125 188.109L183.068 205.23L183.066 205.235L182.471 206.515L182.425 206.614L182.402 206.719V206.721C182.401 206.723 182.4 206.725 182.4 206.728C182.398 206.734 182.396 206.743 182.394 206.755C182.388 206.779 182.38 206.815 182.369 206.863C182.348 206.958 182.316 207.098 182.274 207.279C182.19 207.64 182.066 208.162 181.908 208.799C181.656 209.823 181.315 211.143 180.914 212.577C169.056 207.449 165.326 196.653 164.2 189.217C165.932 184.041 167.831 178.427 169.306 174.083C170.054 171.88 170.693 170.004 171.145 168.679C171.214 168.476 171.279 168.285 171.339 168.108L191.125 188.109Z" fill="#263238" stroke="black" stroke-width="2"/>
<path d="M165.414 114.212C172.475 106.783 181.664 104.222 190.552 104.52L191.411 104.558C200.568 105.053 210.106 108.571 216.829 117.011C223.45 125.322 227.463 138.56 225.502 158.787L225.404 159.755C223.223 180.487 215.866 191.173 208.135 196.596C200.857 201.7 193.082 202.258 188.561 201.923L187.7 201.845C183.671 201.411 174.972 200.207 167.291 194.016C159.776 187.958 153.075 176.992 152.906 156.799L152.903 155.83C152.944 134.926 158.114 121.892 165.414 114.212Z" fill="#FFD89D" stroke="black" stroke-width="2"/>
<path d="M215.632 167.137C216.389 167.252 216.883 167.693 217.185 168.38C217.504 169.106 217.591 170.092 217.419 171.106C217.248 172.118 216.839 173.043 216.3 173.654C215.778 174.246 215.191 174.496 214.543 174.398H214.544C213.934 174.305 213.506 173.923 213.236 173.229C212.953 172.502 212.887 171.504 213.061 170.475C213.235 169.448 213.627 168.507 214.131 167.883C214.565 167.347 215.007 167.12 215.445 167.123L215.632 167.137Z" fill="#263238" stroke="black" stroke-width="2"/>
<path d="M192.5 164.703C192.979 164.191 193.544 163.939 194.231 164.028L194.37 164.051H194.371C194.867 164.146 195.277 164.514 195.543 165.26C195.813 166.017 195.873 167.036 195.697 168.063C195.522 169.092 195.131 170.01 194.625 170.601C194.172 171.128 193.68 171.352 193.121 171.282L193.009 171.265H193.008C192.364 171.141 191.892 170.707 191.595 169.973C191.288 169.215 191.208 168.206 191.381 167.194C191.554 166.181 191.96 165.28 192.5 164.703Z" fill="#263238" stroke="black" stroke-width="2"/>
<path d="M215.558 157.142C216.132 156.675 216.901 156.646 217.879 156.942L218.311 157.088L218.312 157.089C219.397 157.492 220.109 158.039 220.698 158.965L220.815 159.156C220.911 159.319 220.902 159.507 220.729 159.705C220.562 159.895 220.345 159.967 220.171 159.945L220.1 159.93V159.929L219.776 159.825C219.037 159.57 218.39 159.242 217.516 158.877H217.517C216.435 158.424 215.937 158.287 215.523 157.732L215.441 157.615L215.436 157.581C215.43 157.537 215.43 157.474 215.444 157.401C215.457 157.328 215.482 157.262 215.509 157.211L215.556 157.143L215.558 157.142Z" fill="#263238" stroke="black" stroke-width="2"/>
<path d="M194.281 154.184C195.466 154.18 196.306 154.424 196.764 155.057L196.851 155.188L196.852 155.19C196.854 155.193 196.866 155.219 196.874 155.273C196.882 155.331 196.882 155.403 196.871 155.476C196.859 155.549 196.837 155.607 196.817 155.646C196.796 155.684 196.786 155.686 196.802 155.674C196.33 156.022 195.931 156.08 195.234 156.11L194.423 156.141C193.346 156.188 192.557 156.291 191.638 156.236H191.639C191.449 156.224 191.228 156.076 191.122 155.804C191.037 155.586 191.071 155.422 191.177 155.306L191.227 155.258C192.101 154.539 192.936 154.226 194.053 154.188L194.281 154.184Z" fill="#263238" stroke="black" stroke-width="2"/>
<mask id="path-65-inside-12_670_4105" fill="white">
<path d="M191.237 188.312C191.744 189.126 192.191 190.185 193.176 190.514C194.12 190.829 195.355 190.665 196.321 190.535C196.417 190.521 196.483 190.636 196.407 190.707C195.431 191.602 193.758 191.905 192.528 191.368C191.326 190.844 190.968 189.603 190.94 188.376C190.936 188.202 191.163 188.194 191.237 188.312Z"/>
</mask>
<path d="M191.237 188.312C191.744 189.126 192.191 190.185 193.176 190.514C194.12 190.829 195.355 190.665 196.321 190.535C196.417 190.521 196.483 190.636 196.407 190.707C195.431 191.602 193.758 191.905 192.528 191.368C191.326 190.844 190.968 189.603 190.94 188.376C190.936 188.202 191.163 188.194 191.237 188.312Z" fill="#263238"/>
<path d="M191.237 188.312L192.934 187.255L192.933 187.252L191.237 188.312ZM193.176 190.514L192.543 192.411L192.543 192.411L193.176 190.514ZM196.321 190.535L196.588 192.517L196.6 192.515L196.321 190.535ZM196.407 190.707L197.759 192.181L197.764 192.176L197.77 192.171L196.407 190.707ZM192.528 191.368L191.728 193.201L191.728 193.201L192.528 191.368ZM190.94 188.376L188.941 188.42L188.941 188.421L190.94 188.376ZM191.237 188.312L189.54 189.37C189.654 189.554 190.071 190.308 190.413 190.776C190.832 191.348 191.495 192.062 192.543 192.411L193.176 190.514L193.808 188.616C193.871 188.637 193.819 188.658 193.641 188.414C193.553 188.293 193.46 188.144 193.34 187.94C193.238 187.767 193.079 187.487 192.934 187.255L191.237 188.312ZM193.176 190.514L192.543 192.411C193.337 192.676 194.151 192.711 194.805 192.69C195.47 192.668 196.118 192.58 196.588 192.517L196.321 190.535L196.055 188.553C195.559 188.619 195.106 188.678 194.675 188.692C194.234 188.707 193.959 188.667 193.808 188.616L193.176 190.514ZM196.321 190.535L196.6 192.515C195.735 192.637 194.998 192.161 194.661 191.526C194.293 190.832 194.364 189.876 195.045 189.243L196.407 190.707L197.77 192.171C198.526 191.467 198.602 190.419 198.196 189.653C197.821 188.946 197.003 188.419 196.043 188.554L196.321 190.535ZM196.407 190.707L195.055 189.233C194.647 189.608 193.813 189.747 193.328 189.535L192.528 191.368L191.728 193.201C193.703 194.063 196.216 193.596 197.759 192.181L196.407 190.707ZM192.528 191.368L193.328 189.535C193.24 189.497 193.18 189.45 193.111 189.3C193.023 189.107 192.95 188.789 192.94 188.331L190.94 188.376L188.941 188.421C188.973 189.859 189.409 192.189 191.728 193.201L192.528 191.368ZM190.94 188.376L192.94 188.332C192.949 188.753 192.808 189.244 192.434 189.644C192.084 190.016 191.662 190.171 191.331 190.216C190.756 190.295 189.991 190.092 189.541 189.373L191.237 188.312L192.933 187.252C192.409 186.414 191.494 186.156 190.788 186.253C190.391 186.307 189.908 186.489 189.515 186.908C189.097 187.354 188.93 187.912 188.941 188.42L190.94 188.376Z" fill="black" mask="url(#path-65-inside-12_670_4105)"/>
<mask id="path-67-inside-13_670_4105" fill="white">
<path d="M204.797 180.254C204.797 180.254 204.616 184.572 204.259 186.561C204.224 186.747 203.731 186.748 203.052 186.666C203.019 186.67 202.999 186.68 202.975 186.654C199.389 186.566 196.095 184.714 194.491 181.462C194.39 181.243 194.678 181.084 194.835 181.24C197.092 183.638 199.88 184.66 202.964 185.276C203.203 184.751 203.045 177.794 203.345 177.902C204.619 178.365 206.827 179.373 207.647 179.742C207.829 176.939 207.95 168.956 208.287 163.851C208.308 163.531 208.804 163.519 208.826 163.817C209.422 171.664 209.613 175.761 209.366 181.81C209.347 182.282 205.527 180.737 204.797 180.254Z"/>
</mask>
<path d="M204.797 180.254C204.797 180.254 204.616 184.572 204.259 186.561C204.224 186.747 203.731 186.748 203.052 186.666C203.019 186.67 202.999 186.68 202.975 186.654C199.389 186.566 196.095 184.714 194.491 181.462C194.39 181.243 194.678 181.084 194.835 181.24C197.092 183.638 199.88 184.66 202.964 185.276C203.203 184.751 203.045 177.794 203.345 177.902C204.619 178.365 206.827 179.373 207.647 179.742C207.829 176.939 207.95 168.956 208.287 163.851C208.308 163.531 208.804 163.519 208.826 163.817C209.422 171.664 209.613 175.761 209.366 181.81C209.347 182.282 205.527 180.737 204.797 180.254Z" fill="#263238"/>
<path d="M204.797 180.254L205.9 178.586L202.947 176.633L202.799 180.171L204.797 180.254ZM204.259 186.561L206.225 186.924L206.227 186.915L204.259 186.561ZM203.052 186.666L203.293 184.68L203.03 184.648L202.768 184.686L203.052 186.666ZM202.975 186.654L204.447 185.3L203.873 184.675L203.024 184.655L202.975 186.654ZM194.491 181.462L192.674 182.298L192.686 182.322L192.697 182.347L194.491 181.462ZM194.835 181.24L196.291 179.869L196.268 179.845L196.244 179.821L194.835 181.24ZM202.964 185.276L202.573 187.237L204.127 187.547L204.784 186.105L202.964 185.276ZM203.345 177.902L204.029 176.022L204.023 176.02L203.345 177.902ZM207.647 179.742L206.825 181.566L209.456 182.751L209.643 179.871L207.647 179.742ZM208.287 163.851L210.283 163.983L210.283 163.982L208.287 163.851ZM208.826 163.817L206.831 163.963L206.831 163.968L208.826 163.817ZM209.366 181.81L207.368 181.729L207.368 181.73L209.366 181.81ZM204.797 180.254C202.799 180.171 202.799 180.17 202.799 180.17C202.799 180.17 202.799 180.17 202.799 180.17C202.799 180.171 202.799 180.171 202.799 180.171C202.799 180.171 202.799 180.172 202.799 180.173C202.799 180.174 202.799 180.177 202.798 180.181C202.798 180.188 202.798 180.2 202.797 180.215C202.796 180.246 202.793 180.292 202.791 180.351C202.785 180.47 202.777 180.643 202.766 180.857C202.744 181.285 202.711 181.876 202.667 182.527C202.576 183.863 202.447 185.336 202.29 186.207L204.259 186.561L206.227 186.915C206.428 185.798 206.568 184.117 206.657 182.797C206.703 182.12 206.738 181.507 206.761 181.063C206.772 180.841 206.781 180.661 206.786 180.536C206.789 180.473 206.792 180.425 206.793 180.391C206.794 180.374 206.794 180.361 206.795 180.352C206.795 180.348 206.795 180.344 206.795 180.342C206.795 180.341 206.795 180.34 206.795 180.339C206.795 180.339 206.795 180.338 206.795 180.338C206.795 180.338 206.795 180.338 206.795 180.338C206.795 180.338 206.795 180.338 204.797 180.254ZM204.259 186.561L202.292 186.198C202.463 185.268 203.183 184.901 203.402 184.813C203.534 184.76 203.637 184.738 203.685 184.729C203.738 184.72 203.77 184.718 203.773 184.718C203.777 184.717 203.739 184.719 203.643 184.714C203.552 184.708 203.436 184.697 203.293 184.68L203.052 186.666L202.812 188.651C203.176 188.695 203.618 188.735 204.021 188.71C204.206 188.699 204.543 188.666 204.9 188.522C205.243 188.384 206.037 187.948 206.225 186.924L204.259 186.561ZM203.052 186.666L202.768 184.686C202.735 184.691 202.621 184.71 202.697 184.697C202.715 184.694 202.86 184.668 203.05 184.672C203.268 184.676 203.544 184.719 203.834 184.853C204.116 184.984 204.316 185.157 204.447 185.3L202.975 186.654L201.504 188.008C201.647 188.164 201.858 188.346 202.151 188.482C202.453 188.622 202.741 188.666 202.971 188.671C203.172 188.675 203.331 188.647 203.362 188.642C203.452 188.626 203.353 188.643 203.337 188.645L203.052 186.666ZM202.975 186.654L203.024 184.655C200.087 184.583 197.52 183.082 196.285 180.577L194.491 181.462L192.697 182.347C194.67 186.347 198.691 188.549 202.926 188.653L202.975 186.654ZM194.491 181.462L196.308 180.626C196.484 181.009 196.536 181.495 196.367 181.976C196.209 182.426 195.905 182.738 195.6 182.922C195.022 183.271 194.098 183.328 193.425 182.658L194.835 181.24L196.244 179.821C195.414 178.996 194.268 179.054 193.532 179.498C193.149 179.73 192.782 180.113 192.593 180.65C192.394 181.217 192.448 181.805 192.674 182.298L194.491 181.462ZM194.835 181.24L193.378 182.611C196.044 185.443 199.302 186.585 202.573 187.237L202.964 185.276L203.355 183.315C200.458 182.736 198.14 181.834 196.291 179.869L194.835 181.24ZM202.964 185.276L204.784 186.105C204.927 185.791 204.97 185.482 204.982 185.404C205.004 185.258 205.019 185.105 205.03 184.963C205.053 184.675 205.069 184.323 205.081 183.952C205.105 183.206 205.117 182.267 205.131 181.383C205.145 180.48 205.161 179.638 205.19 179.031C205.205 178.717 205.222 178.527 205.234 178.439C205.243 178.372 205.237 178.461 205.187 178.607C205.172 178.652 205.082 178.926 204.841 179.209C204.709 179.364 204.453 179.614 204.045 179.77C203.59 179.944 203.101 179.939 202.668 179.784L203.345 177.902L204.023 176.02C203.581 175.861 203.082 175.856 202.618 176.033C202.201 176.193 201.937 176.45 201.796 176.615C201.538 176.918 201.432 177.225 201.402 177.315C201.321 177.551 201.287 177.779 201.271 177.893C201.234 178.167 201.211 178.507 201.195 178.838C201.162 179.522 201.146 180.432 201.132 181.32C201.118 182.227 201.106 183.12 201.083 183.822C201.072 184.175 201.058 184.453 201.043 184.645C201.035 184.744 201.029 184.793 201.027 184.807C201.014 184.888 201.031 184.695 201.144 184.447L202.964 185.276ZM203.345 177.902L202.662 179.781C203.846 180.212 205.964 181.177 206.825 181.566L207.647 179.742L208.469 177.919C207.69 177.568 205.392 176.518 204.029 176.022L203.345 177.902ZM207.647 179.742L209.643 179.871C209.736 178.427 209.813 175.677 209.908 172.723C210.003 169.735 210.117 166.496 210.283 163.983L208.287 163.851L206.292 163.719C206.12 166.311 206.005 169.616 205.91 172.596C205.814 175.611 205.739 178.254 205.651 179.613L207.647 179.742ZM208.287 163.851L210.283 163.982C210.209 165.113 209.235 165.574 208.647 165.6C208.338 165.614 207.942 165.544 207.571 165.278C207.154 164.979 206.87 164.5 206.831 163.963L208.826 163.817L210.82 163.67C210.77 162.984 210.416 162.395 209.899 162.025C209.428 161.688 208.903 161.585 208.465 161.604C207.618 161.643 206.386 162.27 206.291 163.72L208.287 163.851ZM208.826 163.817L206.831 163.968C207.425 171.785 207.61 175.793 207.368 181.729L209.366 181.81L211.364 181.892C211.616 175.729 211.419 171.543 210.82 163.665L208.826 163.817ZM209.366 181.81L207.368 181.73C207.382 181.383 207.492 181.013 207.727 180.684C207.952 180.37 208.225 180.186 208.431 180.084C208.797 179.903 209.106 179.9 209.158 179.899C209.306 179.896 209.349 179.921 209.197 179.886C208.949 179.828 208.541 179.699 208.042 179.514C207.558 179.336 207.052 179.128 206.63 178.94C206.419 178.846 206.239 178.761 206.099 178.691C205.944 178.613 205.89 178.579 205.9 178.586L204.797 180.254L203.694 181.923C204.032 182.146 204.549 182.392 205.002 182.594C205.502 182.817 206.089 183.057 206.654 183.266C207.204 183.469 207.799 183.668 208.296 183.783C208.516 183.834 208.867 183.905 209.23 183.898C209.39 183.896 209.784 183.878 210.208 183.668C210.758 183.395 211.328 182.789 211.364 181.891L209.366 181.81Z" fill="black" mask="url(#path-67-inside-13_670_4105)"/>
<path d="M177.222 98.0845C180.475 96.1469 185.053 94.4512 190.569 95.1841L191.105 95.2622C196.952 96.1973 201.225 98.6977 204.035 100.961C205.441 102.094 206.48 103.166 207.163 103.949C207.504 104.34 207.756 104.658 207.92 104.875C208.002 104.984 208.063 105.068 208.101 105.122C208.12 105.148 208.134 105.168 208.142 105.18C208.146 105.186 208.149 105.191 208.151 105.193V105.194H208.152L208.527 105.758L209.192 105.617L209.191 105.616C209.193 105.615 209.199 105.615 209.206 105.614C209.221 105.611 209.246 105.606 209.28 105.6C209.348 105.588 209.454 105.571 209.595 105.551C209.876 105.513 210.294 105.467 210.821 105.442C211.875 105.392 213.357 105.428 215.048 105.772C218.308 106.435 222.371 108.243 225.701 112.86L226.022 113.315C229.431 118.303 230.395 123.919 230.49 128.335C230.538 130.538 230.37 132.425 230.19 133.757C230.1 134.423 230.007 134.949 229.938 135.305C229.903 135.483 229.873 135.619 229.854 135.708C229.844 135.753 229.837 135.786 229.832 135.807C229.83 135.818 229.827 135.825 229.826 135.83L229.825 135.833L229.727 136.235L229.942 136.589C232.694 141.138 232.583 145.29 231.44 148.274C230.863 149.779 230.025 150.983 229.16 151.796C228.69 152.239 228.24 152.537 227.845 152.721L227.14 143.411L227.089 142.741L226.45 142.535L225.815 142.32C219.325 140.048 215.364 135.978 213.007 132.427C211.789 130.592 211 128.896 210.518 127.664C210.277 127.048 210.113 126.55 210.01 126.21C209.959 126.041 209.922 125.91 209.9 125.825L209.87 125.708L209.102 122.382L207.954 125.598C205.789 131.668 202.36 135.333 198.474 137.47C194.565 139.62 190.112 140.268 185.858 140.147C181.606 140.026 177.61 139.139 174.666 138.275C173.197 137.844 171.997 137.42 171.167 137.106C170.753 136.949 170.43 136.82 170.214 136.73C170.106 136.685 170.024 136.651 169.97 136.627C169.944 136.616 169.924 136.608 169.911 136.602C169.905 136.599 169.9 136.597 169.898 136.596L169.895 136.594L168.555 135.998L168.489 137.462C168.22 143.38 165.585 149.337 161.645 153.265C157.845 157.053 152.927 158.886 147.736 157.174L147.233 156.998C145.839 156.478 144.233 154.778 143.022 152.242C141.907 149.906 141.211 147.026 141.324 144.145L141.359 143.569C141.739 138.659 143.184 135.475 144.489 133.54C145.143 132.569 145.768 131.905 146.217 131.49C146.442 131.282 146.623 131.137 146.742 131.047C146.802 131.003 146.846 130.971 146.872 130.954C146.883 130.946 146.89 130.941 146.895 130.938L147.599 130.5L147.299 129.727C147.298 129.725 147.296 129.72 147.294 129.714C147.289 129.701 147.281 129.68 147.271 129.65C147.25 129.59 147.217 129.497 147.178 129.372C147.099 129.121 146.989 128.744 146.874 128.256C146.644 127.281 146.395 125.867 146.323 124.136C146.178 120.678 146.743 115.962 149.601 110.943C152.35 106.114 157.612 103.994 162.392 103.112C164.762 102.674 166.957 102.552 168.563 102.541C169.364 102.535 170.015 102.556 170.463 102.579C170.687 102.59 170.86 102.602 170.975 102.611C171.032 102.615 171.076 102.618 171.104 102.621C171.118 102.622 171.128 102.623 171.134 102.624C171.137 102.624 171.139 102.624 171.14 102.625H171.141L171.659 102.674L171.998 102.278L171.997 102.277L171.999 102.276C172.002 102.273 172.006 102.268 172.012 102.261C172.024 102.247 172.044 102.225 172.072 102.195C172.126 102.135 172.21 102.044 172.323 101.926C172.548 101.692 172.887 101.352 173.333 100.95C174.227 100.143 175.543 99.0844 177.222 98.0845Z" fill="#263238" stroke="black" stroke-width="2"/>
<mask id="path-70-inside-14_670_4105" fill="white">
<path d="M208.856 123.457C208.458 125.606 207.931 127.724 207.108 129.724C206.387 131.76 205.367 133.66 204.199 135.429C201.795 138.921 198.275 141.556 194.193 142.45C190.131 143.648 185.809 142.751 181.658 141.958C179.623 141.291 177.526 140.764 175.517 139.977C173.516 139.16 171.531 138.294 169.489 137.509C171.368 138.602 173.304 139.612 175.225 140.672C177.198 141.61 179.299 142.28 181.344 143.099C185.575 144.16 190.095 145.106 194.552 143.943C198.96 142.86 202.862 139.919 205.179 136.074C207.483 132.227 208.683 127.829 208.856 123.457Z"/>
</mask>
<path d="M208.856 123.457C208.458 125.606 207.931 127.724 207.108 129.724C206.387 131.76 205.367 133.66 204.199 135.429C201.795 138.921 198.275 141.556 194.193 142.45C190.131 143.648 185.809 142.751 181.658 141.958C179.623 141.291 177.526 140.764 175.517 139.977C173.516 139.16 171.531 138.294 169.489 137.509C171.368 138.602 173.304 139.612 175.225 140.672C177.198 141.61 179.299 142.28 181.344 143.099C185.575 144.16 190.095 145.106 194.552 143.943C198.96 142.86 202.862 139.919 205.179 136.074C207.483 132.227 208.683 127.829 208.856 123.457Z" fill="#263238"/>
<path d="M208.856 123.457L210.855 123.536L206.889 123.093L208.856 123.457ZM207.108 129.724L205.258 128.963L205.239 129.01L205.222 129.057L207.108 129.724ZM204.199 135.429L205.846 136.564L205.857 136.547L205.868 136.531L204.199 135.429ZM194.193 142.45L193.765 140.497L193.695 140.512L193.627 140.532L194.193 142.45ZM181.658 141.958L181.035 143.859L181.157 143.899L181.283 143.923L181.658 141.958ZM175.517 139.977L174.76 141.829L174.774 141.834L174.787 141.84L175.517 139.977ZM169.489 137.509L170.206 135.642L168.483 139.238L169.489 137.509ZM175.225 140.672L174.258 142.423L174.311 142.452L174.366 142.479L175.225 140.672ZM181.344 143.099L180.6 144.956L180.726 145.006L180.858 145.039L181.344 143.099ZM194.552 143.943L194.075 142.001L194.061 142.005L194.047 142.008L194.552 143.943ZM205.179 136.074L206.892 137.107L206.894 137.102L205.179 136.074ZM208.856 123.457L206.889 123.093C206.505 125.169 206.009 127.139 205.258 128.963L207.108 129.724L208.957 130.485C209.852 128.309 210.412 126.043 210.823 123.82L208.856 123.457ZM207.108 129.724L205.222 129.057C204.568 130.904 203.632 132.658 202.53 134.328L204.199 135.429L205.868 136.531C207.102 134.662 208.205 132.616 208.993 130.392L207.108 129.724ZM204.199 135.429L202.551 134.295C200.388 137.438 197.275 139.728 193.765 140.497L194.193 142.45L194.62 144.404C199.275 143.385 203.202 140.404 205.846 136.564L204.199 135.429ZM194.193 142.45L193.627 140.532C190.122 141.565 186.32 140.812 182.033 139.994L181.658 141.958L181.283 143.923C185.299 144.69 190.14 145.73 194.758 144.369L194.193 142.45ZM181.658 141.958L182.281 140.058C180.047 139.326 178.205 138.882 176.246 138.115L175.517 139.977L174.787 141.84C176.847 142.646 179.2 143.257 181.035 143.859L181.658 141.958ZM175.517 139.977L176.273 138.126C174.335 137.334 172.269 136.435 170.206 135.642L169.489 137.509L168.771 139.376C170.792 140.153 172.697 140.986 174.76 141.829L175.517 139.977ZM169.489 137.509L168.483 139.238C170.384 140.343 172.397 141.396 174.258 142.423L175.225 140.672L176.191 138.921C174.211 137.828 172.352 136.861 170.494 135.78L169.489 137.509ZM175.225 140.672L174.366 142.479C176.399 143.445 178.752 144.215 180.6 144.956L181.344 143.099L182.088 141.243C179.846 140.345 177.998 139.776 176.083 138.866L175.225 140.672ZM181.344 143.099L180.858 145.039C185.075 146.096 190.052 147.184 195.057 145.879L194.552 143.943L194.047 142.008C190.137 143.028 186.075 142.223 181.83 141.159L181.344 143.099ZM194.552 143.943L195.029 145.886C199.968 144.672 204.308 141.394 206.892 137.107L205.179 136.074L203.465 135.042C201.416 138.443 197.953 141.048 194.075 142.001L194.552 143.943ZM205.179 136.074L206.894 137.102C209.385 132.943 210.669 128.214 210.855 123.536L208.856 123.457L206.858 123.377C206.697 127.445 205.58 131.511 203.463 135.047L205.179 136.074Z" fill="black" mask="url(#path-70-inside-14_670_4105)"/>
<mask id="path-72-inside-15_670_4105" fill="white">
<path d="M171.238 101.628C167.248 100.489 163.006 100.166 158.821 100.735C154.647 101.283 150.488 103.144 147.556 106.411C146.16 108.098 145.091 109.98 144.311 111.962C143.47 113.925 142.958 116.05 142.826 118.187C142.521 122.457 143.755 126.831 146.367 130.088C144.3 126.49 143.48 122.282 143.997 118.297C144.522 114.36 146.138 110.381 148.704 107.425C149.984 105.927 151.579 104.723 153.336 103.795C155.127 102.934 157.033 102.285 159.019 101.896C162.985 101.114 167.141 101.112 171.238 101.628Z"/>
</mask>
<path d="M171.238 101.628C167.248 100.489 163.006 100.166 158.821 100.735C154.647 101.283 150.488 103.144 147.556 106.411C146.16 108.098 145.091 109.98 144.311 111.962C143.47 113.925 142.958 116.05 142.826 118.187C142.521 122.457 143.755 126.831 146.367 130.088C144.3 126.49 143.48 122.282 143.997 118.297C144.522 114.36 146.138 110.381 148.704 107.425C149.984 105.927 151.579 104.723 153.336 103.795C155.127 102.934 157.033 102.285 159.019 101.896C162.985 101.114 167.141 101.112 171.238 101.628Z" fill="#263238"/>
<path d="M171.238 101.628L170.988 103.612L171.787 99.7047L171.238 101.628ZM158.821 100.735L159.082 102.718L159.09 102.717L158.821 100.735ZM147.556 106.411L146.068 105.076L146.041 105.105L146.016 105.136L147.556 106.411ZM144.311 111.962L146.149 112.75L146.161 112.722L146.172 112.695L144.311 111.962ZM142.826 118.187L144.821 118.329L144.821 118.32L144.822 118.31L142.826 118.187ZM146.367 130.088L144.807 131.339L148.102 129.092L146.367 130.088ZM143.997 118.297L142.014 118.033L142.013 118.04L143.997 118.297ZM148.704 107.425L150.214 108.736L150.219 108.73L150.224 108.724L148.704 107.425ZM153.336 103.795L152.47 101.992L152.436 102.009L152.402 102.026L153.336 103.795ZM159.019 101.896L159.404 103.858L159.406 103.858L159.019 101.896ZM171.238 101.628L171.787 99.7047C167.535 98.4909 163.014 98.147 158.552 98.7532L158.821 100.735L159.09 102.717C162.998 102.186 166.962 102.487 170.689 103.551L171.238 101.628ZM158.821 100.735L158.561 98.752C154.003 99.3508 149.374 101.391 146.068 105.076L147.556 106.411L149.045 107.747C151.602 104.897 155.292 103.216 159.082 102.718L158.821 100.735ZM147.556 106.411L146.016 105.136C144.472 107 143.3 109.07 142.45 111.23L144.311 111.962L146.172 112.695C146.882 110.891 147.848 109.195 149.097 107.687L147.556 106.411ZM144.311 111.962L142.472 111.175C141.543 113.345 140.976 115.694 140.83 118.063L142.826 118.187L144.822 118.31C144.94 116.406 145.397 114.506 146.149 112.75L144.311 111.962ZM142.826 118.187L140.831 118.045C140.494 122.768 141.85 127.652 144.807 131.339L146.367 130.088L147.928 128.837C145.661 126.01 144.549 122.147 144.821 118.329L142.826 118.187ZM146.367 130.088L148.102 129.092C146.252 125.872 145.52 122.104 145.98 118.554L143.997 118.297L142.013 118.04C141.44 122.46 142.349 127.109 144.633 131.084L146.367 130.088ZM143.997 118.297L145.979 118.561C146.461 114.951 147.942 111.354 150.214 108.736L148.704 107.425L147.193 106.114C144.334 109.408 142.583 113.768 142.014 118.033L143.997 118.297ZM148.704 107.425L150.224 108.724C151.315 107.448 152.7 106.393 154.271 105.563L153.336 103.795L152.402 102.026C150.459 103.053 148.653 104.406 147.183 106.125L148.704 107.425ZM153.336 103.795L154.203 105.597C155.847 104.807 157.592 104.214 159.404 103.858L159.019 101.896L158.634 99.9333C156.473 100.357 154.406 101.062 152.47 101.992L153.336 103.795ZM159.019 101.896L159.406 103.858C163.116 103.127 167.051 103.117 170.988 103.612L171.238 101.628L171.488 99.6436C167.23 99.1075 162.853 99.1014 158.632 99.9337L159.019 101.896Z" fill="black" mask="url(#path-72-inside-15_670_4105)"/>
<mask id="path-74-inside-16_670_4105" fill="white">
<path d="M208.983 104.639C212.325 104.449 215.666 104.719 218.816 105.571C221.957 106.43 224.896 107.947 227.172 110.2C229.454 112.449 230.979 115.39 231.914 118.532C232.815 121.69 233.192 125.036 233.142 128.405C233.825 125.088 233.755 121.613 233.053 118.24C232.349 114.866 230.737 111.606 228.243 109.103C225.719 106.652 222.455 105.046 219.082 104.424C215.716 103.773 212.249 103.82 208.983 104.639Z"/>
</mask>
<path d="M208.983 104.639C212.325 104.449 215.666 104.719 218.816 105.571C221.957 106.43 224.896 107.947 227.172 110.2C229.454 112.449 230.979 115.39 231.914 118.532C232.815 121.69 233.192 125.036 233.142 128.405C233.825 125.088 233.755 121.613 233.053 118.24C232.349 114.866 230.737 111.606 228.243 109.103C225.719 106.652 222.455 105.046 219.082 104.424C215.716 103.773 212.249 103.82 208.983 104.639Z" fill="#263238"/>
<path d="M208.983 104.639L208.496 102.699L209.096 106.636L208.983 104.639ZM218.816 105.571L219.344 103.642L219.338 103.64L218.816 105.571ZM227.172 110.2L225.764 111.621L225.768 111.625L227.172 110.2ZM231.914 118.532L233.837 117.983L233.834 117.973L233.831 117.962L231.914 118.532ZM233.142 128.405L231.142 128.376L235.101 128.809L233.142 128.405ZM233.053 118.24L235.011 117.832L235.011 117.831L233.053 118.24ZM228.243 109.103L229.659 107.692L229.648 107.68L229.636 107.669L228.243 109.103ZM219.082 104.424L218.702 106.388L218.711 106.39L218.72 106.391L219.082 104.424ZM208.983 104.639L209.096 106.636C212.26 106.456 215.383 106.714 218.294 107.502L218.816 105.571L219.338 103.64C215.949 102.724 212.39 102.442 208.869 102.642L208.983 104.639ZM218.816 105.571L218.288 107.5C221.168 108.288 223.781 109.658 225.764 111.621L227.172 110.2L228.579 108.779C226.011 106.237 222.746 104.573 219.344 103.642L218.816 105.571ZM227.172 110.2L225.768 111.625C227.748 113.576 229.13 116.19 229.997 119.103L231.914 118.532L233.831 117.962C232.827 114.591 231.159 111.322 228.575 108.776L227.172 110.2ZM231.914 118.532L229.99 119.082C230.831 122.024 231.19 125.171 231.142 128.376L233.142 128.405L235.141 128.435C235.194 124.9 234.8 121.356 233.837 117.983L231.914 118.532ZM233.142 128.405L235.101 128.809C235.844 125.197 235.763 121.444 235.011 117.832L233.053 118.24L231.095 118.647C231.748 121.782 231.805 124.98 231.183 128.002L233.142 128.405ZM233.053 118.24L235.011 117.831C234.238 114.124 232.459 110.501 229.659 107.692L228.243 109.103L226.826 110.515C229.015 112.711 230.461 115.608 231.095 118.648L233.053 118.24ZM228.243 109.103L229.636 107.669C226.813 104.927 223.184 103.146 219.444 102.457L219.082 104.424L218.72 106.391C221.727 106.945 224.625 108.378 226.849 110.538L228.243 109.103ZM219.082 104.424L219.462 102.461C215.83 101.758 212.067 101.803 208.496 102.699L208.983 104.639L209.469 106.579C212.431 105.836 215.601 105.788 218.702 106.388L219.082 104.424Z" fill="black" mask="url(#path-74-inside-16_670_4105)"/>
<mask id="path-76-inside-17_670_4105" fill="white">
<path d="M220.878 143.053C217.729 140.722 214.913 138.12 212.787 135.017C211.678 133.497 210.877 131.793 210.212 130.033C209.496 128.268 209.277 126.365 208.959 124.408C208.64 126.342 208.564 128.402 209.083 130.365C209.52 132.34 210.368 134.237 211.53 135.891C212.696 137.542 214.084 139.029 215.683 140.225C217.274 141.423 218.997 142.449 220.878 143.053Z"/>
</mask>
<path d="M220.878 143.053C217.729 140.722 214.913 138.12 212.787 135.017C211.678 133.497 210.877 131.793 210.212 130.033C209.496 128.268 209.277 126.365 208.959 124.408C208.64 126.342 208.564 128.402 209.083 130.365C209.52 132.34 210.368 134.237 211.53 135.891C212.696 137.542 214.084 139.029 215.683 140.225C217.274 141.423 218.997 142.449 220.878 143.053Z" fill="#263238"/>
<path d="M220.878 143.053L220.267 144.957L222.068 141.446L220.878 143.053ZM212.787 135.017L214.437 133.886L214.42 133.862L214.402 133.838L212.787 135.017ZM210.212 130.033L212.083 129.326L212.074 129.304L212.065 129.282L210.212 130.033ZM208.959 124.408L210.933 124.087L206.985 124.083L208.959 124.408ZM209.083 130.365L211.035 129.933L211.027 129.894L211.016 129.855L209.083 130.365ZM211.53 135.891L209.894 137.041L209.897 137.045L211.53 135.891ZM215.683 140.225L216.887 138.628L216.881 138.624L215.683 140.225ZM220.878 143.053L222.068 141.446C219.025 139.193 216.394 136.743 214.437 133.886L212.787 135.017L211.137 136.147C213.431 139.496 216.434 142.251 219.688 144.661L220.878 143.053ZM212.787 135.017L214.402 133.838C213.439 132.518 212.714 130.997 212.083 129.326L210.212 130.033L208.341 130.74C209.039 132.59 209.916 134.476 211.171 136.196L212.787 135.017ZM210.212 130.033L212.065 129.282C211.458 127.783 211.273 126.183 210.933 124.087L208.959 124.408L206.985 124.728C207.28 126.547 207.535 128.752 208.358 130.784L210.212 130.033ZM208.959 124.408L206.985 124.083C206.641 126.173 206.532 128.541 207.149 130.876L209.083 130.365L211.016 129.855C210.596 128.262 210.639 126.511 210.932 124.733L208.959 124.408ZM209.083 130.365L207.13 130.798C207.626 133.037 208.584 135.176 209.894 137.041L211.53 135.891L213.167 134.742C212.152 133.297 211.414 131.643 211.035 129.933L209.083 130.365ZM211.53 135.891L209.897 137.045C211.166 138.843 212.696 140.488 214.485 141.826L215.683 140.225L216.881 138.624C215.473 137.57 214.227 136.242 213.164 134.738L211.53 135.891ZM215.683 140.225L214.48 141.822C216.178 143.102 218.102 144.262 220.267 144.957L220.878 143.053L221.49 141.149C219.893 140.636 218.369 139.744 216.887 138.628L215.683 140.225Z" fill="black" mask="url(#path-76-inside-17_670_4105)"/>
<path d="M176.844 168.122C176.769 168.276 176.579 168.349 176.414 168.271M176.844 168.122L176.553 167.983M176.844 168.122L176.846 168.12L176.868 168.059C176.904 167.916 176.838 167.76 176.696 167.691L176.553 167.983M176.844 168.122L176.553 167.983M176.414 168.271L176.553 167.983M176.414 168.271L176.694 167.691C176.693 167.69 176.691 167.69 176.689 167.689M176.414 168.271C176.413 168.271 176.412 168.27 176.411 168.27L176.689 167.689M176.689 167.689C176.527 167.614 176.337 167.682 176.259 167.837M176.689 167.689L176.551 167.977M176.551 167.977L176.41 168.269C176.265 168.199 176.199 168.043 176.235 167.901L176.256 167.843L176.257 167.84C176.257 167.839 176.258 167.838 176.259 167.837M176.551 167.977L176.259 167.837M176.551 167.977L176.259 167.837" fill="#FFD89D" stroke="black" stroke-width="2"/>
<path d="M189.432 173.816C189.6 173.893 189.79 173.818 189.864 173.664L189.574 173.524L189.432 173.816ZM189.432 173.816L189.712 173.236C189.71 173.235 189.708 173.234 189.706 173.233M189.432 173.816C189.43 173.815 189.427 173.815 189.425 173.814V173.813C189.26 173.732 189.201 173.541 189.273 173.389L189.277 173.381M189.706 173.233L189.566 173.52M189.706 173.233C189.544 173.159 189.356 173.227 189.277 173.381M189.706 173.233L189.566 173.52M189.277 173.381L189.567 173.521H189.568L189.566 173.52M189.277 173.381L189.566 173.52M189.714 173.237C189.876 173.316 189.938 173.507 189.864 173.663L189.574 173.523L189.714 173.237Z" fill="#FFD89D" stroke="black" stroke-width="2"/>
<path d="M182.802 176.146C182.964 176.221 183.152 176.153 183.23 175.999L182.94 175.86M182.802 176.146L182.94 175.86M182.802 176.146L182.94 175.86M182.802 176.146H182.801M182.94 175.86H182.939M182.801 176.146L182.939 175.86M182.801 176.146L182.939 175.86M182.801 176.146C182.8 176.145 182.798 176.146 182.797 176.145L182.935 175.858L182.939 175.86M182.94 175.859L183.23 175.998C183.232 175.995 183.234 175.994 183.235 175.992L183.234 175.995C183.31 175.837 183.246 175.645 183.082 175.566L182.94 175.859ZM182.94 175.859L183.083 175.566C183.081 175.565 183.078 175.564 183.076 175.563M182.94 175.859L182.936 175.856L183.076 175.563M183.076 175.563C182.913 175.489 182.724 175.56 182.647 175.713M183.076 175.563L182.937 175.851M182.937 175.851L182.934 175.856L182.646 175.717C182.646 175.716 182.647 175.715 182.647 175.713M182.937 175.851L182.647 175.713M182.937 175.851L182.647 175.713M182.934 175.857L182.795 176.144C182.633 176.065 182.571 175.875 182.645 175.719L182.934 175.857Z" fill="#FFD89D" stroke="black" stroke-width="2"/>
<path d="M179.596 163.229C179.52 163.381 179.333 163.453 179.167 163.377M179.596 163.229L179.307 163.091M179.596 163.229C179.597 163.227 179.598 163.226 179.599 163.225L179.303 163.082M179.596 163.229L179.307 163.091M179.167 163.377L179.307 163.091M179.167 163.377L179.307 163.091M179.167 163.377L179.162 163.375C178.999 163.296 178.937 163.106 179.011 162.95L179.307 163.091M179.307 163.091L179.3 163.087M179.303 163.082L179.3 163.087M179.303 163.082L179.3 163.087M179.303 163.082L179.014 162.943C179.013 162.945 179.012 162.947 179.011 162.949L179.3 163.087M179.31 163.083L179.601 163.222C179.665 163.087 179.626 162.923 179.506 162.832L179.45 162.798M179.31 163.083L179.45 162.798M179.31 163.083L179.45 162.798M179.31 163.083L179.014 162.942C179.091 162.79 179.28 162.721 179.443 162.795L179.45 162.798" fill="#FFD89D" stroke="black" stroke-width="2"/>
<path d="M183.671 169.432L183.963 169.571C184.028 169.436 183.989 169.272 183.868 169.18L183.812 169.145H183.81M183.671 169.432L183.81 169.145M183.671 169.432L183.81 169.145M183.671 169.432L183.377 169.291C183.455 169.137 183.647 169.067 183.81 169.145M183.376 169.292L183.963 169.573C183.887 169.732 183.691 169.805 183.525 169.725V169.724C183.363 169.644 183.3 169.453 183.375 169.297L183.376 169.292Z" fill="#FFD89D" stroke="black" stroke-width="2"/>
<path d="M219.207 175.695L219.502 175.837C219.502 175.838 219.5 175.839 219.499 175.841L219.204 175.699M219.207 175.695L219.204 175.699M219.207 175.695L218.915 175.556C218.915 175.557 218.914 175.559 218.913 175.561L219.204 175.699M219.207 175.695L219.204 175.699M218.912 175.562L219.498 175.841C219.421 175.996 219.228 176.068 219.064 175.988V175.987C218.9 175.907 218.84 175.715 218.912 175.562ZM218.916 175.555C218.993 175.402 219.183 175.331 219.346 175.406L219.352 175.409L219.407 175.443C219.527 175.534 219.567 175.698 219.502 175.835L218.916 175.555Z" fill="#FFD89D" stroke="black" stroke-width="2"/>
<path d="M213.095 177.028C213.017 177.182 212.829 177.252 212.666 177.177L212.806 176.89L213.095 177.028ZM213.095 177.028C213.096 177.025 213.099 177.023 213.1 177.021L213.099 177.025C213.175 176.865 213.109 176.675 212.948 176.597L212.806 176.889L213.095 177.028ZM212.801 176.886L212.805 176.889L212.948 176.596C212.946 176.595 212.944 176.595 212.942 176.594M212.801 176.886L212.942 176.594M212.801 176.886L212.942 176.594M212.801 176.886L212.798 176.885M212.942 176.594L212.941 176.593M212.798 176.885L212.941 176.593M212.798 176.885L212.941 176.593M212.798 176.885L212.51 176.748C212.585 176.591 212.776 176.518 212.941 176.593M212.509 176.75L212.805 176.89L212.666 177.176C212.664 177.175 212.662 177.175 212.659 177.174C212.496 177.094 212.436 176.902 212.509 176.75Z" fill="#FFD89D" stroke="black" stroke-width="2"/>
<path d="M212.385 181.645C212.308 181.798 212.118 181.869 211.955 181.794M212.385 181.645L212.096 181.506M212.385 181.645C212.385 181.643 212.387 181.642 212.388 181.641L212.093 181.499M212.385 181.645L212.096 181.506M211.955 181.794L212.096 181.506M211.955 181.794L212.096 181.506M211.955 181.794C211.953 181.793 211.951 181.793 211.949 181.792V181.791C211.785 181.711 211.724 181.518 211.798 181.364L212.096 181.506M212.096 181.506L212.09 181.503M212.093 181.499L212.09 181.503M212.093 181.499L212.09 181.503M212.093 181.499L212.091 181.498M212.09 181.503L212.089 181.502M212.096 181.499L212.388 181.639C212.452 181.503 212.414 181.339 212.292 181.247L212.238 181.214C212.237 181.213 212.236 181.213 212.234 181.212M212.096 181.499L212.234 181.212M212.096 181.499L212.234 181.212M212.096 181.499L211.801 181.358C211.877 181.207 212.067 181.133 212.234 181.212M212.089 181.502L212.091 181.498M212.089 181.502L212.091 181.498M212.089 181.502L211.799 181.363C211.799 181.362 211.8 181.361 211.801 181.359L212.091 181.498" fill="#FFD89D" stroke="black" stroke-width="2"/>
<path d="M217.431 180.984C217.596 181.061 217.788 180.99 217.865 180.83L217.864 180.833C217.93 180.695 217.888 180.531 217.769 180.439L217.713 180.404L217.714 180.405C217.711 180.404 217.708 180.404 217.705 180.402L217.564 180.696M217.431 180.984L217.57 180.699M217.431 180.984L217.57 180.699M217.431 180.984C217.429 180.984 217.427 180.984 217.426 180.983L217.564 180.696M217.57 180.699L217.564 180.696M217.57 180.699L217.564 180.696M217.274 180.556C217.35 180.399 217.54 180.328 217.704 180.401L217.424 180.981C217.283 180.913 217.216 180.759 217.252 180.616L217.273 180.559L217.274 180.556Z" fill="#FFD89D" stroke="black" stroke-width="2"/>
<mask id="path-87-inside-18_670_4105" fill="white">
<path d="M184.036 178.117C177.796 176.209 173.373 170.224 173.684 163.373C174.054 155.272 180.903 148.984 188.953 149.354C197.006 149.724 203.254 156.615 202.887 164.715L202.886 164.716C202.517 172.815 195.668 179.103 187.618 178.734C186.375 178.677 185.176 178.465 184.036 178.117ZM191.968 151.854C190.981 151.552 189.942 151.368 188.867 151.319C181.892 150.998 175.959 156.446 175.637 163.463C175.321 170.479 180.735 176.457 187.707 176.77C194.683 177.091 200.615 171.642 200.937 164.626C201.205 158.692 197.375 153.507 191.968 151.854Z"/>
</mask>
<path d="M184.036 178.117C177.796 176.209 173.373 170.224 173.684 163.373C174.054 155.272 180.903 148.984 188.953 149.354C197.006 149.724 203.254 156.615 202.887 164.715L202.886 164.716C202.517 172.815 195.668 179.103 187.618 178.734C186.375 178.677 185.176 178.465 184.036 178.117ZM191.968 151.854C190.981 151.552 189.942 151.368 188.867 151.319C181.892 150.998 175.959 156.446 175.637 163.463C175.321 170.479 180.735 176.457 187.707 176.77C194.683 177.091 200.615 171.642 200.937 164.626C201.205 158.692 197.375 153.507 191.968 151.854Z" fill="#455A64"/>
<path d="M184.036 178.117L183.451 180.03L183.451 180.03L184.036 178.117ZM173.684 163.373L171.686 163.282L171.686 163.283L173.684 163.373ZM188.953 149.354L188.861 151.352L188.862 151.352L188.953 149.354ZM202.887 164.715L204.295 166.136L204.85 165.586L204.885 164.806L202.887 164.715ZM202.886 164.716L201.478 163.296L200.924 163.845L200.888 164.625L202.886 164.716ZM187.618 178.734L187.525 180.732L187.526 180.732L187.618 178.734ZM191.968 151.854L191.381 153.766L191.383 153.767L191.968 151.854ZM188.867 151.319L188.774 153.317L188.776 153.317L188.867 151.319ZM175.637 163.463L173.639 163.372L173.639 163.373L175.637 163.463ZM187.707 176.77L187.799 174.772L187.797 174.772L187.707 176.77ZM200.937 164.626L202.935 164.718L202.935 164.717L200.937 164.626ZM184.036 178.117L184.621 176.204C179.238 174.558 175.413 169.386 175.682 163.464L173.684 163.373L171.686 163.283C171.332 171.062 176.354 177.859 183.451 180.03L184.036 178.117ZM173.684 163.373L175.682 163.465C176.002 156.455 181.926 151.033 188.861 151.352L188.953 149.354L189.045 147.357C179.879 146.935 172.106 154.089 171.686 163.282L173.684 163.373ZM188.953 149.354L188.862 151.352C195.8 151.671 201.207 157.615 200.889 164.625L202.887 164.715L204.885 164.806C205.302 155.614 198.213 147.777 189.045 147.357L188.953 149.354ZM202.887 164.715L201.479 163.295L201.478 163.296L202.886 164.716L204.294 166.137L204.295 166.136L202.887 164.715ZM202.886 164.716L200.888 164.625C200.569 171.631 194.645 177.054 187.709 176.736L187.618 178.734L187.526 180.732C196.691 181.152 204.465 173.998 204.884 164.807L202.886 164.716ZM187.618 178.734L187.71 176.736C186.635 176.687 185.601 176.504 184.621 176.204L184.036 178.117L183.451 180.03C184.75 180.427 186.115 180.667 187.525 180.732L187.618 178.734ZM191.968 151.854L192.554 149.942C191.408 149.591 190.202 149.378 188.957 149.321L188.867 151.319L188.776 153.317C189.681 153.358 190.555 153.513 191.381 153.766L191.968 151.854ZM188.867 151.319L188.959 149.321C180.868 148.948 174.011 155.263 173.639 163.372L175.637 163.463L177.634 163.555C177.907 157.629 182.916 153.047 188.774 153.317L188.867 151.319ZM175.637 163.463L173.639 163.373C173.274 171.477 179.527 178.405 187.617 178.768L187.707 176.77L187.797 174.772C181.944 174.51 177.368 169.48 177.635 163.553L175.637 163.463ZM187.707 176.77L187.615 178.768C195.706 179.14 202.562 172.825 202.935 164.718L200.937 164.626L198.939 164.534C198.667 170.46 193.659 175.042 187.799 174.772L187.707 176.77ZM200.937 164.626L202.935 164.717C203.245 157.855 198.817 151.857 192.552 149.942L191.968 151.854L191.383 153.767C195.932 155.158 199.165 159.53 198.939 164.536L200.937 164.626Z" fill="black" mask="url(#path-87-inside-18_670_4105)"/>
<mask id="path-89-inside-19_670_4105" fill="white">
<path d="M215.868 183.548C210.516 181.912 207.328 174.914 208.678 167.363C209.359 163.552 211.082 160.153 213.528 157.795C216.055 155.353 219.058 154.3 221.977 154.829C224.909 155.353 227.345 157.398 228.87 160.573C230.343 163.644 230.779 167.433 230.097 171.241C228.667 179.22 222.703 184.843 216.8 183.775C216.483 183.716 216.172 183.641 215.868 183.548ZM222.353 156.939C222.117 156.868 221.876 156.808 221.632 156.764C219.345 156.349 216.947 157.219 214.879 159.211C212.731 161.286 211.21 164.304 210.599 167.708C209.364 174.622 212.282 180.962 217.145 181.838C221.988 182.716 226.935 177.804 228.174 170.892C228.783 167.487 228.405 164.126 227.108 161.425C225.998 159.111 224.328 157.543 222.353 156.939Z"/>
</mask>
<path d="M215.868 183.548C210.516 181.912 207.328 174.914 208.678 167.363C209.359 163.552 211.082 160.153 213.528 157.795C216.055 155.353 219.058 154.3 221.977 154.829C224.909 155.353 227.345 157.398 228.87 160.573C230.343 163.644 230.779 167.433 230.097 171.241C228.667 179.22 222.703 184.843 216.8 183.775C216.483 183.716 216.172 183.641 215.868 183.548ZM222.353 156.939C222.117 156.868 221.876 156.808 221.632 156.764C219.345 156.349 216.947 157.219 214.879 159.211C212.731 161.286 211.21 164.304 210.599 167.708C209.364 174.622 212.282 180.962 217.145 181.838C221.988 182.716 226.935 177.804 228.174 170.892C228.783 167.487 228.405 164.126 227.108 161.425C225.998 159.111 224.328 157.543 222.353 156.939Z" fill="#455A64"/>
<path d="M215.868 183.548L215.283 185.461L215.285 185.461L215.868 183.548ZM208.678 167.363L210.646 167.715L210.646 167.715L208.678 167.363ZM213.528 157.795L214.916 159.235L214.918 159.233L213.528 157.795ZM221.977 154.829L221.62 156.797L221.625 156.798L221.977 154.829ZM228.87 160.573L230.673 159.708L230.673 159.708L228.87 160.573ZM230.097 171.241L232.066 171.593L232.066 171.593L230.097 171.241ZM216.8 183.775L216.433 185.741L216.444 185.743L216.8 183.775ZM222.353 156.939L222.938 155.027L222.935 155.026L222.353 156.939ZM221.632 156.764L221.274 158.732L221.277 158.733L221.632 156.764ZM214.879 159.211L213.491 157.771L213.489 157.773L214.879 159.211ZM210.599 167.708L208.631 167.355L208.63 167.357L210.599 167.708ZM217.145 181.838L217.501 179.87L217.5 179.87L217.145 181.838ZM228.174 170.892L230.143 171.245L230.143 171.244L228.174 170.892ZM227.108 161.425L225.305 162.29L225.305 162.291L227.108 161.425ZM215.868 183.548L216.453 181.636C214.46 181.026 212.709 179.366 211.585 176.856C210.465 174.355 210.036 171.128 210.646 167.715L208.678 167.363L206.709 167.011C205.969 171.148 206.46 175.197 207.934 178.491C209.406 181.777 211.925 184.434 215.283 185.461L215.868 183.548ZM208.678 167.363L210.646 167.715C211.264 164.258 212.815 161.261 214.916 159.235L213.528 157.795L212.14 156.355C209.35 159.045 207.453 162.845 206.709 167.011L208.678 167.363ZM213.528 157.795L214.918 159.233C217.079 157.145 219.456 156.405 221.62 156.797L221.977 154.829L222.334 152.861C218.659 152.195 215.032 153.56 212.138 156.357L213.528 157.795ZM221.977 154.829L221.625 156.798C223.795 157.186 225.759 158.714 227.067 161.439L228.87 160.573L230.673 159.708C228.931 156.081 226.022 153.521 222.329 152.86L221.977 154.829ZM228.87 160.573L227.067 161.439C228.334 164.08 228.747 167.435 228.128 170.888L230.097 171.241L232.066 171.593C232.811 167.43 232.352 163.207 230.673 159.708L228.87 160.573ZM230.097 171.241L228.128 170.888C227.481 174.498 225.82 177.498 223.754 179.445C221.687 181.394 219.335 182.202 217.156 181.807L216.8 183.775L216.444 185.743C220.168 186.417 223.75 184.947 226.498 182.356C229.247 179.764 231.283 175.963 232.066 171.593L230.097 171.241ZM216.8 183.775L217.167 181.809C216.917 181.762 216.679 181.705 216.452 181.635L215.868 183.548L215.285 185.461C215.666 185.578 216.048 185.669 216.433 185.741L216.8 183.775ZM222.353 156.939L222.935 155.026C222.631 154.933 222.314 154.855 221.986 154.796L221.632 156.764L221.277 158.733C221.439 158.762 221.603 158.802 221.771 158.853L222.353 156.939ZM221.632 156.764L221.989 154.796C218.918 154.239 215.899 155.451 213.491 157.771L214.879 159.211L216.266 160.652C217.994 158.987 219.771 158.459 221.274 158.732L221.632 156.764ZM214.879 159.211L213.489 157.773C210.994 160.184 209.303 163.604 208.631 167.355L210.599 167.708L212.568 168.061C213.116 165.004 214.468 162.389 216.268 160.65L214.879 159.211ZM210.599 167.708L208.63 167.357C207.95 171.168 208.395 174.903 209.77 177.876C211.141 180.843 213.54 183.221 216.79 183.806L217.145 181.838L217.5 179.87C215.887 179.579 214.395 178.349 213.401 176.198C212.409 174.054 212.014 171.162 212.568 168.06L210.599 167.708ZM217.145 181.838L216.788 183.806C220.03 184.394 223.104 183.005 225.42 180.706C227.742 178.401 229.459 175.057 230.143 171.245L228.174 170.892L226.206 170.539C225.65 173.639 224.274 176.207 222.602 177.867C220.924 179.532 219.103 180.16 217.501 179.87L217.145 181.838ZM228.174 170.892L230.143 171.244C230.814 167.492 230.416 163.695 228.911 160.56L227.108 161.425L225.305 162.291C226.393 164.557 226.752 167.482 226.206 170.54L228.174 170.892ZM227.108 161.425L228.911 160.56C227.62 157.867 225.567 155.831 222.938 155.027L222.353 156.939L221.768 158.852C223.088 159.256 224.376 160.355 225.305 162.29L227.108 161.425Z" fill="black" mask="url(#path-89-inside-19_670_4105)"/>
<mask id="path-91-inside-20_670_4105" fill="white">
<path d="M202.248 166.326L201.429 164.887C203.546 163.667 208.174 162.347 210.564 166.072L209.181 166.97C207.044 163.63 202.443 166.217 202.248 166.326Z"/>
</mask>
<path d="M202.248 166.326L201.429 164.887C203.546 163.667 208.174 162.347 210.564 166.072L209.181 166.97C207.044 163.63 202.443 166.217 202.248 166.326Z" fill="#455A64"/>
<path d="M202.248 166.326L200.51 167.315L201.492 169.041L203.225 168.072L202.248 166.326ZM201.429 164.887L200.43 163.154L198.707 164.147L199.691 165.876L201.429 164.887ZM210.564 166.072L211.654 167.749L213.321 166.665L212.247 164.992L210.564 166.072ZM209.181 166.97L207.496 168.048L208.581 169.745L210.27 168.647L209.181 166.97ZM202.248 166.326L203.986 165.337L203.167 163.898L201.429 164.887L199.691 165.876L200.51 167.315L202.248 166.326ZM201.429 164.887L202.428 166.62C203.272 166.133 204.622 165.637 205.914 165.625C207.113 165.613 208.139 165.996 208.88 167.152L210.564 166.072L212.247 164.992C210.599 162.422 208.117 161.603 205.875 161.625C203.726 161.646 201.704 162.42 200.43 163.154L201.429 164.887ZM210.564 166.072L209.474 164.395L208.091 165.293L209.181 166.97L210.27 168.647L211.654 167.749L210.564 166.072ZM209.181 166.97L210.866 165.893C209.178 163.254 206.476 163.076 204.654 163.383C202.858 163.685 201.411 164.503 201.271 164.581L202.248 166.326L203.225 168.072C203.28 168.041 204.231 167.51 205.318 167.327C206.38 167.148 207.047 167.346 207.496 168.048L209.181 166.97Z" fill="black" mask="url(#path-91-inside-20_670_4105)"/>
<mask id="path-93-inside-21_670_4105" fill="white">
<path d="M143.149 158.887L141.843 157.877C142.313 157.264 146.525 151.892 150.251 151.956C153.733 152.026 175.1 158.01 176.008 158.266L175.563 159.863C169.439 158.14 152.913 153.659 150.224 153.614C147.763 153.57 144.284 157.406 143.149 158.887Z"/>
</mask>
<path d="M143.149 158.887L141.843 157.877C142.313 157.264 146.525 151.892 150.251 151.956C153.733 152.026 175.1 158.01 176.008 158.266L175.563 159.863C169.439 158.14 152.913 153.659 150.224 153.614C147.763 153.57 144.284 157.406 143.149 158.887Z" fill="#455A64"/>
<path d="M143.149 158.887L141.926 160.469L143.515 161.697L144.737 160.103L143.149 158.887ZM141.843 157.877L140.256 156.66L139.044 158.241L140.62 159.459L141.843 157.877ZM150.251 151.956L150.292 149.956L150.286 149.956L150.251 151.956ZM176.008 158.266L177.934 158.803L178.468 156.884L176.551 156.342L176.008 158.266ZM175.563 159.863L175.022 161.788L176.952 162.331L177.49 160.399L175.563 159.863ZM150.224 153.614L150.188 155.614L150.19 155.614L150.224 153.614ZM143.149 158.887L144.373 157.304L143.067 156.295L141.843 157.877L140.62 159.459L141.926 160.469L143.149 158.887ZM141.843 157.877L143.43 159.094C143.636 158.827 144.718 157.443 146.16 156.153C146.88 155.508 147.643 154.93 148.388 154.524C149.146 154.111 149.758 153.947 150.217 153.955L150.251 151.956L150.286 149.956C148.881 149.932 147.57 150.415 146.475 151.011C145.368 151.614 144.35 152.405 143.493 153.172C141.779 154.706 140.521 156.315 140.256 156.66L141.843 157.877ZM150.251 151.956L150.211 153.955C150.83 153.968 152.59 154.293 155.17 154.885C157.648 155.453 160.652 156.21 163.59 156.976C169.463 158.509 175.018 160.065 175.464 160.191L176.008 158.266L176.551 156.342C176.09 156.211 170.507 154.647 164.6 153.106C161.647 152.336 158.599 151.567 156.064 150.986C153.63 150.428 151.414 149.979 150.292 149.956L150.251 151.956ZM176.008 158.266L174.081 157.73L173.637 159.327L175.563 159.863L177.49 160.399L177.934 158.803L176.008 158.266ZM175.563 159.863L176.105 157.938C173.032 157.073 167.354 155.518 162.102 154.172C159.477 153.499 156.946 152.875 154.894 152.416C152.941 151.978 151.179 151.63 150.257 151.615L150.224 153.614L150.19 155.614C150.613 155.621 151.926 155.85 154.019 156.319C156.013 156.766 158.5 157.378 161.109 158.047C166.323 159.383 171.971 160.93 175.022 161.788L175.563 159.863ZM150.224 153.614L150.26 151.615C149.149 151.595 148.112 152.002 147.282 152.456C146.424 152.924 145.605 153.541 144.883 154.165C143.44 155.41 142.195 156.844 141.562 157.67L143.149 158.887L144.737 160.103C145.239 159.448 146.3 158.225 147.496 157.193C148.093 156.678 148.675 156.252 149.198 155.967C149.747 155.667 150.068 155.612 150.188 155.614L150.224 153.614Z" fill="black" mask="url(#path-93-inside-21_670_4105)"/>
<path d="M146.799 148.907C147.986 148.524 149.265 148.87 150.646 149.857C152.027 150.845 153.364 152.38 154.549 154.045C155.726 155.698 156.713 157.423 157.408 158.741C157.755 159.399 158.027 159.951 158.212 160.338C158.296 160.513 158.361 160.654 158.407 160.755L158.547 171.697C158.451 171.823 158.315 171.994 158.138 172.188C157.741 172.62 157.16 173.152 156.418 173.571C155.681 173.988 154.793 174.291 153.759 174.29C152.793 174.289 151.642 174.024 150.31 173.258L150.04 173.098C148.715 172.283 147.435 170.526 146.38 168.134C145.339 165.774 144.578 162.934 144.204 160.139C143.83 157.335 143.854 154.646 144.331 152.571C144.789 150.583 145.594 149.413 146.596 148.983L146.799 148.907Z" fill="#FFD89D" stroke="black" stroke-width="2"/>
<path d="M154.962 166.651C155.024 167.302 155.048 167.943 155.036 168.565C154.834 167.987 154.599 167.412 154.313 166.872L154.962 166.651Z" fill="#263238" stroke="black" stroke-width="2"/>
<path d="M333.602 342.82V346H220.815V342.82H333.602Z" fill="#455A64" stroke="black" stroke-width="2"/>
<path d="M276.589 342.82V346H220.815V342.82H276.589Z" fill="#A6A6A6" stroke="black" stroke-width="2"/>
<path d="M402.694 271.554L387.301 345.996H277.477L292.868 271.554H402.694Z" fill="#C7C7C7" stroke="black" stroke-width="2"/>
<path d="M339.653 303.981C343.055 303.981 345.543 306.639 345.357 310.047L345.331 310.379C344.95 314.022 341.682 316.984 338.085 316.984C334.683 316.984 332.195 314.327 332.381 310.919L332.408 310.587C332.788 306.944 336.056 303.982 339.653 303.981Z" fill="white" stroke="black" stroke-width="2"/>
</svg>
