<svg width="29" height="34" viewBox="0 0 29 34" fill="none" xmlns="http://www.w3.org/2000/svg">
<path fill-rule="evenodd" clip-rule="evenodd" d="M24.425 21.5305C26.8386 24.1272 28.5061 27.6484 28.9867 31.62C29.0199 31.9193 28.9907 32.2223 28.9008 32.5092C28.811 32.7962 28.6626 33.0607 28.4654 33.2853C28.2681 33.51 28.0265 33.6897 27.7562 33.8129C27.486 33.936 27.1932 33.9998 26.8971 34H2.10344C1.80709 34.0005 1.514 33.9372 1.24342 33.8142C0.972852 33.6913 0.730928 33.5115 0.533554 33.2867C0.336181 33.0619 0.187828 32.7972 0.0982464 32.5099C0.00866494 32.2227 -0.0201162 31.9194 0.0137948 31.62C0.494413 27.6462 2.16195 24.1272 4.57549 21.5305C5.09163 22.015 5.63076 22.4697 6.20959 22.8756C4.04054 25.1472 2.52137 28.2944 2.08881 31.8792L26.8971 31.875C26.4708 28.2922 24.9537 25.1472 22.7888 22.8756C23.3653 22.4678 23.9121 22.0182 24.425 21.5305ZM14.4992 0C18.4695 0 20.7681 4.25 23.6518 5.59512C23.1662 6.17189 22.5637 6.63513 21.8857 6.95312C21.2076 7.27111 20.47 7.43634 19.7233 7.4375C19.1006 7.4375 18.5134 7.31 17.9597 7.10387C17.2326 8.03273 16.3096 8.78363 15.259 9.30113C14.2083 9.81863 13.0567 10.0895 11.8892 10.0937C8.97419 10.0937 4.05308 10.625 5.10835 6.04987C8.23237 4.25 10.345 0 14.4992 0Z" fill="black"/>
<path fill-rule="evenodd" clip-rule="evenodd" d="M14.5031 2.10189C19.1332 2.10189 22.9023 5.86891 22.9023 10.501C22.9023 15.1332 19.1332 18.9002 14.5031 18.9002C9.86891 18.9002 6.10399 15.1332 6.10399 10.501C6.10399 5.86891 9.86891 2.10189 14.5031 2.10189ZM14.5031 21C17.2879 20.9992 19.9583 19.8921 21.9268 17.9224C23.8954 15.9527 25.0008 13.2816 25 10.4969C24.9992 7.71208 23.8921 5.04169 21.9224 3.07315C19.9527 1.10461 17.2816 -0.000834875 14.4969 4.73089e-07C11.7121 0.000835821 9.04169 1.10788 7.07315 3.07761C5.10461 5.04733 3.99917 7.71838 4 10.5031C4.00084 13.2879 5.10788 15.9583 7.07761 17.9268C9.04733 19.8954 11.7184 21.0008 14.5031 21Z" fill="black"/>
</svg>
