<svg width="36" height="34" viewBox="0 0 36 34" fill="none" xmlns="http://www.w3.org/2000/svg">
<path fill-rule="evenodd" clip-rule="evenodd" d="M10.6071 7.51515C10.6071 5.52201 11.4244 3.6105 12.8793 2.20114C14.3341 0.791772 16.3073 0 18.3647 0C20.4221 0 22.3953 0.791772 23.8501 2.20114C25.305 3.6105 26.1223 5.52201 26.1223 7.51515C26.1223 9.50829 25.305 11.4198 23.8501 12.8292C22.3953 14.2385 20.4221 15.0303 18.3647 15.0303C16.3073 15.0303 14.3341 14.2385 12.8793 12.8292C11.4244 11.4198 10.6071 9.50829 10.6071 7.51515ZM10.6071 18.7879C8.03533 18.7879 5.56887 19.7776 3.75033 21.5393C1.9318 23.301 0.910156 25.6904 0.910156 28.1818C0.910156 29.6767 1.52314 31.1103 2.61426 32.1673C3.70538 33.2243 5.18526 33.8182 6.72834 33.8182H30.0011C31.5441 33.8182 33.024 33.2243 34.1151 32.1673C35.2063 31.1103 35.8192 29.6767 35.8192 28.1818C35.8192 25.6904 34.7976 23.301 32.9791 21.5393C31.1605 19.7776 28.6941 18.7879 26.1223 18.7879H10.6071Z" fill="black"/>
</svg>
